<?xml version="1.0" encoding="utf-8"?>
<svg version="1.1" xmlns:cc="http://creativecommons.org/ns#" xmlns:dc="http://purl.org/dc/elements/1.1/" xmlns:rdf="http://www.w3.org/1999/02/22-rdf-syntax-ns#" xmlns="http://www.w3.org/2000/svg" xmlns:xlink="http://www.w3.org/1999/xlink" x="0px" y="0px" viewBox="0 0 1024 768" xml:space="preserve">
<defs>
<filter id="f1" x="-50%" y="-50%" width="200%" height="200%">
  <feGaussianBlur in="SourceGraphic" stdDeviation="20" />
</filter>
</defs>
<path d="m499.51 304.2v0.01c-0.01 0-0.07 0.22-0.14 0.5-0.06 0.27-0.15 0.66-0.19 0.87-0.04 0.22-0.1 0.57-0.14 0.8-0.03 0.23-0.07 0.57-0.09 0.77-0.03 0.23-0.04 0.74-0.04 1.43 0 0.95 0.01 1.13 0.07 1.56 0.03 0.27 0.1 0.69 0.15 0.92 0.05 0.24 0.14 0.62 0.21 0.84 0.06 0.22 0.18 0.56 0.25 0.76 0.08 0.2 0.21 0.51 0.29 0.69 0.09 0.19 0.23 0.46 0.31 0.61 0.09 0.15 0.25 0.41 0.36 0.58 0.12 0.17 0.33 0.47 0.48 0.65 0.15 0.19 0.47 0.53 0.7 0.76 0.24 0.22 0.59 0.54 0.8 0.69s0.52 0.37 0.7 0.47c0.18 0.11 0.39 0.23 0.47 0.27l0.15 0.08 0.02 0.91c0.01 0.5 0.03 1.29 0.06 1.75 0.02 0.47 0.05 0.95 0.06 1.08l0.02 0.24-0.32 0.02c-0.18 0.01-0.47 0.04-0.65 0.07-0.18 0.02-0.52 0.1-0.77 0.16-0.24 0.06-0.58 0.16-0.74 0.22s-0.49 0.2-0.73 0.32-0.58 0.31-0.76 0.42c-0.17 0.12-0.44 0.32-0.61 0.46-0.17 0.13-0.47 0.4-0.65 0.59-0.19 0.18-0.46 0.48-0.6 0.66-0.14 0.17-0.35 0.46-0.47 0.64s-0.33 0.51-0.46 0.73-0.36 0.63-0.51 0.9c-0.15 0.28-0.39 0.73-0.52 1-0.13 0.28-0.33 0.69-0.43 0.92s-0.29 0.68-0.41 1c-0.13 0.33-0.34 0.91-0.47 1.29s-0.31 0.95-0.4 1.27-0.21 0.77-0.26 1c-0.06 0.24-0.15 0.66-0.21 0.93-0.06 0.28-0.14 0.71-0.18 0.95s-0.1 0.63-0.13 0.87c-0.03 0.23-0.09 0.68-0.12 1s-0.07 0.82-0.09 1.12-0.04 1.07-0.04 1.7 0.02 1.38 0.04 1.65c0.02 0.28 0.06 0.78 0.09 1.11s0.09 0.79 0.12 1.02 0.09 0.61 0.13 0.85 0.12 0.67 0.18 0.95c0.06 0.27 0.16 0.71 0.22 0.97s0.2 0.78 0.3 1.14c0.11 0.37 0.29 0.93 0.4 1.25 0.11 0.33 0.3 0.83 0.41 1.11 0.11 0.29 0.28 0.74 0.39 1.01 0.1 0.26 0.27 0.67 0.37 0.9 0.11 0.22 0.32 0.67 0.48 0.98 0.15 0.32 0.4 0.78 0.53 1.02 0.14 0.25 0.38 0.64 0.52 0.87 0.15 0.24 0.39 0.61 0.54 0.82 0.14 0.21 0.41 0.58 0.59 0.82 0.18 0.25 0.49 0.63 0.67 0.85 0.19 0.22 0.51 0.6 0.73 0.83 0.21 0.23 1.21 1.24 2.22 2.25l1.83 1.83 1.97-1.98c1.09-1.09 2.11-2.14 2.28-2.33 0.17-0.2 0.44-0.51 0.6-0.7 0.15-0.19 0.44-0.57 0.64-0.83s0.54-0.74 0.75-1.07c0.21-0.32 0.46-0.71 0.55-0.86 0.09-0.14 0.26-0.45 0.39-0.67 0.13-0.23 0.37-0.7 0.54-1.04 0.16-0.34 0.38-0.8 0.48-1.03 0.09-0.23 0.24-0.59 0.33-0.81s0.23-0.59 0.32-0.81c0.09-0.23 0.23-0.63 0.33-0.89 0.09-0.26 0.24-0.71 0.33-1 0.09-0.3 0.23-0.75 0.3-1.02s0.18-0.69 0.24-0.93c0.05-0.24 0.15-0.72 0.22-1.05 0.06-0.33 0.15-0.83 0.19-1.11 0.04-0.27 0.1-0.73 0.13-1.01 0.03-0.29 0.09-0.81 0.11-1.16 0.04-0.46 0.05-0.98 0.06-1.96 0-0.81-0.02-1.52-0.04-1.83-0.02-0.28-0.06-0.76-0.1-1.08-0.03-0.31-0.09-0.8-0.13-1.08-0.04-0.29-0.12-0.77-0.18-1.08-0.05-0.31-0.17-0.85-0.25-1.2s-0.22-0.92-0.32-1.26c-0.09-0.34-0.25-0.86-0.35-1.15s-0.26-0.75-0.36-1.02c-0.1-0.26-0.29-0.74-0.42-1.05-0.13-0.3-0.39-0.88-0.58-1.27-0.19-0.38-0.49-0.95-0.65-1.25-0.17-0.3-0.41-0.72-0.54-0.93s-0.32-0.49-0.41-0.63c-0.1-0.13-0.26-0.34-0.36-0.47s-0.33-0.39-0.52-0.58-0.47-0.45-0.62-0.58c-0.16-0.13-0.46-0.35-0.67-0.5-0.21-0.14-0.57-0.34-0.78-0.45-0.22-0.11-0.53-0.24-0.69-0.3-0.17-0.06-0.43-0.15-0.59-0.2-0.16-0.04-0.3-0.08-0.3-0.09 0 0-0.03-0.4-0.05-0.88-0.03-0.48-0.07-1.25-0.08-1.72-0.02-0.47-0.03-0.86-0.03-0.86 0.01-0.01 0.13 0.01 0.28 0.03s0.47 0.06 0.73 0.07c0.34 0.03 0.59 0.03 0.95 0 0.27-0.01 0.64-0.05 0.84-0.09 0.19-0.03 0.47-0.09 0.62-0.13 0.16-0.04 0.4-0.12 0.54-0.17 0.13-0.05 0.37-0.15 0.51-0.22 0.15-0.07 0.35-0.18 0.44-0.24 0.1-0.06 0.31-0.19 0.46-0.31 0.15-0.11 0.39-0.32 0.54-0.46s0.37-0.38 0.5-0.55c0.14-0.16 0.32-0.41 0.42-0.56 0.09-0.15 0.27-0.46 0.39-0.71 0.12-0.24 0.26-0.58 0.32-0.75s0.15-0.47 0.19-0.66c0.05-0.19 0.11-0.5 0.14-0.68 0.02-0.18 0.05-0.49 0.06-0.7 0.01-0.2 0-0.53-0.02-0.72-0.01-0.2-0.05-0.49-0.09-0.65-0.03-0.16-0.1-0.43-0.16-0.6-0.06-0.16-0.16-0.42-0.24-0.57-0.07-0.14-0.2-0.37-0.28-0.49-0.09-0.13-0.29-0.36-0.45-0.53-0.18-0.18-0.4-0.36-0.56-0.47-0.15-0.09-0.38-0.22-0.52-0.28s-0.33-0.13-0.42-0.15c-0.09-0.03-0.28-0.07-0.42-0.1-0.18-0.03-0.42-0.05-0.71-0.05-0.25 0-0.56 0.01-0.7 0.03-0.13 0.02-0.39 0.07-0.56 0.11s-0.41 0.11-0.54 0.15-0.39 0.15-0.58 0.24c-0.18 0.09-0.46 0.24-0.62 0.35-0.15 0.1-0.39 0.28-0.52 0.39-0.14 0.12-0.35 0.34-0.48 0.49s-0.35 0.43-0.48 0.62c-0.13 0.2-0.34 0.57-0.47 0.83s-0.29 0.64-0.36 0.85c-0.08 0.2-0.18 0.53-0.24 0.73s-0.14 0.52-0.18 0.71-0.11 0.52-0.15 0.75c-0.03 0.23-0.09 0.6-0.12 0.83-0.02 0.22-0.05 0.44-0.06 0.48l-0.01 0.06-0.11-0.08c-0.06-0.05-0.23-0.19-0.38-0.31-0.14-0.12-0.35-0.32-0.46-0.44-0.11-0.11-0.28-0.31-0.38-0.43-0.1-0.13-0.27-0.36-0.37-0.51-0.1-0.16-0.23-0.38-0.3-0.51-0.06-0.12-0.17-0.34-0.24-0.49s-0.18-0.43-0.24-0.62c-0.07-0.19-0.17-0.53-0.22-0.76-0.06-0.23-0.13-0.6-0.16-0.83s-0.08-0.65-0.09-0.94c-0.03-0.4-0.03-0.7 0-1.16 0.01-0.33 0.06-0.81 0.09-1.06 0.03-0.24 0.09-0.62 0.13-0.85 0.04-0.22 0.13-0.61 0.19-0.87l0.11-0.47-1.01-0.27c-0.55-0.15-1.01-0.27-1.02-0.27zm10.45 5.39c0.18-0.01 0.4 0.01 0.48 0.03 0.09 0.01 0.26 0.07 0.37 0.13 0.13 0.06 0.28 0.16 0.37 0.26 0.09 0.08 0.2 0.23 0.26 0.32 0.05 0.09 0.13 0.28 0.18 0.42 0.05 0.13 0.11 0.38 0.13 0.55 0.04 0.22 0.05 0.41 0.03 0.72-0.01 0.23-0.04 0.54-0.07 0.69-0.03 0.16-0.1 0.42-0.15 0.58s-0.17 0.44-0.25 0.62c-0.09 0.18-0.23 0.42-0.31 0.55-0.08 0.12-0.23 0.32-0.34 0.44-0.1 0.12-0.28 0.3-0.4 0.4s-0.3 0.23-0.38 0.28c-0.09 0.06-0.25 0.15-0.35 0.2-0.11 0.05-0.31 0.13-0.45 0.18s-0.43 0.11-0.64 0.15c-0.31 0.06-0.49 0.07-0.97 0.07s-0.66-0.01-0.97-0.07c-0.21-0.04-0.4-0.07-0.43-0.08-0.03-0.02-0.04-0.07-0.02-0.33 0.01-0.17 0.05-0.54 0.08-0.82 0.03-0.27 0.09-0.69 0.13-0.92s0.12-0.61 0.18-0.84 0.15-0.55 0.21-0.71c0.05-0.16 0.16-0.43 0.23-0.59s0.2-0.42 0.29-0.57c0.09-0.14 0.25-0.37 0.36-0.51 0.11-0.13 0.3-0.33 0.42-0.43 0.12-0.11 0.32-0.25 0.44-0.32s0.33-0.16 0.46-0.21c0.14-0.05 0.36-0.11 0.51-0.14s0.4-0.05 0.6-0.05zm67.97 3.81c-1.96 0-3.19 0.95-3.67 2.86 1.34 0.06 2.19 0.94 2.56 2.65 0.17 0.94-0.01 2.79-0.55 5.55-0.63 3.17-3.14 8.07-7.52 14.7-1.88 2.85-3.89 5.82-6.03 8.89-2.11 3.05-4.13 6.1-6.07 9.15-1.91 3.05-3.59 6.02-5.04 8.93-1.45 2.9-2.45 5.71-2.99 8.41-0.51 2.68-0.29 4.89 0.68 6.63 0.43 0.77 0.94 1.34 1.54 1.71 0.63 0.4 1.43 0.6 2.39 0.6 1 0 3.57-0.9 7.7-2.7 2.25-0.99 3.88-1.96 4.91-2.9 0.09-0.74 0.21-1.51 0.38-2.31 1.4-6.98 5.42-15.14 12.06-24.48 2.25-3.17 4.65-6.21 7.22-9.15 2.59-2.93 5.24-5.67 7.94-8.2 2.74-2.54 5.46-4.75 8.17-6.63 2.7-1.88 5.34-3.36 7.9-4.44 2.57-1.08 4.63-1.62 6.2-1.62 1.56 0 2.7 0.11 3.41 0.34 2.45 0.82 3.4 2.72 2.83 5.68-0.49 2.34-2.43 5.17-5.82 8.5-1.53 1.51-3.24 3.05-5.12 4.62s-3.81 3.18-5.77 4.83c-1.94 1.65-3.86 3.35-5.77 5.08-1.91 1.71-3.66 3.48-5.26 5.3-1.59 1.8-2.96 3.63-4.1 5.51-1.11 1.88-1.92 4.08-2.43 6.58-0.49 2.48-0.52 4.8-0.09 6.97 0.85 4.19 3.16 6.95 6.92 8.29 4.5 1.65 9.08 1.3 13.72-1.07 1.22-0.63 2.38-1.34 3.46-2.14 1.11-0.79 2.08-1.62 2.91-2.47 0.82-0.89 1.49-1.76 2-2.61 0.54-0.86 0.86-1.51 0.94-1.97 0.09-0.45 0.02-0.98-0.21-1.58-0.2-0.62-0.54-1.12-1.03-1.49-1.11 0.43-2.07 0.64-2.9 0.64-0.8 0-1.5-0.1-2.09-0.3-2.03-0.71-2.77-2.44-2.23-5.17 0.92-4.59 2.87-9.17 5.86-13.76 1.28-1.99 2.62-3.9 4.02-5.73 1.39-1.82 2.71-3.64 3.97-5.47 1.28-1.85 2.41-3.74 3.37-5.68 0.97-1.94 1.66-3.94 2.06-6.02 0.42-2.11 0.51-3.92 0.25-5.43-0.8-4.5-4.04-6.75-9.74-6.75-5.95 0-12.78 2.56-20.47 7.69-6.38 4.24-13.8 10.62-22.26 19.14 3.96-6.24 6.45-11.93 7.48-17.09 0.88-4.44 0.5-7.75-1.16-9.91-1.05-1.46-2.56-2.18-4.53-2.18zm-273.75 1.37c-3.85 0-8.3 0.66-13.38 2-2.62 0.69-5.14 1.54-7.56 2.57-2.39 1.02-4.57 2.23-6.54 3.63-1.96 1.37-3.62 2.93-4.95 4.7-1.34 1.77-2.24 3.82-2.7 6.15-0.45 2.34-0.09 4.49 1.07 6.46 1.14 1.9 2.59 2.86 4.36 2.86 1.54 0 3.89-1.38 7.05-4.15-1.96-2.19-2.62-4.9-1.96-8.11 0.77-3.82 3.8-6.77 9.1-8.85 2.42-0.94 5.1-1.62 8.03-2.05 2.94-0.46 6.01-0.69 9.23-0.69 3.25 0 6.41 0.42 9.49 1.24 7.89 2.05 11.29 5.8 10.21 11.24-0.57 2.79-2.88 5.14-6.92 7.05-1.77 0.86-3.68 1.51-5.73 1.97-2.02 0.42-4.01 0.64-5.98 0.64s-4.19-0.31-6.67-0.94c5.45-7.12 9.59-11.88 12.44-14.27-0.26-0.26-0.59-0.49-0.98-0.69-1.6-0.79-2.91-0.77-3.94 0.09-3.3 2.59-7.35 6.41-12.13 11.45-2.17 2.28-4.36 4.66-6.58 7.14-2.19 2.45-5.26 5.88-9.19 10.29-3.93 4.42-7.04 7.82-9.32 10.22-5.41-2.31-8.95-5.09-10.63-8.34-2.4 0.63-3.68 1.39-3.85 2.27-0.46 2.31 0.13 5.27 1.75 8.89 2.28 4.98 6.27 8.87 11.97 11.66 5.81 2.85 12.46 4.28 19.95 4.28 10.09 0 18.53-2.45 25.34-7.35 5.13-3.68 8.25-8.31 9.36-13.89 1.25-6.24-1.33-11.01-7.73-14.32 4.41-1.19 8.1-3 11.06-5.42 3.31-2.62 5.29-5.59 5.94-8.89 0.83-4.13-0.01-7.68-2.52-10.64-1.19-1.4-2.69-2.61-4.49-3.63-1.79-1.03-3.79-1.88-5.98-2.57-2.19-0.68-4.56-1.18-7.09-1.49-2.51-0.34-5.68-0.51-9.53-0.51zm207.04 7.39c-0.01 0 0.1 0.13 0.24 0.29 0.15 0.16 0.37 0.41 0.5 0.57 0.12 0.15 0.32 0.4 0.42 0.56 0.11 0.15 0.31 0.44 0.43 0.63 0.12 0.2 0.35 0.59 0.51 0.86 0.15 0.27 0.42 0.76 0.59 1.09 0.16 0.32 0.4 0.8 0.51 1.05 0.12 0.25 0.3 0.67 0.41 0.93s0.3 0.74 0.43 1.06c0.12 0.33 0.3 0.86 0.41 1.18 0.11 0.33 0.25 0.78 0.31 1 0.07 0.23 0.17 0.6 0.22 0.82 0.06 0.22 0.16 0.63 0.23 0.93 0.06 0.29 0.16 0.78 0.22 1.09 0.05 0.31 0.13 0.79 0.17 1.08 0.05 0.28 0.1 0.69 0.12 0.91 0.03 0.22 0.07 0.64 0.09 0.93 0.03 0.29 0.06 0.82 0.08 1.17 0.01 0.35 0.03 0.95 0.03 1.33s-0.02 0.96-0.03 1.28c-0.02 0.32-0.05 0.85-0.08 1.17-0.02 0.31-0.08 0.88-0.13 1.27-0.05 0.38-0.13 0.96-0.19 1.28-0.06 0.33-0.14 0.8-0.19 1.04s-0.15 0.68-0.23 0.98c-0.07 0.3-0.2 0.8-0.29 1.11s-0.23 0.79-0.32 1.08c-0.1 0.28-0.28 0.82-0.42 1.19s-0.25 0.67-0.24 0.68c0 0 0.15 0.12 0.32 0.26s0.53 0.41 0.79 0.61c0.27 0.2 0.72 0.51 0.99 0.7 0.28 0.18 0.67 0.43 0.87 0.55 0.21 0.12 0.61 0.35 0.9 0.51 0.3 0.16 0.8 0.41 1.11 0.56 0.32 0.15 0.74 0.34 0.95 0.43 0.2 0.08 0.55 0.22 0.78 0.31 0.23 0.08 0.61 0.22 0.85 0.3 0.25 0.08 0.63 0.2 0.86 0.27 0.23 0.06 0.63 0.17 0.89 0.24 0.26 0.06 0.67 0.16 0.91 0.21s1.58 0.28 2.96 0.51c1.39 0.23 2.52 0.42 2.52 0.41 0 0 0.02-0.14 0.04-0.3s0.08-0.57 0.12-0.92 0.09-0.85 0.12-1.12c0.02-0.27 0.06-0.78 0.09-1.15 0.02-0.36 0.06-1.14 0.07-1.74 0.03-0.81 0.03-1.35 0-2.15-0.02-0.58-0.05-1.35-0.08-1.69-0.02-0.35-0.07-0.89-0.1-1.21s-0.09-0.84-0.13-1.15c-0.04-0.32-0.14-0.92-0.21-1.35-0.07-0.42-0.18-1.03-0.25-1.34-0.07-0.32-0.18-0.81-0.25-1.11-0.07-0.29-0.21-0.79-0.3-1.1-0.09-0.32-0.25-0.87-0.37-1.22-0.11-0.34-0.3-0.87-0.41-1.17s-0.28-0.73-0.38-0.96c-0.09-0.23-0.27-0.64-0.39-0.91-0.13-0.28-0.32-0.68-0.44-0.91-0.11-0.23-0.32-0.62-0.46-0.88-0.14-0.25-0.37-0.66-0.52-0.91-0.14-0.24-0.43-0.69-0.63-0.99-0.19-0.3-0.54-0.78-0.75-1.07-0.22-0.29-0.53-0.69-0.69-0.89-0.16-0.19-0.43-0.51-0.6-0.71-0.17-0.19-0.62-0.66-0.99-1.03-0.38-0.38-0.85-0.83-1.06-1.01-0.2-0.18-0.53-0.45-0.73-0.62-0.21-0.16-0.56-0.44-0.8-0.61-0.23-0.18-0.62-0.45-0.85-0.61-0.24-0.15-0.65-0.42-0.92-0.58s-0.63-0.38-0.81-0.47c-0.19-0.1-0.6-0.32-0.92-0.48s-0.76-0.37-0.96-0.46c-0.21-0.09-0.58-0.25-0.83-0.34-0.25-0.1-0.66-0.26-0.92-0.35-0.26-0.1-0.65-0.23-0.86-0.29-0.21-0.07-0.6-0.19-0.86-0.26-0.27-0.07-0.7-0.19-0.96-0.25-0.27-0.07-0.49-0.12-0.51-0.12zm-14.15 0.21c-0.01 0-0.26 0.07-0.55 0.16-0.29 0.08-0.77 0.23-1.05 0.33s-0.71 0.25-0.96 0.35c-0.24 0.09-0.69 0.27-1 0.41-0.31 0.13-0.88 0.39-1.26 0.58s-0.86 0.43-1.06 0.54-0.6 0.34-0.89 0.51c-0.28 0.17-0.78 0.49-1.11 0.71-0.32 0.21-0.81 0.55-1.07 0.75-0.27 0.2-0.68 0.51-0.91 0.7s-0.64 0.53-0.91 0.76c-0.26 0.23-0.73 0.67-1.04 0.98-0.32 0.3-0.78 0.78-1.03 1.05-0.25 0.28-0.63 0.71-0.83 0.95-0.21 0.25-0.48 0.59-0.61 0.75-0.13 0.17-0.37 0.48-0.52 0.7-0.16 0.21-0.43 0.6-0.61 0.87-0.18 0.26-0.42 0.65-0.55 0.84-0.12 0.2-0.34 0.58-0.49 0.85-0.15 0.26-0.39 0.7-0.55 0.96-0.15 0.27-0.38 0.7-0.52 0.96-0.14 0.27-0.34 0.67-0.44 0.9-0.11 0.23-0.28 0.6-0.37 0.82-0.1 0.22-0.26 0.64-0.37 0.92-0.11 0.29-0.26 0.73-0.34 0.99s-0.19 0.62-0.24 0.79c-0.05 0.18-0.14 0.53-0.21 0.8-0.06 0.26-0.15 0.65-0.19 0.86-0.04 0.22-0.11 0.59-0.15 0.85-0.04 0.25-0.1 0.67-0.13 0.94s-0.08 0.77-0.11 1.12c-0.03 0.41-0.05 1-0.05 1.68 0 0.58 0.02 1.29 0.04 1.58 0.02 0.3 0.05 0.74 0.07 0.99 0.03 0.25 0.08 0.68 0.11 0.95s0.11 0.8 0.18 1.19c0.06 0.39 0.18 1.02 0.26 1.41 0.08 0.38 0.19 0.84 0.24 1.03 0.04 0.19 0.16 0.72 0.25 1.18s0.17 0.84 0.17 0.85c0.01 0 1.14-0.22 2.53-0.5 1.39-0.27 2.77-0.56 3.07-0.63 0.3-0.08 0.68-0.18 0.85-0.23 0.18-0.05 0.48-0.14 0.69-0.2 0.2-0.07 0.55-0.18 0.76-0.26 0.22-0.08 0.57-0.21 0.78-0.3 0.21-0.08 0.52-0.21 0.69-0.28 0.18-0.08 0.53-0.25 0.8-0.37 0.26-0.13 0.68-0.34 0.93-0.47 0.24-0.14 0.61-0.35 0.82-0.47 0.2-0.12 0.61-0.38 0.91-0.58s0.7-0.47 0.89-0.6c0.18-0.14 0.46-0.35 0.62-0.47 0.15-0.13 0.42-0.34 0.59-0.48l0.32-0.26-0.18-0.45c-0.1-0.25-0.28-0.77-0.41-1.15s-0.31-0.94-0.4-1.25-0.23-0.83-0.31-1.16c-0.08-0.32-0.21-0.91-0.29-1.31s-0.18-0.94-0.22-1.21-0.1-0.7-0.13-0.96c-0.04-0.26-0.08-0.69-0.11-0.96-0.02-0.27-0.06-0.72-0.08-1.02-0.02-0.29-0.03-1.05-0.03-1.69 0-0.65 0.01-1.42 0.03-1.72s0.06-0.76 0.08-1.03c0.03-0.27 0.08-0.75 0.12-1.06 0.04-0.32 0.12-0.85 0.18-1.18 0.05-0.34 0.14-0.81 0.19-1.05s0.16-0.74 0.25-1.09c0.09-0.36 0.22-0.87 0.29-1.13 0.08-0.26 0.26-0.82 0.4-1.25 0.15-0.43 0.37-1.05 0.5-1.38s0.34-0.83 0.47-1.11c0.12-0.28 0.37-0.81 0.56-1.19 0.19-0.37 0.44-0.85 0.56-1.07s0.34-0.6 0.49-0.84c0.14-0.25 0.37-0.61 0.5-0.8 0.14-0.2 0.32-0.45 0.42-0.58 0.09-0.12 0.29-0.36 0.44-0.52 0.14-0.17 0.25-0.3 0.23-0.3zm267.77 0.85c-1.4 0-2.75 0.72-4.06 2.14-0.88 0.94-3.23 3.76-7.05 8.46-1.54 1.91-3.16 3.92-4.87 6.03-1.68 2.08-3.34 4.13-4.96 6.15-1.59 2-3.66 4.59-6.2 7.78-2.53 3.16-4.68 5.62-6.45 7.39-5.07 5.01-9.61 7.52-13.63 7.52-2.79 0-3.86-1.65-3.2-4.96 0.34-1.76 1.31-3.58 2.9-5.46 1.6-1.88 3.62-3.61 6.07-5.18 5.58-3.53 11.65-5.3 18.2-5.3 0.71-2.25-0.2-3.37-2.73-3.37-5.7 0-11.55 1.38-17.57 4.14-5.64 2.63-10.51 5.99-14.61 10.09-2.18 2.17-3.89 4.3-5.14 6.42-0.41 0.29-0.81 0.57-1.23 0.84-2.99 1.91-5.55 2.87-7.69 2.87-3.16 0-4.47-1.33-3.93-3.98 0.12-0.62 0.37-1.28 0.77-1.96 1.25-2.14 3.08-4.12 5.47-5.94 0.4 0 0.84-0.19 1.32-0.56 1.68-1.22 2.83-2.82 3.42-4.78-6.58-0.37-11.85-1.63-15.81-3.77 1.37-2.1 2.14-3.6 2.31-4.48 0.2-0.91 0.07-1.64-0.38-2.18-1.17-1.43-3.15-2.14-5.94-2.14-0.92 0-2.57 1.17-4.96 3.51-2.48 2.39-3.88 4.36-4.19 5.89-0.51 2.51 0.6 4.45 3.34 5.82-2.78 4.85-6.54 8.94-11.27 12.27-0.52 0.3-1.03 0.58-1.56 0.84-3.58 1.77-7.2 2.65-10.85 2.65-5.84 0-9.28-1.48-10.34-4.44 3.99-0.46 7.59-1.2 10.81-2.22 1.83-0.57 3.56-1.24 5.21-2.01 1.69-0.8 3.2-1.71 4.53-2.74 1.37-1.05 2.51-2.22 3.42-3.5 0.94-1.28 1.54-2.58 1.8-3.89 0.25-1.34 0.23-2.41-0.09-3.2-0.91-2.31-3.2-3.46-6.88-3.46-5.1 0-10.34 1.18-15.72 3.54-2.51 1.09-4.9 2.38-7.18 3.89-2.25 1.51-4.27 3.16-6.07 4.96-1.76 1.76-3.26 3.63-4.49 5.6-1.19 1.96-2.03 4.13-2.52 6.49-0.45 2.34-0.38 4.42 0.22 6.24 1.71 5.01 7.09 7.52 16.15 7.52 4.5 0 8.99-1 13.46-2.99 2.05-0.91 4.02-1.99 5.9-3.25 1.91-1.28 3.67-2.66 5.3-4.14 1.62-1.49 3.43-3.42 5.42-5.82 0.26-0.3 0.5-0.6 0.73-0.89 2.65-3.07 5.38-6.41 8.2-10.04 2.28 0.54 5.12 0.89 8.51 1.06-3.91 1.94-7.28 4.39-10.13 7.35-1.4 1.43-2.58 2.9-3.55 4.41-0.94 1.51-1.56 3.04-1.88 4.61-0.28 1.54-0.23 2.89 0.17 4.06 1.23 3.47 4.65 5.21 10.26 5.21 3.3 0 6.92-1.22 10.85-3.67 1.77-1.11 3.48-2.37 5.13-3.76 0.47-0.4 0.93-0.81 1.38-1.21 0.02 2.14 0.61 3.94 1.78 5.39 0.83 1 1.9 1.79 3.21 2.36 1.34 0.54 2.87 0.81 4.61 0.81s3.41-0.2 5-0.6c4.7-1.17 8.56-3.22 11.58-6.16-0.26 1.2-0.23 2.23 0.09 3.08 0.88 2.51 3.41 3.76 7.6 3.76 3.28 0 6.88-1.22 10.81-3.67 1.77-1.11 3.48-2.37 5.13-3.76 1.65-1.4 3.18-2.82 4.57-4.28 1.4-1.45 2.87-3.16 4.4-5.12 1.57-1.97 2.46-3.44 2.65-4.4 0.32-1.23-0.2-1.79-1.53-1.67-2.26 2.59-4.7 4.76-7.35 6.49-3 1.91-5.54 2.87-7.65 2.87-1.74 0-2.37-1.23-1.88-3.68 0.51-2.48 2.53-6.59 6.06-12.35 1.57-2.53 4.26-6.56 8.08-12.09s7.78-10.76 11.88-15.68c-0.48-1.17-1.54-1.76-3.16-1.76zm-338.75 15.77c-0.91 0-2.56 1.17-4.96 3.51-2.47 2.39-3.87 4.36-4.18 5.89-0.52 2.51 0.59 4.45 3.33 5.82-2.77 4.85-6.53 8.94-11.26 12.26-0.51 0.3-1.03 0.59-1.56 0.85-3.59 1.77-7.21 2.65-10.85 2.65-5.84 0-9.29-1.48-10.34-4.44 3.98-0.46 7.59-1.2 10.81-2.22 1.82-0.57 3.56-1.24 5.21-2.01 1.68-0.8 3.19-1.71 4.53-2.74 1.37-1.05 2.51-2.22 3.42-3.5 0.94-1.28 1.53-2.58 1.79-3.89 0.26-1.34 0.23-2.41-0.08-3.2-0.91-2.31-3.21-3.46-6.88-3.46-5.1 0-10.34 1.18-15.73 3.54-2.51 1.09-4.9 2.38-7.18 3.89-2.25 1.51-4.27 3.16-6.06 4.96-1.77 1.76-3.27 3.63-4.49 5.6-0.54 0.88-1 1.81-1.4 2.78-1.11 0.77-2.25 1.46-3.43 2.04-3.59 1.77-7.21 2.65-10.85 2.65-5.84 0-9.29-1.48-10.34-4.44 3.98-0.46 7.59-1.2 10.81-2.22 1.82-0.57 3.56-1.24 5.21-2.01 1.68-0.8 3.19-1.71 4.53-2.74 1.37-1.05 2.51-2.22 3.42-3.5 0.94-1.28 1.54-2.58 1.79-3.89 0.26-1.34 0.23-2.41-0.08-3.2-0.91-2.31-3.21-3.46-6.88-3.46-5.1 0-10.34 1.18-15.73 3.54-2.5 1.09-4.9 2.38-7.18 3.89-2.25 1.51-4.27 3.16-6.06 4.96-1.77 1.76-3.27 3.63-4.49 5.6-1.2 1.96-2.04 4.13-2.52 6.49-0.46 2.34-0.39 4.42 0.21 6.24 1.71 5.01 7.09 7.52 16.15 7.52 4.5 0 8.99-1 13.46-2.99 2.06-0.91 4.02-1.99 5.9-3.25 1.68-1.13 3.25-2.34 4.71-3.63 0.07 0.83 0.22 1.61 0.46 2.35 1.71 5.01 7.09 7.52 16.15 7.52 4.5 0 8.99-1 13.46-2.99 2.06-0.91 4.02-1.99 5.9-3.25 1.91-1.28 3.68-2.66 5.3-4.14 1.62-1.49 3.43-3.42 5.43-5.82 0.26-0.31 0.5-0.61 0.74-0.91 2.64-3.06 5.37-6.4 8.19-10.02 2.28 0.54 5.11 0.89 8.5 1.06-3.9 1.94-7.28 4.39-10.13 7.35-1.39 1.43-2.57 2.9-3.54 4.41-0.94 1.51-1.57 3.04-1.88 4.61-0.29 1.54-0.23 2.89 0.17 4.06 1.22 3.47 4.64 5.21 10.25 5.21 3.31 0 6.92-1.22 10.86-3.67 1.76-1.11 3.47-2.37 5.12-3.76 1.66-1.4 3.18-2.82 4.58-4.28 1.39-1.45 2.87-3.17 4.44-5.17 1.6-1.99 2.49-3.47 2.69-4.44 0.23-1.14-0.31-1.67-1.62-1.58-2.25 2.59-4.7 4.76-7.35 6.49-2.99 1.91-5.56 2.87-7.69 2.87-3.16 0-4.48-1.33-3.93-3.98 0.11-0.62 0.37-1.28 0.77-1.96 1.25-2.14 3.07-4.12 5.46-5.94 0.4 0 0.85-0.19 1.33-0.56 1.68-1.22 2.82-2.82 3.42-4.78-6.58-0.37-11.85-1.63-15.81-3.77 1.36-2.1 2.13-3.6 2.3-4.48 0.2-0.91 0.08-1.64-0.38-2.18-1.17-1.43-3.15-2.14-5.94-2.14zm-131.48 9.19c4.38 0.17 7.79 1.13 10.21 2.86 2.68 1.91 3.72 4.36 3.12 7.35-0.63 3.08-2.42 5.5-5.39 7.27-1.36 0.82-2.93 1.46-4.69 1.92-1.74 0.46-3.34 0.74-4.79 0.86-1.45 0.08-3.21 0.12-5.26 0.12s-4.67-0.32-7.86-0.98c2-2.42 4.32-5.4 6.97-8.93 1.25-1.68 2.52-3.41 3.8-5.17 1.28-1.77 2.58-3.53 3.89-5.3zm64.05 0.9c2.11 0 2.92 1.15 2.44 3.46-0.46 2.28-2.24 4.27-5.34 5.98-2.94 1.6-6.27 2.61-10 3.03 0.88-3.19 2.53-6.03 4.95-8.54 2.57-2.62 5.22-3.93 7.95-3.93zm40.68 0c2.11 0 2.92 1.15 2.44 3.46-0.46 2.28-2.24 4.27-5.34 5.98-2.94 1.6-6.27 2.61-10 3.03 0.88-3.19 2.53-6.03 4.95-8.54 2.57-2.62 5.22-3.93 7.95-3.93zm253.76 0c2.1 0 2.92 1.15 2.43 3.46-0.45 2.28-2.23 4.27-5.34 5.98-2.93 1.6-6.27 2.61-10 3.03 0.88-3.19 2.54-6.03 4.96-8.54 2.56-2.62 5.21-3.93 7.95-3.93zm-138.93 3.67l-0.35 0.7-0.34 0.7 0.07 0.17c0.04 0.1 0.15 0.39 0.24 0.65s0.24 0.72 0.33 1.02 0.22 0.81 0.3 1.14c0.08 0.32 0.19 0.8 0.24 1.06s0.11 0.65 0.14 0.86c0.04 0.21 0.09 0.62 0.12 0.91s0.08 0.75 0.1 1.02 0.03 0.93 0.03 1.48c0 0.64-0.02 1.2-0.05 1.61-0.02 0.35-0.07 0.85-0.11 1.11-0.03 0.26-0.1 0.72-0.14 1.01-0.05 0.29-0.14 0.76-0.21 1.06-0.06 0.29-0.19 0.79-0.27 1.09l-0.15 0.56 0.11 0.1c0.07 0.06 0.3 0.25 0.53 0.44 0.23 0.18 0.54 0.42 0.7 0.54 0.15 0.11 0.5 0.35 0.77 0.53 0.26 0.17 0.67 0.43 0.89 0.57 0.23 0.13 0.71 0.39 1.07 0.57 0.35 0.19 0.82 0.41 1.03 0.5 0.21 0.1 0.57 0.25 0.8 0.33 0.22 0.09 0.62 0.24 0.88 0.33s0.65 0.21 0.87 0.27c0.22 0.07 1.26 0.35 2.3 0.63 1.04 0.27 1.91 0.5 1.91 0.49 0.01-0.01 0.26-0.93 0.56-2.04s0.59-2.23 0.65-2.48c0.06-0.24 0.14-0.63 0.18-0.85s0.09-0.59 0.13-0.82c0.03-0.24 0.08-0.62 0.1-0.86 0.03-0.23 0.06-0.78 0.08-1.2 0.03-0.6 0.03-0.96 0-1.54-0.02-0.42-0.05-0.95-0.08-1.19-0.02-0.23-0.07-0.66-0.12-0.94-0.04-0.28-0.12-0.75-0.17-1.03-0.06-0.28-0.16-0.72-0.22-0.98-0.07-0.26-0.19-0.69-0.27-0.96s-0.21-0.66-0.28-0.86c-0.08-0.21-0.15-0.39-0.16-0.4-0.01-0.02-0.28-0.07-0.59-0.13-0.31-0.05-0.77-0.14-1.02-0.19-0.24-0.05-0.71-0.16-1.03-0.24-0.33-0.08-0.83-0.22-1.11-0.3-0.29-0.09-0.69-0.22-0.9-0.29-0.21-0.08-0.55-0.2-0.75-0.27-0.2-0.08-0.62-0.25-0.93-0.38s-0.9-0.4-1.3-0.6c-0.41-0.2-0.9-0.45-1.09-0.56-0.2-0.11-0.53-0.3-0.73-0.42s-0.59-0.37-0.87-0.55c-0.28-0.19-0.68-0.46-0.89-0.61s-0.52-0.38-0.69-0.51l-0.31-0.25zm-19.82 0.14c-0.01 0-0.1 0.07-0.19 0.15-0.1 0.08-0.38 0.3-0.63 0.49s-0.7 0.5-0.99 0.7c-0.3 0.2-0.64 0.43-0.77 0.51s-0.44 0.26-0.67 0.4c-0.24 0.14-0.65 0.37-0.91 0.51s-0.71 0.36-1 0.5c-0.3 0.14-0.74 0.34-0.99 0.44-0.25 0.11-0.65 0.27-0.89 0.36-0.25 0.09-0.68 0.25-0.98 0.34-0.29 0.1-0.81 0.26-1.15 0.36-0.34 0.09-0.85 0.22-1.15 0.29-0.29 0.07-0.85 0.19-1.25 0.27-0.43 0.08-0.73 0.15-0.74 0.18-0.02 0.02-0.1 0.24-0.18 0.49-0.08 0.26-0.22 0.7-0.3 0.99-0.07 0.28-0.19 0.73-0.24 0.99-0.06 0.26-0.15 0.71-0.2 1s-0.11 0.75-0.14 1.04c-0.04 0.28-0.08 0.71-0.09 0.94-0.02 0.24-0.03 0.84-0.03 1.33 0 0.5 0.01 1.09 0.03 1.33 0.01 0.24 0.04 0.56 0.06 0.72 0.01 0.17 0.05 0.49 0.09 0.73 0.03 0.23 0.09 0.61 0.13 0.84s0.12 0.59 0.17 0.81 0.25 1.02 0.45 1.77c0.2 0.76 0.46 1.7 0.57 2.11l0.19 0.73 0.08-0.02c0.05-0.01 1-0.26 2.12-0.56 1.11-0.3 2.22-0.6 2.46-0.68 0.23-0.07 0.64-0.21 0.9-0.3 0.25-0.1 0.63-0.25 0.82-0.33 0.2-0.08 0.55-0.24 0.78-0.34 0.24-0.11 0.64-0.31 0.9-0.45s0.68-0.38 0.92-0.52c0.24-0.15 0.64-0.4 0.88-0.56 0.24-0.17 0.61-0.43 0.81-0.58 0.21-0.15 0.55-0.42 0.75-0.59 0.21-0.17 0.39-0.32 0.39-0.33 0.01-0.01-0.02-0.13-0.06-0.27-0.04-0.13-0.14-0.51-0.22-0.82-0.08-0.32-0.19-0.82-0.24-1.11-0.06-0.29-0.13-0.71-0.17-0.93-0.03-0.22-0.08-0.57-0.1-0.78-0.03-0.21-0.06-0.54-0.08-0.72-0.01-0.19-0.04-0.68-0.06-1.1-0.02-0.52-0.02-1 0-1.54 0.02-0.42 0.05-0.99 0.08-1.26 0.02-0.27 0.07-0.69 0.1-0.94 0.04-0.25 0.1-0.68 0.15-0.96s0.14-0.74 0.21-1.04c0.06-0.29 0.19-0.79 0.28-1.1 0.09-0.32 0.23-0.79 0.32-1.05s0.22-0.63 0.29-0.83l0.13-0.35-0.31-0.63c-0.17-0.34-0.32-0.63-0.33-0.63zm2.07 3.6l-0.09 0.32c-0.05 0.17-0.13 0.48-0.18 0.67-0.05 0.2-0.12 0.52-0.16 0.71s-0.12 0.57-0.16 0.85c-0.05 0.28-0.12 0.74-0.15 1.02-0.03 0.29-0.07 0.73-0.09 0.98-0.01 0.25-0.04 0.68-0.05 0.96-0.01 0.27 0 0.82 0.02 1.22s0.05 0.93 0.07 1.17c0.03 0.24 0.07 0.59 0.09 0.77 0.03 0.17 0.08 0.52 0.12 0.76s0.11 0.59 0.15 0.78 0.12 0.53 0.18 0.75c0.05 0.23 0.16 0.63 0.25 0.9 0.08 0.27 0.23 0.73 0.34 1.02 0.11 0.3 0.29 0.77 0.41 1.05 0.12 0.29 0.37 0.81 0.54 1.16 0.18 0.35 0.43 0.82 0.57 1.04 0.13 0.23 0.4 0.67 0.6 0.97s0.5 0.73 0.67 0.96 0.48 0.62 0.69 0.86c0.2 0.24 0.56 0.65 0.81 0.91 0.24 0.26 1.06 1.08 1.81 1.84l1.38 1.37 1.54-1.53c0.84-0.85 1.69-1.71 1.88-1.92s0.47-0.53 0.62-0.71 0.43-0.53 0.62-0.79c0.2-0.26 0.51-0.69 0.69-0.97 0.19-0.28 0.45-0.7 0.59-0.94s0.35-0.62 0.47-0.86c0.13-0.23 0.32-0.62 0.43-0.87 0.11-0.24 0.3-0.67 0.41-0.94 0.11-0.28 0.28-0.74 0.37-1.02 0.1-0.28 0.24-0.74 0.32-1.02s0.19-0.73 0.25-0.99 0.13-0.61 0.16-0.79c0.04-0.17 0.09-0.48 0.12-0.68 0.03-0.21 0.08-0.56 0.1-0.79 0.03-0.22 0.06-0.59 0.08-0.81 0.01-0.22 0.03-0.67 0.05-1 0.01-0.35 0-0.91-0.02-1.32-0.02-0.39-0.05-0.9-0.08-1.13-0.02-0.24-0.07-0.62-0.1-0.86-0.04-0.23-0.09-0.61-0.13-0.82-0.05-0.22-0.12-0.61-0.18-0.87-0.06-0.25-0.16-0.67-0.23-0.92-0.08-0.26-0.14-0.47-0.15-0.47 0-0.01-0.15 0.19-0.34 0.45-0.18 0.25-0.49 0.67-0.7 0.93s-0.54 0.67-0.75 0.9c-0.2 0.24-0.64 0.72-0.98 1.07-0.33 0.35-1.61 1.63-2.82 2.85l-2.22 2.21-2.74-2.74c-1.55-1.56-2.92-2.96-3.15-3.22s-0.55-0.64-0.71-0.84c-0.17-0.21-0.46-0.59-0.65-0.85-0.2-0.26-0.4-0.54-0.46-0.63l-0.11-0.15zm16.93 14.56c-0.01 0-0.02 0.01-0.02 0.02 0 0.02-0.09 0.25-0.21 0.51l-0.21 0.47 0.04 0.13c0.03 0.07 0.14 0.35 0.25 0.63 0.1 0.29 0.26 0.75 0.35 1.03s0.23 0.77 0.31 1.08 0.2 0.84 0.27 1.16c0.06 0.32 0.15 0.82 0.19 1.11 0.04 0.28 0.09 0.72 0.12 0.97 0.02 0.25 0.06 0.69 0.07 0.97 0.02 0.29 0.03 0.8 0.03 1.15 0 0.34-0.01 0.86-0.03 1.14s-0.05 0.71-0.07 0.96c-0.03 0.25-0.07 0.65-0.11 0.87-0.03 0.23-0.09 0.6-0.13 0.83s-0.12 0.62-0.18 0.87c-0.05 0.25-0.15 0.65-0.22 0.89-0.06 0.24-0.17 0.62-0.24 0.85-0.07 0.22-0.21 0.61-0.3 0.87l-0.17 0.47 0.08 0.1c0.05 0.06 0.47 0.59 0.93 1.17s0.84 1.05 0.86 1.05c0.01-0.01 0.55-0.43 1.18-0.93 0.64-0.51 1.32-1.05 1.5-1.21 0.19-0.16 0.55-0.5 0.81-0.76 0.26-0.27 0.62-0.65 0.8-0.86 0.18-0.2 0.47-0.57 0.65-0.81s0.45-0.63 0.61-0.87c0.15-0.25 0.38-0.63 0.51-0.86s0.31-0.58 0.41-0.78c0.09-0.21 0.26-0.58 0.36-0.83 0.11-0.25 0.28-0.71 0.38-1.02 0.1-0.3 0.25-0.8 0.32-1.1 0.08-0.3 0.17-0.74 0.21-0.96 0.04-0.23 0.1-0.62 0.14-0.86 0.03-0.24 0.07-0.64 0.09-0.88 0.01-0.25 0.02-0.8 0.02-1.23l-0.01-0.78-0.16-0.05c-0.09-0.03-0.51-0.15-0.94-0.26-0.43-0.12-0.96-0.27-1.18-0.34s-0.55-0.18-0.72-0.24-0.53-0.19-0.79-0.3c-0.27-0.11-0.76-0.32-1.1-0.47-0.33-0.15-0.83-0.4-1.1-0.55-0.28-0.15-0.74-0.4-1.02-0.57s-0.67-0.42-0.87-0.55-0.52-0.36-0.71-0.5c-0.2-0.14-0.5-0.37-0.67-0.5s-0.31-0.23-0.32-0.23h-0.01zm-18.22 0.03l-0.26 0.21c-0.15 0.11-0.44 0.33-0.64 0.47-0.2 0.15-0.59 0.42-0.87 0.6s-0.72 0.46-0.99 0.62c-0.27 0.15-0.76 0.42-1.09 0.59s-0.8 0.39-1.03 0.5c-0.24 0.1-0.66 0.28-0.93 0.39-0.28 0.1-0.78 0.29-1.12 0.4-0.33 0.11-1.02 0.31-1.53 0.45s-0.93 0.26-0.94 0.27-0.02 0.48-0.02 1.04c0.01 0.76 0.02 1.14 0.06 1.48 0.03 0.25 0.08 0.67 0.12 0.92 0.05 0.25 0.12 0.63 0.17 0.85s0.13 0.57 0.19 0.78c0.05 0.21 0.17 0.58 0.26 0.84 0.08 0.25 0.2 0.58 0.26 0.73s0.2 0.48 0.31 0.73c0.12 0.26 0.31 0.65 0.44 0.89 0.12 0.23 0.34 0.6 0.48 0.83s0.38 0.59 0.54 0.81c0.15 0.22 0.41 0.56 0.57 0.75 0.16 0.2 0.44 0.54 0.64 0.75 0.2 0.22 0.54 0.56 0.75 0.76 0.21 0.19 0.5 0.46 0.65 0.58 0.14 0.12 0.77 0.63 1.4 1.13s1.15 0.9 1.16 0.9 0.37-0.44 0.81-0.99c0.43-0.55 0.82-1.04 0.86-1.09l0.07-0.09-0.16-0.44c-0.09-0.25-0.23-0.65-0.32-0.9-0.08-0.25-0.19-0.63-0.25-0.84s-0.16-0.61-0.22-0.87c-0.07-0.27-0.16-0.71-0.21-0.98-0.05-0.26-0.11-0.67-0.14-0.9-0.04-0.22-0.08-0.62-0.11-0.87-0.02-0.25-0.06-0.69-0.08-0.98-0.01-0.29-0.02-0.8-0.02-1.13s0.01-0.83 0.02-1.12c0.02-0.29 0.06-0.74 0.08-0.99 0.03-0.25 0.08-0.69 0.12-0.97s0.12-0.72 0.16-0.98c0.05-0.25 0.14-0.67 0.21-0.94 0.06-0.27 0.19-0.74 0.28-1.05s0.24-0.76 0.33-1.02c0.09-0.25 0.22-0.6 0.29-0.78s0.13-0.34 0.13-0.36-0.07-0.2-0.16-0.4-0.19-0.41-0.22-0.47l-0.05-0.11zm16.41 3.44l-0.32 0.47c-0.17 0.26-0.49 0.69-0.69 0.96s-0.47 0.6-0.59 0.75-0.37 0.44-0.56 0.65-1.42 1.47-2.74 2.79l-2.4 2.4-2.42-2.42c-1.33-1.33-2.6-2.63-2.82-2.89-0.23-0.26-0.54-0.63-0.7-0.83-0.15-0.19-0.39-0.5-0.53-0.69s-0.38-0.53-0.54-0.76-0.29-0.42-0.3-0.42c0 0-0.05 0.16-0.11 0.36s-0.15 0.52-0.2 0.72c-0.04 0.19-0.12 0.51-0.16 0.71-0.04 0.19-0.1 0.51-0.13 0.7-0.03 0.2-0.08 0.5-0.11 0.68-0.02 0.18-0.06 0.53-0.09 0.79-0.02 0.25-0.05 0.88-0.06 1.41-0.01 0.61 0 1.16 0.02 1.51 0.02 0.3 0.06 0.77 0.09 1.05 0.03 0.27 0.09 0.7 0.13 0.96 0.04 0.25 0.13 0.7 0.2 1 0.06 0.3 0.17 0.73 0.23 0.96 0.07 0.23 0.19 0.64 0.28 0.91 0.09 0.28 0.27 0.75 0.38 1.05 0.12 0.31 0.32 0.77 0.45 1.03 0.12 0.27 0.32 0.67 0.45 0.9 0.12 0.23 0.34 0.62 0.49 0.86 0.14 0.24 0.39 0.63 0.54 0.86 0.16 0.23 0.38 0.54 0.51 0.71 0.12 0.16 0.32 0.42 0.45 0.59 0.14 0.16 0.4 0.47 0.59 0.69 0.2 0.22 1.03 1.08 1.86 1.9l1.5 1.51 1.3-1.3c0.71-0.71 1.5-1.51 1.74-1.77s0.56-0.62 0.71-0.8 0.43-0.53 0.62-0.79c0.19-0.25 0.45-0.61 0.58-0.81 0.13-0.19 0.35-0.55 0.5-0.79s0.36-0.62 0.48-0.83c0.12-0.22 0.32-0.62 0.45-0.9s0.33-0.76 0.45-1.06 0.3-0.77 0.39-1.05c0.09-0.27 0.23-0.74 0.31-1.03 0.08-0.3 0.19-0.77 0.24-1.04 0.06-0.27 0.14-0.71 0.18-0.98s0.1-0.67 0.12-0.89 0.06-0.64 0.08-0.94c0.02-0.35 0.03-0.9 0.02-1.51-0.01-0.53-0.04-1.16-0.07-1.41-0.02-0.26-0.08-0.69-0.12-0.98-0.04-0.28-0.12-0.75-0.18-1.03-0.05-0.29-0.16-0.74-0.23-1.02s-0.16-0.6-0.2-0.72l-0.07-0.22zm-48.66 61.15c-0.52 0-0.93 0.11-1.25 0.32-0.28 0.2-0.42 0.53-0.42 0.97 0 0.59 0.24 0.89 0.74 0.89h1.9v23.65c1.17 0.7 2.5 1.26 4.01 1.67 1.5 0.42 2.95 0.62 4.35 0.62 2.88 0 5.23-0.82 7.04-2.48 1.82-1.66 2.73-4.11 2.73-7.35 0-3.35-0.78-5.87-2.34-7.55-1.55-1.71-3.56-2.57-6.02-2.57-1.22 0-2.37 0.24-3.43 0.7-1.04 0.47-1.94 1.13-2.72 1.99l-0.12-0.08v-10.78h-4.47zm163.21 0c-1.12 0-1.68 0.43-1.68 1.29 0 0.59 0.25 0.89 0.74 0.89h1.87v7.59c-1.66-1.07-3.47-1.6-5.44-1.6-1.74 0-3.31 0.42-4.71 1.25-1.4 0.8-2.5 1.97-3.31 3.5-0.78 1.53-1.16 3.32-1.16 5.37 0 2.17 0.38 4 1.16 5.48 0.81 1.48 1.86 2.58 3.15 3.3 1.33 0.7 2.79 1.05 4.4 1.05 1.32 0 2.47-0.25 3.46-0.77 0.99-0.55 1.8-1.26 2.45-2.14h0.16v2.41h5.6c0.36 0 0.54-0.18 0.54-0.55 0-0.28-0.09-0.5-0.27-0.66-0.18-0.18-0.49-0.33-0.93-0.46l-1.52-0.51v-25.44h-4.51zm26.64 0.59c-0.73 0-1.34 0.23-1.83 0.7-0.47 0.44-0.7 1.03-0.7 1.79 0 0.75 0.23 1.36 0.7 1.82 0.49 0.47 1.1 0.71 1.83 0.71 0.7 0 1.28-0.24 1.75-0.71 0.49-0.46 0.74-1.07 0.74-1.82 0-0.76-0.25-1.35-0.74-1.79-0.47-0.47-1.05-0.7-1.75-0.7zm-157.37 7.58c-1.84 0-3.46 0.42-4.86 1.25-1.38 0.8-2.45 1.97-3.23 3.5-0.75 1.5-1.13 3.29-1.13 5.37 0 2.04 0.4 3.81 1.21 5.28 0.83 1.48 1.97 2.61 3.42 3.39s3.11 1.16 4.98 1.16c2.18 0 4.06-0.49 5.64-1.47 0.47-0.29 0.8-0.55 1.01-0.78 0.23-0.26 0.35-0.55 0.35-0.86s-0.1-0.57-0.31-0.77c-0.18-0.21-0.42-0.32-0.7-0.32-0.24 0-0.55 0.13-0.94 0.39-0.77 0.5-1.55 0.87-2.33 1.13-0.78 0.23-1.63 0.35-2.57 0.35-1.71 0-3.16-0.57-4.35-1.71-1.17-1.17-1.75-2.84-1.75-5.02h13.34c0.41-0.88 0.62-1.79 0.62-2.72 0-2.46-0.76-4.43-2.29-5.91-1.53-1.51-3.57-2.26-6.11-2.26zm21.65 0c-1.84 0-3.46 0.42-4.86 1.25-1.38 0.8-2.45 1.97-3.23 3.5-0.75 1.5-1.13 3.29-1.13 5.37 0 2.04 0.4 3.81 1.21 5.28 0.83 1.48 1.97 2.61 3.42 3.39s3.11 1.16 4.98 1.16c2.18 0 4.06-0.49 5.64-1.47 0.47-0.29 0.8-0.55 1.01-0.78 0.23-0.26 0.35-0.55 0.35-0.86s-0.1-0.57-0.31-0.77c-0.18-0.21-0.42-0.32-0.7-0.32-0.23 0-0.55 0.13-0.93 0.39-0.78 0.5-1.56 0.87-2.34 1.13-0.77 0.23-1.63 0.35-2.57 0.35-1.71 0-3.16-0.57-4.35-1.71-1.17-1.17-1.75-2.84-1.75-5.02h13.34c0.41-0.88 0.62-1.79 0.62-2.72 0-2.46-0.76-4.43-2.29-5.91-1.53-1.51-3.57-2.26-6.11-2.26zm25.5 0c-1.04 0-2.16 0.42-3.38 1.25-1.2 0.83-2.26 1.84-3.19 3.03h-0.16v-3.89h-4.39c-0.52 0-0.94 0.11-1.25 0.31-0.28 0.21-0.43 0.53-0.43 0.97 0 0.6 0.25 0.9 0.75 0.9h1.9v14.7h-0.97c-0.52 0-0.94 0.1-1.25 0.31-0.28 0.21-0.43 0.52-0.43 0.94 0 0.28 0.07 0.52 0.2 0.7 0.13 0.15 0.31 0.23 0.55 0.23h7.93c0.34 0 0.5-0.18 0.5-0.55 0-0.28-0.09-0.5-0.27-0.66-0.18-0.18-0.48-0.33-0.89-0.46l-1.75-0.51v-10.54c2.38-2.15 5.01-3.23 7.89-3.23 0.39-0.44 0.59-1 0.59-1.67 0-0.52-0.17-0.95-0.51-1.28-0.34-0.37-0.82-0.55-1.44-0.55zm18.2 0c-2.28 0-4.51 1-6.69 3h-0.16v-2.61h-4.39c-0.52 0-0.94 0.11-1.25 0.31-0.28 0.21-0.43 0.53-0.43 0.97 0 0.6 0.25 0.9 0.75 0.9h1.9v14.7h-0.97c-0.52 0-0.94 0.1-1.25 0.31-0.28 0.21-0.43 0.52-0.43 0.94 0 0.28 0.07 0.52 0.2 0.7 0.13 0.15 0.31 0.23 0.55 0.23h7.93c0.34 0 0.5-0.18 0.5-0.55 0-0.28-0.09-0.51-0.27-0.7-0.18-0.18-0.48-0.32-0.89-0.42l-1.75-0.51v-11.94c0.8-0.88 1.68-1.58 2.64-2.1s1.92-0.78 2.88-0.78c1.24 0 2.2 0.35 2.88 1.05 0.67 0.7 1.01 1.64 1.01 2.8v10.97h-0.97c-0.52 0-0.94 0.1-1.25 0.31-0.28 0.21-0.43 0.52-0.43 0.94 0 0.28 0.07 0.52 0.2 0.7 0.13 0.15 0.31 0.23 0.54 0.23h7.94c0.34 0 0.5-0.18 0.5-0.55 0-0.28-0.09-0.5-0.27-0.66-0.18-0.18-0.48-0.33-0.89-0.46l-1.75-0.51v-11.28c0-1.84-0.61-3.29-1.83-4.35-1.19-1.09-2.71-1.64-4.55-1.64zm22.01 0c-1.84 0-3.46 0.42-4.86 1.25-1.37 0.8-2.45 1.97-3.23 3.5-0.75 1.5-1.13 3.29-1.13 5.37 0 2.04 0.41 3.81 1.21 5.28 0.83 1.48 1.97 2.61 3.42 3.39s3.11 1.16 4.98 1.16c2.18 0 4.06-0.49 5.64-1.47 0.47-0.29 0.8-0.55 1.01-0.78 0.24-0.26 0.35-0.55 0.35-0.86s-0.1-0.57-0.31-0.77c-0.18-0.21-0.42-0.32-0.7-0.32-0.23 0-0.55 0.13-0.93 0.39-0.78 0.5-1.56 0.87-2.34 1.13-0.78 0.23-1.63 0.35-2.56 0.35-1.72 0-3.17-0.57-4.36-1.71-1.17-1.17-1.75-2.84-1.75-5.02h13.34c0.41-0.88 0.62-1.79 0.62-2.72 0-2.46-0.76-4.43-2.29-5.91-1.53-1.51-3.57-2.26-6.11-2.26zm25.5 0c-1.03 0-2.16 0.42-3.38 1.25-1.19 0.83-2.26 1.84-3.19 3.03h-0.16v-3.89h-4.39c-0.52 0-0.94 0.11-1.25 0.31-0.28 0.21-0.42 0.53-0.42 0.97 0 0.6 0.24 0.9 0.73 0.9h1.91v14.7h-0.97c-0.52 0-0.94 0.1-1.25 0.31-0.28 0.21-0.42 0.52-0.42 0.94 0 0.28 0.06 0.52 0.19 0.7 0.13 0.15 0.31 0.23 0.54 0.23h7.94c0.34 0 0.51-0.18 0.51-0.55 0-0.28-0.1-0.5-0.28-0.66-0.18-0.18-0.48-0.33-0.89-0.46l-1.75-0.51v-10.54c2.38-2.15 5.02-3.23 7.89-3.23 0.39-0.44 0.59-1 0.59-1.67 0-0.52-0.17-0.95-0.51-1.28-0.33-0.37-0.82-0.55-1.44-0.55zm61.86 0c-1.81 0-3.42 0.39-4.82 1.17s-2.49 1.92-3.27 3.42c-0.78 1.48-1.16 3.27-1.16 5.37s0.38 3.9 1.16 5.41c0.78 1.5 1.87 2.64 3.27 3.42s3.01 1.16 4.82 1.16c1.82 0 3.42-0.38 4.82-1.16s2.49-1.92 3.27-3.42c0.78-1.51 1.17-3.31 1.17-5.41s-0.39-3.89-1.17-5.37c-0.78-1.5-1.87-2.64-3.27-3.42s-3-1.17-4.82-1.17zm-323.75 0.39c-0.51 0-0.93 0.11-1.24 0.31-0.29 0.21-0.43 0.53-0.43 0.97 0 0.6 0.25 0.9 0.74 0.9h1.56l5.13 16.88h4.78l3.89-14.12c0.13-0.47 0.22-0.97 0.28-1.52 0.07-0.57 0.11-0.94 0.11-1.12h0.16c0 0.18 0.02 0.55 0.07 1.12 0.08 0.55 0.19 1.05 0.32 1.52l4.16 14.12h4.78l4.82-16.84 1.56-0.55c0.81-0.26 1.21-0.63 1.21-1.12 0-0.37-0.17-0.55-0.51-0.55h-6.34c-0.52 0-0.93 0.11-1.24 0.31-0.29 0.21-0.43 0.53-0.43 0.97 0 0.6 0.26 0.9 0.78 0.9h2.33l-3.66 13.18c-0.1 0.37-0.18 0.74-0.23 1.13-0.05 0.37-0.08 0.6-0.08 0.7h-0.15c0-0.1-0.03-0.33-0.08-0.7-0.05-0.39-0.13-0.76-0.23-1.13l-4.59-15.36h-4.28l-4.24 15.36c-0.1 0.37-0.18 0.74-0.24 1.13-0.05 0.37-0.07 0.6-0.07 0.7h-0.16c0-0.1-0.02-0.33-0.08-0.7-0.05-0.39-0.12-0.76-0.23-1.13l-3.93-13.14 2.1-0.55c0.78-0.2 1.17-0.58 1.17-1.12 0-0.37-0.17-0.55-0.51-0.55h-7zm34.87 0c-0.52 0-0.93 0.11-1.24 0.31-0.29 0.21-0.43 0.53-0.43 0.97 0 0.6 0.24 0.9 0.74 0.9h1.55l5.14 16.88h4.78l3.89-14.12c0.13-0.47 0.22-0.97 0.27-1.52 0.08-0.57 0.12-0.94 0.12-1.12h0.16c0 0.18 0.02 0.55 0.07 1.12 0.08 0.55 0.18 1.05 0.31 1.52l4.17 14.12h4.78l4.82-16.84 1.56-0.55c0.8-0.26 1.21-0.63 1.21-1.12 0-0.37-0.17-0.55-0.51-0.55h-6.34c-0.52 0-0.93 0.11-1.24 0.31-0.29 0.21-0.43 0.53-0.43 0.97 0 0.6 0.26 0.9 0.78 0.9h2.33l-3.66 13.18c-0.1 0.37-0.18 0.74-0.23 1.13-0.05 0.37-0.08 0.6-0.08 0.7h-0.15c0-0.1-0.03-0.33-0.08-0.7-0.05-0.39-0.13-0.76-0.24-1.13l-4.58-15.36h-4.28l-4.24 15.36c-0.11 0.37-0.18 0.74-0.24 1.13-0.05 0.37-0.07 0.6-0.07 0.7h-0.16c0-0.1-0.02-0.33-0.08-0.7-0.05-0.39-0.13-0.76-0.23-1.13l-3.93-13.14 2.1-0.55c0.78-0.2 1.17-0.58 1.17-1.12 0-0.37-0.17-0.55-0.51-0.55h-7zm34.87 0c-0.52 0-0.93 0.11-1.24 0.31-0.29 0.21-0.43 0.53-0.43 0.97 0 0.6 0.24 0.9 0.74 0.9h1.55l5.14 16.88h4.78l3.89-14.12c0.13-0.47 0.22-0.97 0.27-1.52 0.08-0.57 0.12-0.94 0.12-1.12h0.15c0 0.18 0.03 0.55 0.08 1.12 0.08 0.55 0.18 1.05 0.31 1.52l4.17 14.12h4.78l4.82-16.84 1.56-0.55c0.8-0.26 1.2-0.63 1.2-1.12 0-0.37-0.17-0.55-0.5-0.55h-6.34c-0.52 0-0.94 0.11-1.25 0.31-0.28 0.21-0.42 0.53-0.42 0.97 0 0.6 0.25 0.9 0.77 0.9h2.34l-3.66 13.18c-0.1 0.37-0.18 0.74-0.23 1.13-0.05 0.37-0.08 0.6-0.08 0.7h-0.16c0-0.1-0.02-0.33-0.07-0.7-0.05-0.39-0.13-0.76-0.24-1.13l-4.59-15.36h-4.27l-4.24 15.36c-0.11 0.37-0.18 0.74-0.24 1.13-0.05 0.37-0.07 0.6-0.07 0.7h-0.16c0-0.1-0.03-0.33-0.08-0.7-0.05-0.39-0.13-0.76-0.23-1.13l-3.93-13.14 2.1-0.55c0.78-0.2 1.17-0.58 1.17-1.12 0-0.37-0.17-0.55-0.51-0.55h-7zm233.93 0c-0.51 0-0.93 0.11-1.24 0.31-0.29 0.21-0.43 0.53-0.43 0.97 0 0.6 0.25 0.9 0.74 0.9h1.91v14.7h-0.98c-0.51 0-0.93 0.1-1.24 0.31-0.29 0.21-0.43 0.52-0.43 0.94 0 0.28 0.07 0.52 0.2 0.7 0.13 0.15 0.31 0.23 0.54 0.23h7.94c0.33 0 0.5-0.18 0.5-0.55 0-0.28-0.09-0.5-0.27-0.66-0.18-0.18-0.48-0.33-0.9-0.46l-1.75-0.51v-16.88h-4.59zm-177.4 1.95c1.77 0 3.15 0.62 4.17 1.86 1.01 1.25 1.51 3.23 1.51 5.95 0 4.98-2.09 7.47-6.26 7.47-0.73 0-1.52-0.1-2.37-0.31-0.83-0.23-1.57-0.53-2.22-0.89v-9.57c0-0.83 0.25-1.6 0.74-2.3s1.13-1.24 1.91-1.63c0.8-0.39 1.64-0.58 2.52-0.58zm22.72 0c1.45 0 2.61 0.45 3.46 1.36 0.88 0.88 1.33 2.12 1.33 3.73 0 0.47-0.06 0.84-0.16 1.13h-10.11c0.13-1.95 0.68-3.46 1.67-4.55 1.01-1.12 2.28-1.67 3.81-1.67zm21.65 0c1.45 0 2.61 0.45 3.46 1.36 0.89 0.88 1.33 2.12 1.33 3.73 0 0.47-0.06 0.84-0.16 1.13h-10.11c0.13-1.95 0.68-3.46 1.67-4.55 1.01-1.12 2.28-1.67 3.81-1.67zm65.71 0c1.45 0 2.61 0.45 3.46 1.36 0.89 0.88 1.33 2.12 1.33 3.73 0 0.47-0.06 0.84-0.16 1.13h-10.11c0.13-1.95 0.69-3.46 1.67-4.55 1.01-1.12 2.28-1.67 3.81-1.67zm39.56 0c0.88 0 1.73 0.15 2.56 0.46 0.83 0.29 1.56 0.7 2.18 1.25v8.75c0 1.42-0.48 2.59-1.44 3.5-0.96 0.88-2.15 1.32-3.58 1.32-1.86 0-3.32-0.65-4.35-1.94-1.04-1.3-1.56-3.15-1.56-5.56 0-1.66 0.27-3.08 0.82-4.25 0.54-1.16 1.28-2.04 2.22-2.64 0.93-0.6 1.98-0.89 3.15-0.89zm47.84 0c1.77 0 3.13 0.66 4.09 1.98 0.98 1.32 1.47 3.2 1.47 5.64s-0.49 4.33-1.47 5.68c-0.96 1.32-2.32 1.98-4.09 1.98-1.76 0-3.14-0.66-4.12-1.98-0.99-1.35-1.48-3.24-1.48-5.68s0.48-4.32 1.44-5.64c0.99-1.32 2.37-1.98 4.16-1.98zm-215.8 12.87c-0.67 0-1.24 0.23-1.71 0.7-0.44 0.44-0.66 1-0.66 1.67 0 0.68 0.22 1.25 0.66 1.71 0.47 0.45 1.04 0.66 1.71 0.66 0.65 0 1.2-0.21 1.64-0.66 0.46-0.46 0.7-1.03 0.7-1.71 0-0.67-0.24-1.23-0.7-1.67-0.44-0.47-0.99-0.7-1.64-0.7zm186.27 0c-0.67 0-1.24 0.23-1.71 0.7-0.44 0.44-0.66 1-0.66 1.67 0 0.68 0.22 1.25 0.66 1.71 0.47 0.45 1.04 0.66 1.71 0.66 0.65 0 1.19-0.21 1.64-0.66 0.46-0.46 0.7-1.03 0.7-1.71 0-0.67-0.24-1.23-0.7-1.67-0.45-0.47-0.99-0.7-1.64-0.7z" fill="#a9a42c" stroke="#a9a42c" stroke-width="10" filter="url(#f1)" opacity="1" />

 
 <g id="logo-group" transform="translate(-48.643 -31.886) scale(1.095)">
  <path id="path285462" style="font-variant-ligatures:none" d="m361.28 436.8h-1.4208q-0.67488 0-0.67488-0.81696 0-0.60384 0.39072-0.888 0.42624-0.28416 1.1366-0.28416h6.3936q0.46176 0 0.46176 0.49728 0 0.74592-1.0656 1.0301l-1.9181 0.49728 3.5875 12.006q0.14208 0.49728 0.21312 1.0301 0.071 0.49728 0.071 0.63936h0.14208q0-0.14208 0.071-0.63936 0.071-0.5328 0.21312-1.0301l3.8717-14.03h3.9072l4.1914 14.03q0.14208 0.49728 0.21312 1.0301 0.071 0.49728 0.071 0.63936h0.14208q0-0.14208 0.071-0.63936 0.071-0.5328 0.21312-1.0301l3.3389-12.041h-2.1312q-0.7104 0-0.7104-0.81696 0-0.60384 0.39072-0.888 0.42624-0.28416 1.1366-0.28416h5.7898q0.46176 0 0.46176 0.49728 0 0.67488-1.1011 1.0301l-1.4208 0.49728-4.4045 15.38h-4.369l-3.8006-12.894q-0.1776-0.63936-0.28416-1.3853-0.071-0.78144-0.071-1.0301h-0.12q0 0.24864-0.10656 1.0301-0.071 0.74592-0.24864 1.3853l-3.552 12.894h-4.369z" stroke-miterlimit="2" stroke-width="0"/>
  <path id="path285464" style="font-variant-ligatures:none" d="m393.12 436.8h-1.4208q-0.67488 0-0.67488-0.81696 0-0.60384 0.39072-0.888 0.42624-0.28416 1.1366-0.28416h6.3936q0.46176 0 0.46176 0.49728 0 0.74592-1.0656 1.0301l-1.9181 0.49728 3.5875 12.006q0.14208 0.49728 0.21312 1.0301 0.071 0.49728 0.071 0.63936h0.14208q0-0.14208 0.071-0.63936 0.071-0.5328 0.21312-1.0301l3.8717-14.03h3.9072l4.1914 14.03q0.14208 0.49728 0.21312 1.0301 0.071 0.49728 0.071 0.63936h0.14208q0-0.14208 0.071-0.63936 0.071-0.5328 0.21312-1.0301l3.3389-12.041h-2.1312q-0.7104 0-0.7104-0.81696 0-0.60384 0.39072-0.888 0.42624-0.28416 1.1366-0.28416h5.7898q0.46176 0 0.46176 0.49728 0 0.67488-1.1011 1.0301l-1.4208 0.49728-4.4045 15.38h-4.369l-3.8006-12.894q-0.1776-0.63936-0.28416-1.3853-0.071-0.78144-0.071-1.0301h-0.14208q0 0.24864-0.10656 1.0301-0.071 0.74592-0.24864 1.3853l-3.552 12.894h-4.369z" stroke-miterlimit="2" stroke-width="0"/>
  <path id="path285466" style="font-variant-ligatures:none" d="m424.96 436.8h-1.4208q-0.67488 0-0.67488-0.81696 0-0.60384 0.39072-0.888 0.42624-0.28416 1.1366-0.28416h6.3936q0.46176 0 0.46176 0.49728 0 0.74592-1.0656 1.0301l-1.9181 0.49728 3.5875 12.006q0.14208 0.49728 0.21312 1.0301 0.071 0.49728 0.071 0.63936h0.14208q0-0.14208 0.071-0.63936 0.071-0.5328 0.21312-1.0301l3.8717-14.03h3.9072l4.1914 14.03q0.14208 0.49728 0.21312 1.0301 0.071 0.49728 0.071 0.63936h0.14208q0-0.14208 0.071-0.63936 0.071-0.5328 0.21312-1.0301l3.3389-12.041h-2.1312q-0.7104 0-0.7104-0.81696 0-0.60384 0.39072-0.888 0.42624-0.28416 1.1366-0.28416h5.7898q0.46176 0 0.46176 0.49728 0 0.67488-1.1011 1.0301l-1.4208 0.49728-4.4045 15.38h-4.369l-3.8006-12.894q-0.1776-0.63936-0.28416-1.3853-0.071-0.78144-0.071-1.0301h-0.14208q0 0.24864-0.10656 1.0301-0.071 0.74592-0.24864 1.3853l-3.552 12.894h-4.369z" stroke-miterlimit="2" stroke-width="0"/>
  <path id="path285468" style="font-variant-ligatures:none" d="m459.29 452.67q-0.92352 0-1.5629-0.60384-0.60384-0.63936-0.60384-1.5629 0-0.92352 0.60384-1.5274 0.63936-0.63936 1.5629-0.63936 0.888 0 1.4918 0.63936 0.63937 0.60384 0.63937 1.5274 0 0.92352-0.63937 1.5629-0.60383 0.60384-1.4918 0.60384z" stroke-miterlimit="2" stroke-width="0"/>
  <path id="path285470" style="font-variant-ligatures:none" d="m475.67 452.67q-1.9181 0-3.9782-0.56832-2.0602-0.56832-3.6586-1.5274v-21.596h-1.7405q-0.67488 0-0.67488-0.81696 0-0.60384 0.39072-0.888 0.42624-0.28416 1.1366-0.28416h4.0848v9.839l0.10656 0.071q1.0656-1.1722 2.4864-1.8115 1.4563-0.63936 3.1258-0.63936 3.3744 0 5.5056 2.3443 2.1312 2.3088 2.1312 6.8909 0 4.44-2.4864 6.7133t-6.4291 2.2733zm-0.1776-2.1312q5.7187 0 5.7187-6.8198 0-3.7296-1.3853-5.4346t-3.8006-1.705q-1.2077 0-2.3088 0.5328-1.0656 0.5328-1.7405 1.4918-0.67488 0.95904-0.67488 2.0957v8.7379q0.888 0.49728 2.0246 0.81696 1.1722 0.28416 2.1667 0.28416z" stroke-miterlimit="2" stroke-width="0"/>
  <path id="path285472" style="font-variant-ligatures:none" d="m497.16 452.67q-2.5574 0-4.5466-1.0656-1.9891-1.0656-3.1258-3.0902-1.1011-2.0246-1.1011-4.8307 0-2.8416 1.0301-4.9018 1.0656-2.0957 2.9482-3.1968 1.9181-1.1366 4.44-1.1366 3.481 0 5.5766 2.0602 2.0957 2.0246 2.0957 5.399 0 1.2787-0.56832 2.4864h-12.183q0 2.9837 1.5984 4.5821 1.6339 1.5629 3.9782 1.5629 1.2787 0 2.3443-0.31968 1.0656-0.3552 2.1312-1.0301 0.5328-0.3552 0.85248-0.3552 0.39072 0 0.63936 0.28416 0.28416 0.28416 0.28416 0.7104t-0.31968 0.78144q-0.28416 0.31968-0.92352 0.7104-2.1667 1.3498-5.1504 1.3498zm3.8362-10.407q0.14208-0.39072 0.14208-1.0301 0-2.2022-1.2077-3.4099-1.1722-1.2432-3.1613-1.2432-2.0957 0-3.481 1.5274-1.3498 1.4918-1.5274 4.1558z" stroke-miterlimit="2" stroke-width="0"/>
  <path id="path285474" style="font-variant-ligatures:none" d="m516.93 452.67q-2.5574 0-4.5466-1.0656-1.9891-1.0656-3.1258-3.0902-1.1011-2.0246-1.1011-4.8307 0-2.8416 1.0301-4.9018 1.0656-2.0957 2.9482-3.1968 1.9181-1.1366 4.44-1.1366 3.481 0 5.5766 2.0602 2.0957 2.0246 2.0957 5.399 0 1.2787-0.56831 2.4864h-12.183q0 2.9837 1.5984 4.5821 1.6339 1.5629 3.9782 1.5629 1.2787 0 2.3443-0.31968 1.0656-0.3552 2.1312-1.0301 0.53281-0.3552 0.85248-0.3552 0.39072 0 0.63936 0.28416 0.28417 0.28416 0.28417 0.7104t-0.31969 0.78144q-0.28415 0.31968-0.92351 0.7104-2.1667 1.3498-5.1504 1.3498zm3.8362-10.407q0.14209-0.39072 0.14209-1.0301 0-2.2022-1.2077-3.4099-1.1722-1.2432-3.1613-1.2432-2.0957 0-3.481 1.5274-1.3498 1.4918-1.5274 4.1558z" stroke-miterlimit="2" stroke-width="0"/>
  <path id="path285476" style="font-variant-ligatures:none" d="m528.85 452.21q-0.31968 0-0.49728-0.21312-0.1776-0.24864-0.1776-0.63936 0-0.56832 0.39072-0.85248 0.42624-0.28416 1.1366-0.28416h0.888v-13.427h-1.7405q-0.67488 0-0.67488-0.81696 0-0.60384 0.39072-0.888 0.42624-0.28416 1.1366-0.28416h4.0138v3.552h0.14208q1.2787-1.6339 2.9126-2.7706 1.6694-1.1366 3.0902-1.1366 0.85248 0 1.3142 0.49728 0.46176 0.46176 0.46176 1.1722 0 0.92352-0.5328 1.5274-3.9427 0-7.2106 2.9482v9.6259l1.5984 0.46176q0.56832 0.1776 0.81696 0.42624 0.24864 0.21312 0.24864 0.60384 0 0.49728-0.46176 0.49728z" stroke-miterlimit="2" stroke-width="0"/>
  <path id="path285478" style="font-variant-ligatures:none" d="m545.36 452.21q-0.31968 0-0.49728-0.21312-0.1776-0.24864-0.1776-0.63936 0-0.56832 0.39072-0.85248 0.42624-0.28416 1.1366-0.28416h0.888v-13.427h-1.7405q-0.67488 0-0.67488-0.81696 0-0.60384 0.39072-0.888 0.42624-0.28416 1.1366-0.28416h4.0138v2.3798h0.14208q2.9837-2.735 6.1094-2.735 2.5219 0 4.1558 1.4918 1.6694 1.4563 1.6694 3.9782v10.301l1.5984 0.46176q0.56832 0.1776 0.81696 0.42624 0.24864 0.21312 0.24864 0.60384 0 0.49728-0.46176 0.49728h-7.2461q-0.31968 0-0.49728-0.21312-0.1776-0.24864-0.1776-0.63936 0-0.56832 0.39072-0.85248 0.42624-0.28416 1.1366-0.28416h0.888v-10.017q0-1.5984-0.92352-2.5574-0.92352-0.95904-2.6285-0.95904-1.3142 0-2.6285 0.7104-1.3142 0.7104-2.4154 1.9181v10.905l1.5984 0.46176q0.56832 0.14208 0.81696 0.39072t0.24864 0.63936q0 0.49728-0.46176 0.49728z" stroke-miterlimit="2" stroke-width="0"/>
  <path id="path285480" style="font-variant-ligatures:none" d="m576.94 452.67q-2.5574 0-4.5466-1.0656-1.9891-1.0656-3.1258-3.0902-1.1011-2.0246-1.1011-4.8307 0-2.8416 1.0301-4.9018 1.0656-2.0957 2.9482-3.1968 1.9181-1.1366 4.44-1.1366 3.481 0 5.5766 2.0602 2.0957 2.0246 2.0957 5.399 0 1.2787-0.56832 2.4864h-12.183q0 2.9837 1.5984 4.5821 1.6339 1.5629 3.9782 1.5629 1.2787 0 2.3443-0.31968 1.0656-0.3552 2.1312-1.0301 0.5328-0.3552 0.85248-0.3552 0.39072 0 0.63936 0.28416 0.28416 0.28416 0.28416 0.7104t-0.31968 0.78144q-0.28416 0.31968-0.92352 0.7104-2.1667 1.3498-5.1504 1.3498zm3.8362-10.407q0.14208-0.39072 0.14208-1.0301 0-2.2022-1.2077-3.4099-1.1722-1.2432-3.1613-1.2432-2.0957 0-3.481 1.5274-1.3498 1.4918-1.5274 4.1558z" stroke-miterlimit="2" stroke-width="0"/>
  <path id="path285482" style="font-variant-ligatures:none" d="m588.86 452.21q-0.31968 0-0.49728-0.21312-0.1776-0.24864-0.1776-0.63936 0-0.56832 0.39072-0.85248 0.42624-0.28416 1.1366-0.28416h0.888v-13.427h-1.7405q-0.67488 0-0.67488-0.81696 0-0.60384 0.39072-0.888 0.42624-0.28416 1.1366-0.28416h4.0138v3.552h0.14208q1.2787-1.6339 2.9126-2.7706 1.6694-1.1366 3.0902-1.1366 0.85248 0 1.3142 0.49728 0.46176 0.46176 0.46176 1.1722 0 0.92352-0.5328 1.5274-3.9427 0-7.2106 2.9482v9.6259l1.5984 0.46176q0.56832 0.1776 0.81696 0.42624 0.24864 0.21312 0.24864 0.60384 0 0.49728-0.46176 0.49728z" stroke-miterlimit="2" stroke-width="0"/>
  <path id="path285484" style="font-variant-ligatures:none" d="m611.64 452.67q-2.2022 0-4.0138-0.95904-1.776-0.99456-2.8771-3.0192-1.0656-2.0246-1.0656-5.0083 0-2.8061 1.0656-4.9018 1.1011-2.0957 3.0192-3.1968 1.9181-1.1366 4.2979-1.1366 2.6995 0 4.9728 1.4563v-6.9264h-1.705q-0.67488 0-0.67488-0.81696 0-1.1722 1.5274-1.1722h4.1203v23.23l1.3853 0.46176q0.60384 0.1776 0.85248 0.42624 0.24864 0.21312 0.24864 0.60384 0 0.49728-0.49728 0.49728h-5.1149v-2.2022h-0.14208q-0.888 1.2077-2.2378 1.9536-1.3498 0.7104-3.1613 0.7104zm0.78144-2.1312q1.9536 0 3.2678-1.2077 1.3142-1.2432 1.3142-3.1968v-7.992q-0.85248-0.74592-1.9891-1.1366-1.1366-0.42624-2.3443-0.42624-1.5984 0-2.8771 0.81696t-2.0246 2.4154q-0.74592 1.5984-0.74592 3.8717 0 3.3034 1.4208 5.0794t3.9782 1.776z" stroke-miterlimit="2" stroke-width="0"/>
  <path id="path285486" style="font-variant-ligatures:none" d="m629.4 452.67q-0.92352 0-1.5629-0.60384-0.60384-0.63936-0.60384-1.5629 0-0.92352 0.60384-1.5274 0.63936-0.63936 1.5629-0.63936 0.888 0 1.4918 0.63936 0.63936 0.60384 0.63936 1.5274 0 0.92352-0.63936 1.5629-0.60384 0.60384-1.4918 0.60384z" stroke-miterlimit="2" stroke-width="0"/>
  <path id="path285488" style="font-variant-ligatures:none" d="m640.52 432.11q-0.99456 0-1.6694-0.63936-0.63936-0.63936-0.63936-1.6694 0-1.0301 0.63936-1.6339 0.67488-0.63936 1.6694-0.63936 0.95904 0 1.5984 0.63936 0.67488 0.60384 0.67488 1.6339t-0.67488 1.6694q-0.63936 0.63936-1.5984 0.63936zm-3.3389 20.104q-0.31968 0-0.49728-0.21312-0.1776-0.24864-0.1776-0.63936 0-0.56832 0.39072-0.85248 0.42624-0.28416 1.1366-0.28416h0.888v-13.427h-1.7405q-0.67488 0-0.67488-0.81696 0-0.60384 0.39072-0.888 0.42624-0.28416 1.1366-0.28416h4.1914v15.416l1.5984 0.46176q0.56832 0.1776 0.81696 0.42624 0.24864 0.21312 0.24864 0.60384 0 0.49728-0.46176 0.49728z" stroke-miterlimit="2" stroke-width="0"/>
  <path id="path285490" style="font-variant-ligatures:none" d="m656.37 452.67q-2.4864 0-4.4045-1.0656t-2.9837-3.1258-1.0656-4.9373 1.0656-4.9018q1.0656-2.0602 2.9837-3.1258t4.4045-1.0656 4.4045 1.0656 2.9837 3.1258q1.0656 2.0246 1.0656 4.9018 0 2.8771-1.0656 4.9373t-2.9837 3.1258-4.4045 1.0656zm0-2.1312q2.4154 0 3.7296-1.8115 1.3498-1.847 1.3498-5.1859t-1.3498-5.1504q-1.3142-1.8115-3.7296-1.8115-2.4509 0-3.8006 1.8115-1.3142 1.8115-1.3142 5.1504t1.3498 5.1859q1.3498 1.8115 3.7651 1.8115z" stroke-miterlimit="2" stroke-width="0"/>
  <path id="path285493" style="font-variant-ligatures:none" d="m333.72 346.86q8.7803 4.5267 7.0632 13.073-1.5219 7.6486-8.5461 12.683-9.3266 6.712-23.141 6.712-10.263 0-18.224-3.9023-7.8047-3.8243-10.927-10.653-2.2243-4.956-1.6-8.1169 0.23413-1.2097 3.5121-2.0682 2.3024 4.4487 9.7168 7.6096 3.1219-3.278 8.5071-9.3266t8.39-9.4046q3.0438-3.395 6.0096-6.5169 6.5559-6.9072 11.083-10.458 1.4048-1.1707 3.5902-0.078 0.54633 0.27317 0.89755 0.62438-3.9024 3.278-11.356 13.034 3.395 0.85851 6.0876 0.85851t5.4633-0.58535q2.8097-0.62437 5.2291-1.7951 5.5413-2.6146 6.3218-6.4389 1.4829-7.4535-9.3266-10.263-4.2145-1.1317-8.6632-1.1317-4.4097 0-8.4291 0.62438-4.0194 0.58535-7.3364 1.8731-7.2584 2.8487-8.312 8.0778-0.89753 4.4096 1.7951 7.4145-4.3316 3.7853-6.4389 3.7853-2.4195 0-3.9804-2.6146-1.6-2.6926-0.97559-5.8925 0.62438-3.1999 2.4585-5.6194t4.5267-4.2926q2.6926-1.9122 5.9706-3.317 3.317-1.4048 6.9071-2.3414 6.9462-1.8341 12.214-1.8341 5.2682 0 8.7022 0.46828 3.4731 0.42926 6.4779 1.3658 3.0048 0.93656 5.4633 2.3414t4.0975 3.317q3.4341 4.0584 2.3024 9.7168-0.89753 4.5267-5.4243 8.1169-4.0584 3.317-10.107 4.956zm-33.638 17.951q4.3706 0.89754 7.1803 0.89754t4.7999-0.11707q1.9902-0.15609 4.3706-0.78047 2.4194-0.62437 4.2926-1.756 4.0584-2.4194 4.917-6.634 0.81949-4.0975-2.8487-6.712-3.317-2.3804-9.3266-2.6146-1.7951 2.4195-3.5511 4.8389-1.7561 2.4194-3.4731 4.7218-3.6292 4.8389-6.3608 8.1559z" stroke-miterlimit="2" stroke-width="0"/>
  <path id="path285495" style="font-variant-ligatures:none" d="m360.02 362.93q1.4439 4.0584 9.4437 4.0584 4.995 0 9.912-2.4195 4.917-2.4585 9.0144-7.2193 1.7951-0.11707 1.4829 1.4439-0.35121 1.7561-3.1219 5.073-2.7316 3.278-4.956 5.3072-2.2243 2.0292-4.8389 3.7853-2.5755 1.717-5.3852 2.9658-6.1267 2.7316-12.292 2.7316-12.409 0-14.751-6.8681-0.8195-2.4975-0.19512-5.6974 0.6634-3.239 2.3024-5.9316 1.678-2.6926 4.0975-5.1121 2.4585-2.4585 5.5413-4.5267 3.1219-2.0682 6.5559-3.5511 7.3754-3.2389 14.361-3.2389 5.034 0 6.2828 3.1609 0.42926 1.0926 0.078 2.9268-0.35122 1.7951-1.639 3.5511-1.2488 1.756-3.1219 3.1999-1.8341 1.4048-4.1365 2.4975-2.2634 1.0536-4.7609 1.8341-4.4096 1.4048-9.8729 2.0292zm0.15608-3.6292q5.1121-0.58535 9.1315-2.7707 4.2536-2.3414 4.8779-5.4633 0.6634-3.1609-2.2243-3.1609-3.7462 0-7.2584 3.5902-3.317 3.4341-4.5267 7.8047z" stroke-miterlimit="2" stroke-width="0"/>
  <path id="path285497" style="font-variant-ligatures:none" d="m397.17 362.93q1.4439 4.0584 9.4437 4.0584 4.995 0 9.912-2.4195 4.917-2.4585 9.0144-7.2193 1.7951-0.11707 1.4829 1.4439-0.35122 1.7561-3.1219 5.073-2.7316 3.278-4.956 5.3072-2.2243 2.0292-4.8389 3.7853-2.5756 1.717-5.3852 2.9658-6.1267 2.7316-12.292 2.7316-12.409 0-14.751-6.8681-0.8195-2.4975-0.19512-5.6974 0.6634-3.239 2.3024-5.9316 1.678-2.6926 4.0975-5.1121 2.4585-2.4585 5.5413-4.5267 3.1219-2.0682 6.5559-3.5511 7.3754-3.2389 14.361-3.2389 5.034 0 6.2828 3.1609 0.42926 1.0926 0.078 2.9268-0.35122 1.7951-1.639 3.5511-1.2488 1.756-3.1219 3.1999-1.8341 1.4048-4.1365 2.4975-2.2634 1.0536-4.7609 1.8341-4.4096 1.4048-9.8729 2.0292zm0.15609-3.6292q5.1121-0.58535 9.1315-2.7707 4.2536-2.3414 4.8779-5.4633 0.66339-3.1609-2.2243-3.1609-3.7462 0-7.2584 3.5902-3.317 3.4341-4.5267 7.8047z" stroke-miterlimit="2" stroke-width="0"/>
  <path id="path285499" style="font-variant-ligatures:none" d="m439.83 354.86q-4.6438-0.23414-7.7657-0.97559-5.4242 6.9852-10.38 12.448-0.66339 0.81949-2.3804 0.42926-3.0438-0.70243-3.356-1.639 7.9218-4.8779 12.292-12.527-3.7462-1.8731-3.0438-5.3072 0.42926-2.1073 3.8243-5.3852 3.278-3.1999 4.5267-3.1999 3.8243 0 5.4243 1.9512 0.62437 0.74144 0.35121 1.9902-0.23414 1.2097-2.1073 4.0975 5.4243 2.9268 14.439 3.4341-0.81949 2.6926-3.1219 4.3706-0.6634 0.5073-1.2097 0.5073-3.278 2.4975-4.995 5.4243-0.54633 0.93657-0.70242 1.7951-0.74144 3.6292 3.5902 3.6292 2.9268 0 7.0242-2.6146 3.6292-2.3804 6.712-5.9316 1.7951-0.11707 1.4829 1.4439-0.27317 1.3268-2.4585 4.0584-2.1463 2.7316-4.0584 4.7218t-4.1755 3.9023q-2.2634 1.9122-4.6828 3.4341-5.3852 3.356-9.912 3.356-7.6876 0-9.3656-4.7609-0.54633-1.6-0.1561-3.7072 0.42926-2.1463 1.717-4.2145 1.3268-2.0682 3.239-4.0194 3.9023-4.0584 9.2486-6.712z" stroke-miterlimit="2" stroke-width="0"/>
  <path id="path285503" style="font-variant-ligatures:none" d="m602.69 366.8q0.81949 0.27316 1.9122 0.27316 1.1317 0 2.6536-0.58535 0.6634 0.50731 0.93656 1.3658 0.31219 0.81949 0.19512 1.4439-0.11706 0.62437-0.85851 1.7951-0.70243 1.1707-1.8341 2.3804-1.1317 1.1707-2.6536 2.2634-1.4829 1.0926-3.1609 1.9512-6.3608 3.2389-12.527 0.97558-5.1511-1.8341-6.3218-7.5705-0.58535-2.9658 0.078-6.3608 0.70242-3.4341 2.2243-6.0096 1.5609-2.5756 3.7462-5.034 2.1853-2.4975 4.7999-4.8389 2.6146-2.3804 5.2682-4.6438 2.6926-2.2634 5.2682-4.4096 2.5756-2.1463 4.6828-4.2145 4.6438-4.5657 5.3072-7.7657 0.78047-4.0584-2.5755-5.1901-0.97559-0.31219-3.1219-0.31219t-5.6584 1.4829-7.2193 4.0584q-3.7072 2.5756-7.4535 6.0486-3.7072 3.4731-7.2584 7.4925-3.5121 4.0194-6.595 8.351-9.0925 12.8-11.005 22.36-0.23414 1.0926-0.35121 2.1073-1.4048 1.2878-4.4877 2.6536-5.6584 2.4585-7.0242 2.4585-1.3268 0-2.1853-0.54633-0.81946-0.5073-1.4048-1.5609-1.3268-2.3804-0.62438-6.0486 0.74145-3.7072 2.7316-7.6876t4.6048-8.1559q2.6536-4.1755 5.5413-8.351 2.9267-4.2145 5.5023-8.1169 6.0096-9.0925 6.8681-13.424 0.74145-3.7853 0.50731-5.073-0.50731-2.3414-2.3414-2.4194 0.66341-2.6146 3.356-2.6146t4.1365 1.9902q2.2634 2.9658 1.0536 9.0534-1.4048 7.0632-6.8291 15.609 11.59-11.668 20.331-17.482 10.536-7.0242 18.692-7.0242 7.8047 0 8.8973 6.1657 0.35121 2.0682-0.23413 4.956-0.54634 2.8487-1.8731 5.5023t-3.0829 5.1901q-1.717 2.4975-3.6292 4.995t-3.6682 5.2291q-4.0975 6.2828-5.3462 12.566-0.74144 3.7462 2.0292 4.7218z" stroke-miterlimit="2" stroke-width="0"/>
  <path id="path285505" style="font-variant-ligatures:none" d="m628.91 362.93q1.4439 4.0584 9.4437 4.0584 4.995 0 9.912-2.4195 4.917-2.4585 9.0144-7.2193 1.7951-0.11707 1.4829 1.4439-0.3512 1.7561-3.1219 5.073-2.7316 3.278-4.956 5.3072-2.2243 2.0292-4.8389 3.7853-2.5756 1.717-5.3852 2.9658-6.1267 2.7316-12.292 2.7316-12.409 0-14.751-6.8681-0.81949-2.4975-0.19511-5.6974 0.6634-3.239 2.3024-5.9316 1.678-2.6926 4.0975-5.1121 2.4585-2.4585 5.5413-4.5267 3.1219-2.0682 6.5559-3.5511 7.3754-3.2389 14.361-3.2389 5.034 0 6.2828 3.1609 0.42926 1.0926 0.078 2.9268-0.35122 1.7951-1.639 3.5511-1.2488 1.756-3.1219 3.1999-1.8341 1.4048-4.1365 2.4975-2.2634 1.0536-4.7609 1.8341-4.4096 1.4048-9.8729 2.0292zm0.1561-3.6292q5.1121-0.58535 9.1315-2.7707 4.2536-2.3414 4.8779-5.4633 0.6634-3.1609-2.2243-3.1609-3.7462 0-7.2584 3.5902-3.317 3.4341-4.5267 7.8047z" stroke-miterlimit="2" stroke-width="0"/>
  <path id="path285507" style="font-variant-ligatures:none" d="m671.57 354.86q-4.6438-0.23414-7.7657-0.97559-5.4243 6.9852-10.38 12.448-0.6634 0.81949-2.3804 0.42926-3.0438-0.70243-3.356-1.639 7.9218-4.8779 12.292-12.527-3.7462-1.8731-3.0438-5.3072 0.42926-2.1073 3.8243-5.3852 3.278-3.1999 4.5267-3.1999 3.8243 0 5.4243 1.9512 0.62437 0.74144 0.3512 1.9902-0.23414 1.2097-2.1073 4.0975 5.4243 2.9268 14.439 3.4341-0.81949 2.6926-3.1219 4.3706-0.66341 0.5073-1.2097 0.5073-3.278 2.4975-4.995 5.4243-0.54632 0.93657-0.70242 1.7951-0.74144 3.6292 3.5902 3.6292 2.9267 0 7.0242-2.6146 3.6292-2.3804 6.712-5.9316 1.7951-0.11707 1.4829 1.4439-0.27316 1.3268-2.4585 4.0584-2.1463 2.7316-4.0584 4.7218-1.9122 1.9902-4.1755 3.9023-2.2634 1.9122-4.6828 3.4341-5.3852 3.356-9.912 3.356-7.6876 0-9.3656-4.7609-0.54631-1.6-0.15608-3.7072 0.42926-2.1463 1.717-4.2145 1.3268-2.0682 3.239-4.0194 3.9024-4.0584 9.2486-6.712z" stroke-miterlimit="2" stroke-width="0"/>
  <path id="path285509" style="font-variant-ligatures:none" d="m723.74 365.9q2.8877 0 6.9852-2.6146 3.6292-2.3804 6.712-5.9316 1.8341-0.1561 1.4048 1.5219-0.27317 1.3268-2.4194 4.0194-2.1073 2.6926-4.0194 4.6828-1.9122 1.9902-4.1755 3.9023-2.2634 1.9122-4.6828 3.4341-5.3852 3.356-9.8729 3.356-5.7364 0-6.9462-3.4341-0.42925-1.1707-0.078-2.8097-4.1365 4.0194-10.575 5.6194-2.1853 0.54632-4.5657 0.54632t-4.2145-0.74144q-1.7951-0.78047-2.9268-2.1463-2.3024-2.8487-1.3658-7.6096 1.0927-5.3852 6.7901-11.044 5.6194-5.6194 13.346-9.2095 8.234-3.7853 16.039-3.7853 3.4731 0 2.4975 3.0828-8.9754 0-16.624 4.8389-3.356 2.1463-5.5413 4.7218-2.1853 2.5756-2.6536 4.995-0.89753 4.5267 2.9268 4.5267 5.5023 0 12.448-6.8681 2.4194-2.4194 5.8925-6.7511 3.4731-4.3706 5.6584-7.1023 2.2243-2.7707 4.5267-5.6194 2.3414-2.8877 4.4487-5.5023 5.2292-6.4389 6.4389-7.7266 1.7951-1.9512 3.7072-1.9512 2.2243 0 2.8877 1.6-5.6194 6.751-10.849 14.322-5.2291 7.5706-7.3754 11.044-4.8389 7.8827-5.5413 11.278-0.66339 3.356 1.717 3.356z" stroke-miterlimit="2" stroke-width="0"/>
  <path id="icon" stroke-width=".48489" d="m500.59 306.94c-0.009 0-0.0655 0.20327-0.12536 0.45157-0.0596 0.2483-0.13884 0.60931-0.17605 0.80205-0.0369 0.19277-0.0917 0.52034-0.12131 0.72792-0.0297 0.20758-0.0698 0.52299-0.089 0.70095-0.0226 0.20732-0.0351 0.6767-0.0348 1.3075 0.00054 0.86785 0.008 1.0366 0.0612 1.4289 0.0334 0.24452 0.0971 0.62278 0.14154 0.84006 0.0445 0.21756 0.12913 0.56077 0.18818 0.76297 0.0593 0.2022 0.16391 0.51572 0.23239 0.69664 0.0688 0.1809 0.18872 0.46451 0.2669 0.63059 0.0779 0.1658 0.20543 0.41464 0.28335 0.55267 0.0779 0.13804 0.22592 0.37825 0.32918 0.53406 0.10326 0.15555 0.30033 0.42246 0.43782 0.59311 0.1375 0.17039 0.42435 0.48015 0.63734 0.6883 0.21298 0.20813 0.54079 0.49308 0.72844 0.63355 0.18791 0.14046 0.47476 0.33403 0.63758 0.43055 0.16283 0.0962 0.3564 0.20758 0.43001 0.24721l0.13372 0.072 0.0189 0.83114c0.0102 0.45724 0.0359 1.1768 0.0569 1.5995 0.021 0.42246 0.0458 0.8665 0.0553 0.98675l0.017 0.2181-0.29251 0.0186c-0.16122 0.0102-0.42624 0.0377-0.58933 0.0609-0.16311 0.0232-0.47935 0.0884-0.70285 0.14505-0.22322 0.0563-0.52654 0.14665-0.67399 0.20057-0.1472 0.0539-0.44969 0.18791-0.6721 0.29764-0.22242 0.10972-0.53163 0.2828-0.68747 0.38444-0.15556 0.10191-0.41033 0.2874-0.56616 0.41221-0.15555 0.1251-0.42245 0.36693-0.59311 0.53784-0.17038 0.17092-0.41545 0.44241-0.54433 0.6031-0.12887 0.16095-0.32406 0.42785-0.43378 0.59282-0.10946 0.16527-0.29683 0.46452-0.41599 0.66537-0.11943 0.20085-0.32972 0.57076-0.46775 0.82227-0.13803 0.25153-0.35075 0.66347-0.47261 0.91556-0.12185 0.25207-0.29682 0.62817-0.38875 0.83575-0.0922 0.20759-0.26394 0.62007-0.38175 0.91663-0.11782 0.29655-0.31004 0.82416-0.42704 1.1727-0.11728 0.34859-0.27985 0.87081-0.3618 1.1606-0.082 0.28982-0.19088 0.70255-0.2421 0.91692-0.0512 0.21433-0.13588 0.59714-0.18818 0.85059-0.0523 0.25315-0.12536 0.64136-0.1623 0.86242-0.0372 0.22079-0.0922 0.5775-0.12266 0.79259-0.0302 0.21487-0.0785 0.62735-0.10757 0.91663-0.0289 0.28901-0.0677 0.75002-0.0863 1.0245-0.0186 0.27445-0.0334 0.9719-0.0332 1.5502 0.00027 0.57828 0.0151 1.2576 0.0329 1.5097 0.0178 0.25208 0.0571 0.70687 0.0874 1.011 0.0302 0.30383 0.079 0.72253 0.10837 0.93011 0.0294 0.20759 0.0838 0.55835 0.12105 0.77911 0.0369 0.22107 0.11 0.60931 0.1623 0.86271 0.052 0.2537 0.14153 0.65513 0.19869 0.89239 0.0574 0.23724 0.18305 0.7042 0.27957 1.038 0.0962 0.33349 0.25935 0.84923 0.36207 1.1458 0.10272 0.29656 0.26906 0.75138 0.36962 1.011 0.10056 0.25935 0.26204 0.67186 0.35883 0.91663 0.0968 0.24452 0.251 0.61469 0.3432 0.82227 0.0919 0.20759 0.2855 0.61387 0.43028 0.90315 0.1445 0.28901 0.36611 0.70769 0.4923 0.93011 0.12618 0.22242 0.33916 0.58017 0.47342 0.79531 0.13426 0.21487 0.35263 0.54865 0.48556 0.74139 0.13264 0.19276 0.37798 0.53246 0.54511 0.75487 0.16715 0.22242 0.44268 0.57101 0.61227 0.7748 0.16984 0.20355 0.46748 0.54322 0.66133 0.75487 0.19411 0.21137 1.1059 1.1366 2.0266 2.056l1.6739 1.6715 1.8006-1.8063c0.99023-0.99348 1.9282-1.9519 2.0842-2.1298 0.15583-0.17794 0.40063-0.4664 0.54405-0.64112 0.14342-0.1747 0.4079-0.51437 0.58826-0.75487 0.18009-0.24048 0.4877-0.67991 0.68316-0.97646 0.19572-0.29656 0.42111-0.64839 0.50088-0.78184 0.0798-0.13345 0.24048-0.41248 0.35668-0.62007s0.33699-0.63219 0.49012-0.94359c0.1534-0.31138 0.35101-0.73601 0.43971-0.94359 0.0884-0.20759 0.22485-0.54132 0.30303-0.74139 0.0782-0.20031 0.20867-0.53381 0.29009-0.74139 0.0814-0.20759 0.21756-0.57153 0.30276-0.80879 0.0852-0.23724 0.22268-0.64975 0.30545-0.91663 0.0828-0.2669 0.20462-0.68558 0.27067-0.93011 0.0663-0.24479 0.16284-0.62681 0.21487-0.84923 0.052-0.22241 0.14316-0.65324 0.20247-0.95707 0.0593-0.3041 0.1383-0.75889 0.17578-1.011 0.0372-0.25208 0.0925-0.67075 0.12239-0.93011 0.0299-0.25963 0.0755-0.73276 0.10083-1.0514 0.0342-0.42704 0.0466-0.89883 0.0477-1.7928 0.00097-0.74382-0.0121-1.3906-0.0335-1.6715-0.0189-0.25207-0.0585-0.69504-0.0876-0.98403-0.0294-0.28928-0.0838-0.73601-0.12077-0.99266-0.0372-0.25693-0.11-0.69988-0.16203-0.98403-0.0518-0.28442-0.15448-0.77805-0.22835-1.097-0.0736-0.31894-0.20571-0.8344-0.2936-1.1458-0.0879-0.31111-0.23239-0.78426-0.32108-1.0511-0.0884-0.2669-0.2359-0.68558-0.32702-0.93011-0.0914-0.24452-0.26394-0.67535-0.3831-0.95706-0.11943-0.28173-0.35937-0.80341-0.53299-1.1593-0.17389-0.35587-0.44133-0.87134-0.59418-1.1458-0.15313-0.27445-0.37609-0.65649-0.49551-0.84923-0.11943-0.19276-0.28766-0.45022-0.37393-0.57182-0.0865-0.12186-0.23185-0.31597-0.32325-0.43136-0.0914-0.11565-0.30653-0.35398-0.47799-0.53003-0.17146-0.17577-0.42677-0.4168-0.56775-0.53541-0.14073-0.11835-0.41518-0.32109-0.60984-0.4505-0.19465-0.12941-0.51602-0.31516-0.71443-0.41302-0.19843-0.0979-0.48204-0.22269-0.63031-0.27741-0.14828-0.055-0.38956-0.13426-0.53594-0.17632-0.14666-0.0423-0.26933-0.0801-0.27283-0.0844-0.003-0.004-0.0261-0.36558-0.0504-0.80288-0.0245-0.43755-0.0577-1.145-0.0739-1.572-0.0164-0.42731-0.0248-0.78154-0.0189-0.7875 0.006-0.006 0.11916 0.007 0.25207 0.0286 0.13291 0.0213 0.43163 0.0526 0.664 0.069 0.31166 0.0224 0.5392 0.0224 0.86892 0 0.24561-0.0167 0.58933-0.0547 0.76379-0.0844 0.17443-0.0299 0.43271-0.0847 0.57343-0.12213 0.141-0.0372 0.35937-0.10541 0.48528-0.15124 0.12617-0.0461 0.33834-0.13804 0.47179-0.20436 0.13345-0.0663 0.31543-0.16392 0.4044-0.21675 0.089-0.0531 0.27579-0.18036 0.4149-0.28308 0.13939-0.10245 0.36207-0.29144 0.49527-0.41949 0.13317-0.12833 0.33995-0.35452 0.45966-0.50278 0.1197-0.14828 0.28901-0.37879 0.37635-0.51224 0.0871-0.13345 0.24803-0.42461 0.35722-0.64703 0.10892-0.22242 0.24237-0.53192 0.29602-0.68747 0.0539-0.15583 0.13318-0.42758 0.17658-0.60388 0.0432-0.17658 0.0973-0.45562 0.12051-0.62007 0.0229-0.16473 0.0491-0.45104 0.0577-0.63627 0.009-0.18548 0.002-0.48393-0.0143-0.66347-0.0164-0.17982-0.0547-0.44537-0.0844-0.5904-0.0299-0.14504-0.0965-0.38956-0.14801-0.5438-0.0515-0.15394-0.14855-0.38956-0.21568-0.52329-0.0671-0.13372-0.18494-0.33672-0.26178-0.45076-0.0766-0.11404-0.2615-0.33026-0.41086-0.48069-0.16634-0.16743-0.36476-0.33403-0.5133-0.43028-0.13291-0.0863-0.34535-0.20139-0.47179-0.25558-0.12618-0.0542-0.29629-0.11781-0.37798-0.141-0.0814-0.0232-0.25746-0.0631-0.39091-0.0884-0.16176-0.031-0.37744-0.0464-0.64704-0.0466-0.22241 0-0.50738 0.0145-0.63355 0.0326-0.1259 0.0178-0.3564 0.0625-0.51223 0.0992-0.15556 0.0367-0.38013 0.0984-0.49876 0.13696-0.11862 0.0386-0.35425 0.13561-0.52382 0.21541-0.16931 0.0798-0.42408 0.22322-0.56615 0.31839-0.14181 0.0954-0.35776 0.25909-0.47961 0.36369-0.12213 0.10487-0.32001 0.30275-0.43972 0.43971-0.11997 0.13722-0.31569 0.39496-0.43513 0.57289-0.11943 0.17794-0.31192 0.51762-0.42784 0.75488-0.1162 0.23724-0.2661 0.58501-0.3335 0.77266-0.0671 0.18764-0.16445 0.49095-0.21568 0.67399-0.0515 0.18306-0.12509 0.47207-0.16337 0.64272-0.0385 0.17039-0.0989 0.47988-0.13453 0.68747-0.0356 0.20759-0.0847 0.54729-0.10946 0.75487-0.0245 0.20759-0.0501 0.40521-0.0566 0.43891l-0.0116 0.0615-0.10056-0.0741c-0.0558-0.0461-0.21093-0.17262-0.34476-0.28657-0.13431-0.11346-0.32584-0.29336-0.42524-0.39906-0.0999-0.10619-0.25602-0.28608-0.34718-0.40052-0.0912-0.11443-0.24051-0.32342-0.33167-0.46403-0.0911-0.14111-0.2148-0.34718-0.27444-0.45822-0.0601-0.11152-0.15953-0.31421-0.22062-0.45095-0.0611-0.13673-0.1605-0.3913-0.22111-0.56586-0.0606-0.17504-0.15129-0.48731-0.20123-0.69532-0.0501-0.20759-0.11566-0.5473-0.14558-0.75488-0.0299-0.20759-0.0682-0.59742-0.0849-0.8662-0.0229-0.36503-0.0229-0.63142 0-1.0514 0.017-0.3095 0.0542-0.74464 0.0828-0.96706s0.083-0.57236 0.12105-0.77781c0.038-0.20543 0.11511-0.56479 0.17119-0.7988l0.10245-0.42543-0.91988-0.24587c-0.50574-0.13528-0.9271-0.24583-0.93632-0.24583zm9.5411 4.909c0.16608-0.001 0.36638 0.0111 0.44484 0.0275 0.0787 0.0162 0.23078 0.0712 0.33807 0.12212 0.12078 0.0574 0.24911 0.14613 0.337 0.23348 0.0779 0.0776 0.18252 0.21055 0.23266 0.29548 0.0499 0.0849 0.12564 0.25639 0.1685 0.38067 0.0432 0.12455 0.0973 0.35209 0.12105 0.50578 0.0318 0.20652 0.0388 0.37851 0.027 0.65702-0.009 0.20759-0.0391 0.49255-0.0677 0.63356-0.0286 0.14072-0.0903 0.37743-0.13749 0.52571-0.0472 0.14828-0.15044 0.40305-0.2297 0.56615-0.079 0.16311-0.20408 0.38741-0.27822 0.49876-0.0739 0.11107-0.21272 0.29305-0.30815 0.40439-0.0957 0.11108-0.26367 0.27634-0.37313 0.36693-0.10945 0.0906-0.26582 0.20705-0.34751 0.25908-0.0814 0.052-0.22511 0.13345-0.31893 0.18063-0.0941 0.0475-0.27715 0.12078-0.40682 0.16311-0.12968 0.0426-0.39254 0.10487-0.58419 0.13857-0.28497 0.0504-0.44565 0.0617-0.88725 0.0617-0.44106 0-0.60227-0.0113-0.88588-0.0615-0.19087-0.0337-0.36531-0.0682-0.38768-0.0768-0.0345-0.0132-0.038-0.0593-0.0221-0.30141 0.0105-0.15691 0.0423-0.49172 0.0709-0.74382 0.0286-0.25207 0.0828-0.63166 0.12051-0.84384 0.0375-0.21191 0.11135-0.55617 0.16365-0.76457s0.1375-0.50065 0.18926-0.64946c0.052-0.14882 0.14774-0.39199 0.21325-0.54055 0.0652-0.14882 0.18494-0.38067 0.26582-0.51519 0.0809-0.1348 0.22808-0.34563 0.32702-0.46829 0.0987-0.12294 0.27202-0.30114 0.38525-0.39631 0.11297-0.0952 0.29548-0.22458 0.40548-0.28739 0.10999-0.0631 0.29844-0.14963 0.41868-0.19249 0.12024-0.0429 0.32783-0.10029 0.46128-0.12725 0.14208-0.0288 0.36773-0.0504 0.54458-0.0518zm1.1584 11.483c-0.0121 0 0.0871 0.11808 0.2208 0.26258 0.13345 0.14451 0.33619 0.37798 0.45023 0.51898 0.1143 0.14073 0.28954 0.37123 0.38956 0.51223 0.10029 0.14073 0.27418 0.40332 0.3866 0.58342 0.11242 0.18009 0.3211 0.53109 0.46371 0.77994 0.14289 0.24884 0.38525 0.69581 0.53866 0.99372 0.15367 0.29764 0.36584 0.72898 0.47179 0.95896 0.10569 0.2297 0.27472 0.61198 0.37555 0.84923 0.10056 0.23725 0.27418 0.67399 0.38553 0.97055 0.11134 0.29656 0.28199 0.78183 0.37878 1.0784 0.0971 0.29656 0.22484 0.70905 0.28415 0.91663 0.059 0.20759 0.1499 0.54108 0.20166 0.74139 0.0518 0.20031 0.14316 0.58235 0.20328 0.84923 0.0598 0.2669 0.15097 0.71579 0.20247 0.99751 0.0515 0.28173 0.12428 0.72442 0.16176 0.98403 0.0375 0.25935 0.0865 0.63544 0.10918 0.83575 0.0226 0.20031 0.0596 0.58234 0.082 0.84923 0.0226 0.2669 0.0531 0.74624 0.0679 1.0649 0.0148 0.31867 0.027 0.8646 0.0267 1.2132 0 0.34859-0.0121 0.87619-0.0264 1.1728-0.0145 0.29655-0.0453 0.77562-0.0685 1.0649-0.0232 0.28901-0.0782 0.81068-0.12186 1.1593-0.0437 0.34832-0.12186 0.87779-0.17335 1.1765-0.0518 0.29844-0.13102 0.72306-0.17658 0.94359-0.0453 0.22026-0.13642 0.62356-0.20274 0.89641-0.0661 0.27256-0.18575 0.72762-0.26636 1.011-0.0803 0.28335-0.21487 0.72738-0.29899 0.98699-0.0841 0.25935-0.25611 0.74867-0.38201 1.0867-0.12618 0.33834-0.22512 0.61818-0.21973 0.62196 0.005 0.004 0.13696 0.11054 0.29252 0.23698 0.15582 0.12671 0.48338 0.37878 0.72791 0.56048 0.24452 0.1817 0.65105 0.4672 0.90315 0.63408 0.25207 0.16688 0.61008 0.39469 0.79531 0.50574 0.18548 0.11108 0.55539 0.32163 0.82227 0.46748 0.2669 0.14612 0.72199 0.37717 1.011 0.51359 0.28927 0.13642 0.67748 0.31085 0.86271 0.38714 0.18548 0.0766 0.50685 0.20382 0.71443 0.28281 0.20759 0.079 0.55941 0.20436 0.78212 0.2785 0.22242 0.0741 0.57425 0.18386 0.78183 0.24371 0.20732 0.0596 0.57129 0.1569 0.8085 0.21622 0.23725 0.0593 0.61333 0.14558 0.83575 0.19195 0.22242 0.0461 1.4386 0.25746 2.7027 0.46964 1.2642 0.21217 2.2983 0.38121 2.2983 0.37582 0-0.005 0.0175-0.12806 0.0391-0.27257 0.0213-0.1445 0.0696-0.52358 0.10677-0.8422 0.0375-0.31893 0.0865-0.77994 0.10891-1.0245 0.0226-0.24479 0.0593-0.71525 0.0817-1.0455 0.0221-0.33025 0.0542-1.046 0.0712-1.5906 0.0229-0.74382 0.0229-1.232-0.00048-1.9632-0.017-0.53541-0.0491-1.2329-0.0714-1.5502-0.0224-0.31731-0.0644-0.81364-0.0938-1.1026-0.0294-0.28928-0.0844-0.76244-0.12239-1.0514-0.0383-0.28928-0.1224-0.84166-0.18711-1.228-0.0647-0.38634-0.16849-0.93845-0.23023-1.2267-0.062-0.28847-0.16634-0.74275-0.23212-1.0096-0.0655-0.2669-0.18629-0.72199-0.26798-1.011-0.0817-0.28927-0.23428-0.78668-0.33942-1.1053-0.10488-0.31867-0.27391-0.80152-0.37555-1.073-0.10164-0.27121-0.25666-0.66536-0.34428-0.87619-0.0876-0.21056-0.25153-0.58637-0.36449-0.83521-0.11269-0.24884-0.29036-0.6225-0.39442-0.83037-0.10434-0.20813-0.29386-0.56858-0.42138-0.80123-0.12752-0.23293-0.34077-0.60523-0.47423-0.82765-0.13317-0.22242-0.39091-0.62871-0.57289-0.90315-0.1817-0.27445-0.49337-0.71715-0.69232-0.98403-0.19923-0.2669-0.48177-0.63084-0.62788-0.80879-0.14639-0.17793-0.39361-0.4691-0.54942-0.64703-0.15583-0.17794-0.5632-0.60335-0.90529-0.94548-0.34185-0.34239-0.77426-0.75541-0.96056-0.91852-0.18629-0.16284-0.48959-0.41788-0.67399-0.56645-0.18441-0.14855-0.51087-0.40089-0.72602-0.56023-0.21487-0.15961-0.56669-0.40844-0.78183-0.55321-0.21487-0.14451-0.59122-0.38391-0.83575-0.53192-0.24452-0.14801-0.57992-0.34347-0.74464-0.43459-0.16499-0.0911-0.54108-0.28577-0.83575-0.4327-0.29494-0.14693-0.69043-0.33538-0.87944-0.41869-0.18872-0.0833-0.52843-0.22565-0.75487-0.31597-0.22619-0.0906-0.60553-0.23427-0.84278-0.31947-0.23725-0.0849-0.58909-0.20435-0.78183-0.26555-0.19276-0.0609-0.54729-0.16607-0.78775-0.23374-0.24048-0.0677-0.63491-0.17119-0.87619-0.23023-0.24129-0.0588-0.44888-0.10703-0.46128-0.1073zm-12.922 0.18959c-0.0121 0.00082-0.24048 0.0663-0.50739 0.14612-0.2669 0.0795-0.69746 0.21675-0.95706 0.30492-0.25936 0.0881-0.65378 0.22996-0.87619 0.31515-0.22242 0.0852-0.63491 0.25315-0.91663 0.37339-0.28173 0.11997-0.79827 0.35992-1.1479 0.53299-0.34967 0.17308-0.78644 0.39685-0.97055 0.49686-0.18414 0.10029-0.547 0.30923-0.80666 0.46452-0.25935 0.15529-0.71632 0.44484-1.0153 0.64378-0.29898 0.1987-0.74169 0.50875-0.98403 0.68883-0.24237 0.1801-0.61493 0.46748-0.82819 0.63841-0.21325 0.17092-0.58448 0.48338-0.82498 0.69421-0.24048 0.21109-0.67128 0.61197-0.95761 0.89127-0.28631 0.2793-0.70904 0.71389-0.93927 0.96594-0.2305 0.25207-0.57153 0.64136-0.75759 0.86542-0.18629 0.22377-0.43728 0.53328-0.55752 0.68748-0.12051 0.1542-0.33403 0.43809-0.47449 0.63083-0.14073 0.19276-0.38929 0.55079-0.55296 0.79531-0.16338 0.24453-0.3893 0.59341-0.50147 0.77509-0.11242 0.18171-0.3157 0.52761-0.45158 0.76836-0.13587 0.24101-0.35991 0.6384-0.49768 0.88293-0.13804 0.24452-0.35345 0.64-0.47881 0.87832-0.12563 0.23859-0.30842 0.60499-0.40628 0.81446-0.0976 0.20921-0.24911 0.54807-0.33619 0.75245-0.0871 0.20462-0.23778 0.58424-0.33484 0.84385-0.0971 0.25935-0.23751 0.66589-0.31219 0.90315-0.0747 0.23724-0.17335 0.56154-0.21891 0.72063-0.0458 0.15907-0.13049 0.48664-0.18818 0.72792-0.0577 0.24129-0.13615 0.59636-0.17416 0.7891-0.0383 0.19276-0.0998 0.53837-0.13669 0.76835-0.0369 0.2297-0.0914 0.61794-0.12104 0.86271-0.0297 0.24452-0.0736 0.70556-0.0979 1.0245-0.0286 0.37609-0.0442 0.9158-0.0447 1.5367-0.00054 0.52625 0.0132 1.1755 0.0305 1.4423 0.0172 0.2669 0.0496 0.67317 0.0717 0.90315 0.0224 0.2297 0.0655 0.61794 0.0957 0.86271 0.0305 0.24453 0.10353 0.73601 0.16257 1.0919 0.059 0.35587 0.16823 0.932 0.24237 1.2806 0.0744 0.34831 0.16984 0.7729 0.21244 0.94358 0.0423 0.17039 0.14585 0.65567 0.22997 1.0784 0.0841 0.42246 0.15582 0.77131 0.15933 0.77509 0.003 0.003 1.0426-0.1995 2.3091-0.45103 1.2666-0.25154 2.5275-0.51306 2.8017-0.5807 0.27445-0.0679 0.62599-0.16015 0.78183-0.2049 0.15583-0.045 0.43594-0.1294 0.6225-0.18791 0.18656-0.0585 0.502-0.16526 0.70095-0.23724 0.19896-0.0722 0.51708-0.19331 0.7074-0.2696 0.19034-0.076 0.4753-0.19438 0.63355-0.26285 0.15826-0.0685 0.48474-0.21919 0.72549-0.33458 0.24102-0.11565 0.62303-0.3103 0.84923-0.43243 0.22619-0.1224 0.5632-0.313 0.74842-0.42326 0.18549-0.11054 0.56213-0.34913 0.83682-0.53032 0.27499-0.1809 0.63894-0.43028 0.80879-0.55404 0.17012-0.12374 0.42434-0.31596 0.56509-0.42704 0.141-0.11107 0.38498-0.30896 0.54244-0.43944l0.28658-0.23752-0.1596-0.41167c-0.0876-0.22646-0.25692-0.69693-0.37581-1.0452-0.1189-0.34859-0.28308-0.86407-0.3645-1.1458-0.0817-0.28172-0.20894-0.75487-0.28254-1.0514-0.0736-0.29656-0.1933-0.83658-0.26609-1.1997-0.0728-0.36342-0.16283-0.86082-0.20031-1.1054-0.0375-0.24479-0.0922-0.63893-0.12186-0.87619-0.0297-0.23724-0.0722-0.63166-0.0946-0.87619-0.0226-0.24452-0.0553-0.66322-0.0731-0.93011-0.0175-0.2669-0.0321-0.96463-0.0324-1.5502-0.00027-0.58584 0.0146-1.2892 0.0326-1.5637 0.0181-0.27445 0.051-0.69906 0.0731-0.94359 0.0221-0.24452 0.0704-0.68155 0.10702-0.97055 0.0369-0.28927 0.10892-0.77455 0.15988-1.0784 0.051-0.30411 0.13048-0.73466 0.17631-0.95707 0.0458-0.22242 0.14882-0.67128 0.22916-0.99751 0.0803-0.32621 0.20139-0.78721 0.26906-1.0245 0.0679-0.23724 0.23131-0.75298 0.36314-1.1458 0.1321-0.3928 0.33727-0.95949 0.45643-1.259 0.11916-0.29979 0.3095-0.75458 0.42327-1.011 0.1135-0.25666 0.34616-0.74542 0.51655-1.0865 0.17065-0.34104 0.40143-0.78396 0.51276-0.98402 0.11162-0.20032 0.31193-0.54594 0.44511-0.76836 0.13345-0.22241 0.34077-0.54995 0.46128-0.72791 0.12025-0.17766 0.29036-0.41437 0.37798-0.52571 0.0876-0.11107 0.26744-0.32648 0.39954-0.47854 0.1321-0.15205 0.2305-0.27579 0.2181-0.27498zm15.897 27.97-0.28415-0.22107-0.3157 0.63786-0.3157 0.63816 0.0647 0.1596c0.0356 0.0876 0.13372 0.35371 0.2181 0.59098 0.0844 0.23725 0.21972 0.65567 0.30114 0.93011 0.0812 0.27418 0.20678 0.74139 0.27903 1.038 0.0723 0.29656 0.16823 0.73329 0.21325 0.97055 0.045 0.23724 0.10595 0.58909 0.13534 0.78183 0.0294 0.19276 0.0776 0.56887 0.1073 0.83575 0.0297 0.2669 0.0685 0.68534 0.0863 0.93011 0.0175 0.24452 0.0318 0.85112 0.0315 1.348-0.00049 0.5872-0.0162 1.1035-0.0453 1.476-0.0245 0.31515-0.069 0.76995-0.0987 1.011-0.0299 0.24102-0.0903 0.65431-0.13452 0.91877-0.0442 0.26447-0.12887 0.70124-0.18818 0.97055-0.0593 0.26932-0.17012 0.71981-0.24614 1.0008l-0.13831 0.51064 0.10488 0.0906c0.0577 0.0499 0.27471 0.22754 0.4823 0.39496s0.49391 0.39038 0.63598 0.49527c0.14235 0.10514 0.45778 0.32378 0.70095 0.48556 0.24345 0.16176 0.61227 0.39523 0.81985 0.51868 0.20759 0.12348 0.64432 0.361 0.97055 0.52814 0.32621 0.16688 0.75084 0.37258 0.94359 0.4567 0.19276 0.0844 0.52033 0.21972 0.72791 0.30087 0.20759 0.0814 0.57153 0.21406 0.80879 0.29466 0.23724 0.0809 0.595 0.19385 0.79531 0.25127 0.20031 0.0577 1.1439 0.31327 2.0972 0.56829 0.95358 0.25504 1.7397 0.45751 1.7475 0.44969 0.008-0.008 0.23698-0.84574 0.50928-1.8618 0.27202-1.0164 0.53783-2.0336 0.59015-2.2606 0.0526-0.227 0.12537-0.57667 0.16176-0.77669 0.0367-0.20031 0.0917-0.54002 0.1224-0.75487 0.0307-0.21487 0.0739-0.56698 0.096-0.78183 0.0221-0.21487 0.0545-0.71041 0.0717-1.1008 0.0242-0.54458 0.0242-0.87134 0-1.4019-0.0175-0.38066-0.0499-0.86809-0.072-1.0829-0.0221-0.21514-0.0709-0.60334-0.10865-0.86271-0.0375-0.25962-0.11026-0.68156-0.16149-0.93792-0.0512-0.25611-0.14181-0.65891-0.20112-0.89505-0.0593-0.23589-0.16877-0.6303-0.24345-0.87619-0.0744-0.24587-0.19087-0.60145-0.25881-0.78993-0.0679-0.18845-0.13345-0.35317-0.14531-0.36611-0.0121-0.0127-0.25504-0.0636-0.53973-0.11296-0.28442-0.0491-0.70095-0.12725-0.92555-0.17335-0.2243-0.0464-0.65052-0.14532-0.94708-0.22026-0.29655-0.075-0.75138-0.20112-1.011-0.27984-0.25935-0.079-0.62952-0.19735-0.82227-0.26313-0.19276-0.0658-0.50035-0.17605-0.68369-0.24506-0.18332-0.0688-0.56562-0.22296-0.84923-0.34266-0.28388-0.11943-0.81931-0.36693-1.19-0.54972-0.3707-0.18306-0.81956-0.41437-0.99751-0.51412-0.17794-0.10002-0.47503-0.27256-0.66051-0.38364-0.18522-0.11107-0.54458-0.33807-0.79803-0.50466-0.25369-0.16661-0.61765-0.41518-0.80879-0.55268-0.19141-0.13722-0.47557-0.34913-0.63195-0.47071zm-18.385-0.0935c-0.008 0.00097-0.0865 0.062-0.17551 0.13614-0.089 0.0739-0.34751 0.27418-0.57449 0.4451-0.22673 0.17066-0.63326 0.45967-0.90315 0.6419-0.2696 0.18251-0.58744 0.39199-0.70609 0.46586-0.11862 0.0739-0.39388 0.23886-0.61173 0.36638-0.21757 0.12752-0.58963 0.33484-0.8263 0.46074-0.23697 0.12563-0.65028 0.33241-0.91876 0.45966-0.26852 0.12699-0.67346 0.30896-0.89966 0.40413-0.22646 0.0952-0.59311 0.2421-0.81524 0.32621-0.22188 0.0844-0.62196 0.22566-0.88885 0.31435-0.2669 0.0884-0.73925 0.23266-1.0498 0.32028-0.31058 0.0879-0.78372 0.20921-1.0514 0.26987-0.26771 0.0604-0.78266 0.16877-1.1444 0.24021-0.39253 0.0779-0.66672 0.14478-0.68073 0.16634-0.0129 0.0199-0.0852 0.22404-0.16041 0.454-0.0752 0.2297-0.196 0.63327-0.26825 0.89641-0.0725 0.26313-0.1747 0.67317-0.22754 0.91096-0.0526 0.23779-0.1321 0.64732-0.17631 0.90989-0.0442 0.26259-0.10434 0.6896-0.13345 0.94926-0.0291 0.25935-0.0658 0.64757-0.0817 0.86271-0.0159 0.21487-0.0288 0.76079-0.0288 1.2132-0.00027 0.45238 0.0127 0.99833 0.0283 1.2132s0.0407 0.51224 0.0558 0.66051c0.0148 0.14828 0.0515 0.44565 0.0814 0.66052 0.0299 0.21486 0.0852 0.56077 0.12294 0.76835 0.0377 0.20759 0.10542 0.54108 0.15017 0.74139 0.0448 0.20004 0.23239 0.92797 0.41679 1.6176 0.18441 0.68936 0.41599 1.555 0.51437 1.9233l0.17901 0.66944 0.0744-0.0148c0.0407-0.008 0.90883-0.23886 1.9292-0.51277 1.0202-0.27391 2.0311-0.55321 2.2465-0.6206 0.21567-0.0677 0.58555-0.19385 0.82227-0.28066 0.23697-0.0871 0.57721-0.21972 0.75647-0.29521 0.17928-0.0755 0.50011-0.21783 0.71307-0.3165 0.21298-0.0987 0.58206-0.28308 0.81985-0.40979 0.23805-0.12698 0.61469-0.33996 0.83711-0.47341 0.22241-0.13345 0.5853-0.3645 0.80636-0.5133 0.22134-0.14909 0.55481-0.38553 0.74139-0.52572 0.18684-0.14019 0.49444-0.38229 0.68398-0.53812 0.18953-0.15583 0.3494-0.29117 0.3556-0.30114 0.006-0.01-0.0191-0.12024-0.0561-0.24561-0.0369-0.12509-0.12643-0.46424-0.19896-0.75327-0.0725-0.289-0.17443-0.7441-0.22619-1.011-0.0518-0.2669-0.11862-0.64916-0.14882-0.84923-0.0299-0.20031-0.0728-0.52168-0.0954-0.71443-0.0224-0.19276-0.0531-0.49012-0.0679-0.66051-0.0151-0.17066-0.0399-0.62143-0.0553-1.0018-0.0194-0.47746-0.0194-0.91203-0.00027-1.4019 0.0154-0.39064 0.0464-0.91042 0.0687-1.155 0.0226-0.24479 0.0658-0.63059 0.0957-0.85757 0.0299-0.227 0.0908-0.62114 0.13534-0.87619 0.0445-0.25477 0.12994-0.68097 0.18979-0.94684 0.0599-0.26609 0.1747-0.71981 0.25504-1.0083 0.0806-0.28873 0.21217-0.7201 0.29251-0.95896 0.0806-0.23859 0.20085-0.57803 0.26771-0.7538l0.12132-0.31974-0.28793-0.57668c-0.15825-0.31704-0.29413-0.57585-0.30168-0.57502zm1.9921 3.4249-0.0971-0.141-0.0844 0.29144c-0.0466 0.16041-0.12105 0.43836-0.16526 0.61736-0.0445 0.17928-0.11161 0.46775-0.14909 0.64111-0.0375 0.17308-0.1038 0.52383-0.1472 0.77941s-0.10326 0.67671-0.13318 0.93632c-0.0299 0.25935-0.0666 0.65968-0.0814 0.88967-0.0151 0.22969-0.0348 0.62409-0.0439 0.87618-0.009 0.25208-0.003 0.75541 0.0135 1.1188 0.0167 0.36315 0.0482 0.84249 0.0701 1.0649 0.0218 0.22242 0.058 0.53784 0.0801 0.70095s0.0706 0.47638 0.10811 0.69581c0.0375 0.21972 0.0987 0.54109 0.13588 0.71443 0.0375 0.17335 0.11026 0.48231 0.16148 0.68641 0.0515 0.20408 0.15394 0.57207 0.22808 0.81795 0.0741 0.2456 0.21487 0.66697 0.31246 0.93632 0.0979 0.26933 0.26825 0.70066 0.37852 0.95896 0.11053 0.258 0.33295 0.73116 0.49443 1.0514 0.16122 0.32001 0.39254 0.75191 0.51384 0.95949 0.12132 0.20759 0.36854 0.60175 0.54971 0.87619 0.18091 0.27418 0.45724 0.67021 0.61416 0.87968 0.15691 0.20948 0.4381 0.56344 0.62468 0.78639 0.18683 0.22323 0.52033 0.59767 0.74139 0.8325 0.22107 0.23455 0.9673 0.99048 1.6583 1.6801l1.256 1.2533 1.4035-1.4016c0.77184-0.77107 1.5472-1.5596 1.7227-1.7524 0.17578-0.19277 0.43081-0.48393 0.56722-0.64704 0.13642-0.1631 0.39173-0.48799 0.56775-0.7217 0.17605-0.23401 0.45832-0.63438 0.62735-0.88967 0.16931-0.25558 0.4106-0.64058 0.53595-0.85544 0.12562-0.21487 0.32054-0.56698 0.43324-0.78183 0.11269-0.21487 0.28873-0.57343 0.39145-0.79638 0.10245-0.22296 0.26879-0.6112 0.36962-0.86271 0.10083-0.25153 0.25504-0.66967 0.34265-0.92904 0.0879-0.25962 0.21865-0.6802 0.29117-0.93496 0.0723-0.25477 0.17497-0.65779 0.22808-0.89558 0.0531-0.23778 0.12078-0.5632 0.15016-0.72306 0.0294-0.15988 0.0768-0.44241 0.10542-0.62764 0.0286-0.18548 0.0706-0.50685 0.0933-0.71443 0.0226-0.20759 0.0531-0.54133 0.0679-0.74139 0.0146-0.20032 0.0345-0.6128 0.0442-0.91663 0.0102-0.31597 0.004-0.82984-0.0135-1.1997-0.0173-0.35587-0.0491-0.82309-0.0709-1.038-0.0218-0.21514-0.0647-0.56697-0.0949-0.78183-0.0304-0.21514-0.0852-0.5548-0.12185-0.75487-0.037-0.20031-0.10919-0.55374-0.16069-0.78585-0.0515-0.23213-0.14746-0.61251-0.21325-0.84545-0.0655-0.23293-0.1232-0.42731-0.12806-0.43216-0.005-0.005-0.14477 0.18143-0.31111 0.41383-0.16634 0.23266-0.45616 0.61711-0.64407 0.85437-0.18818 0.23724-0.49473 0.60713-0.68127 0.82174-0.18683 0.21486-0.59015 0.65159-0.89641 0.97054-0.30653 0.31921-1.4682 1.4901-2.5819 2.6022l-2.0247 2.022-2.5021-2.5072c-1.4143-1.4173-2.6652-2.6949-2.878-2.9386-0.20678-0.23725-0.49822-0.58313-0.64757-0.76835-0.14908-0.18549-0.41571-0.53217-0.59258-0.77049-0.17658-0.23859-0.36476-0.49715-0.41814-0.57478zm15.364 13.154c-0.0119 0-0.0216 0.0111-0.0216 0.0245 0 0.0135-0.0871 0.2208-0.19357 0.46074l-0.19384 0.43594 0.0434 0.11242c0.0237 0.0617 0.12348 0.32352 0.22161 0.58177 0.0981 0.25827 0.24479 0.68019 0.32594 0.93738 0.0809 0.2572 0.20759 0.70095 0.2812 0.98616 0.0736 0.28523 0.18251 0.76108 0.24155 1.0576 0.0593 0.29656 0.13804 0.75138 0.17524 1.011 0.0372 0.25935 0.086 0.65969 0.10838 0.88967 0.0226 0.2297 0.0531 0.63006 0.0677 0.88967 0.0148 0.25935 0.0272 0.73005 0.0275 1.0458 0 0.3157-0.0124 0.78265-0.0275 1.0379-0.0154 0.25504-0.0461 0.65189-0.0682 0.88187-0.0221 0.22969-0.0644 0.58773-0.0941 0.79531-0.0297 0.20759-0.0847 0.54729-0.12213 0.75487-0.0375 0.20759-0.11026 0.56533-0.16148 0.79531-0.0512 0.22969-0.14181 0.59689-0.20139 0.81582-0.0596 0.21891-0.16068 0.56455-0.22431 0.76835-0.0639 0.20381-0.18602 0.56237-0.27175 0.79691l-0.1561 0.4265 0.079 0.0992c0.0434 0.0545 0.42246 0.53327 0.84249 1.0641 0.42004 0.53056 0.77374 0.96138 0.78615 0.95707 0.0127-0.004 0.50035-0.3866 1.0841-0.84977 0.58395-0.46316 1.2-0.96002 1.369-1.1045 0.16903-0.1445 0.502-0.45724 0.7395-0.69474 0.23778-0.23779 0.56533-0.58798 0.72791-0.77859 0.16283-0.1906 0.42947-0.52464 0.59311-0.74221 0.16365-0.21784 0.41356-0.5775 0.55539-0.79934 0.14208-0.22188 0.35317-0.57342 0.4691-0.781 0.11566-0.20759 0.28254-0.52921 0.3707-0.71443 0.0879-0.18549 0.23859-0.52518 0.33456-0.75488 0.096-0.22996 0.251-0.64839 0.34455-0.9301 0.0936-0.28173 0.22565-0.73684 0.29386-1.011 0.0679-0.27445 0.15475-0.66861 0.19249-0.87619 0.038-0.20759 0.0922-0.55942 0.12078-0.78183 0.0283-0.22242 0.065-0.58638 0.0811-0.80879 0.0164-0.22242 0.0261-0.72602 0.0216-1.1188l-0.008-0.71443-0.14828-0.0453c-0.0814-0.0248-0.46667-0.13102-0.85597-0.2359-0.38903-0.10514-0.8743-0.24452-1.0784-0.3103-0.20381-0.0655-0.49793-0.16338-0.65377-0.21757-0.15555-0.0542-0.48339-0.17793-0.72791-0.27499-0.24452-0.0973-0.69339-0.29116-0.99751-0.43081-0.30383-0.13965-0.75889-0.36423-1.011-0.49875-0.25207-0.1348-0.66943-0.37178-0.92768-0.52654-0.258-0.15502-0.61576-0.37987-0.79531-0.49982-0.17928-0.11997-0.47341-0.32513-0.65348-0.45562-0.18036-0.13048-0.45265-0.33457-0.60524-0.45346-0.15286-0.11889-0.28739-0.21622-0.29925-0.21622zm-16.595 0.12887-0.0469-0.10057-0.24264 0.19088c-0.13345 0.10487-0.39415 0.30087-0.57963 0.43594-0.18522 0.1348-0.54322 0.38094-0.79531 0.54676-0.25208 0.1658-0.65838 0.41814-0.90315 0.56101-0.24453 0.14288-0.69339 0.38579-0.99751 0.54002-0.30384 0.15421-0.72845 0.35883-0.94359 0.45481-0.21487 0.0962-0.59714 0.25638-0.84923 0.35613-0.25207 0.0998-0.70958 0.26475-1.0164 0.36666-0.30707 0.10191-0.93656 0.28847-1.399 0.4141-0.46236 0.1259-0.84816 0.23616-0.85733 0.24533-0.009 0.009-0.0156 0.43702-0.0148 0.95116 0.001 0.69557 0.0132 1.0412 0.048 1.3523 0.0253 0.22969 0.0771 0.60576 0.11485 0.83575 0.0377 0.22969 0.1046 0.58152 0.14855 0.78183 0.0442 0.20004 0.12266 0.51844 0.17442 0.7074 0.052 0.18899 0.15907 0.53488 0.23806 0.76835 0.0787 0.23374 0.18602 0.53463 0.23832 0.66885 0.052 0.13399 0.1809 0.43405 0.28631 0.66672 0.10514 0.23239 0.28443 0.59583 0.3982 0.80743 0.11376 0.21164 0.31138 0.55457 0.4389 0.76215 0.12779 0.20759 0.34859 0.54132 0.49095 0.74139 0.14235 0.20004 0.37636 0.50952 0.52004 0.68718 0.14396 0.17793 0.40951 0.48581 0.59015 0.68422 0.1809 0.19843 0.48664 0.50792 0.67991 0.68747 0.1933 0.17982 0.4602 0.41896 0.59311 0.53139 0.13292 0.11215 0.71094 0.57639 1.2844 1.0312 0.57343 0.45481 1.0487 0.82683 1.056 0.82683 0.007 0 0.33969-0.40952 0.73867-0.90989 0.399-0.50036 0.75298-0.94791 0.78668-0.99402l0.0612-0.0844-0.14801-0.40089c-0.0811-0.22081-0.20894-0.58933-0.28388-0.81903-0.0747-0.22996-0.18036-0.5756-0.23455-0.76835-0.0542-0.19276-0.14505-0.55054-0.20193-0.79531-0.0571-0.24479-0.14046-0.6449-0.18521-0.88967-0.0448-0.24479-0.10568-0.61469-0.1348-0.82227-0.0294-0.20759-0.072-0.56562-0.0949-0.79531-0.0229-0.22996-0.0542-0.63462-0.0693-0.89936-0.0151-0.26475-0.0275-0.72763-0.0275-1.0283 0-0.3006 0.0124-0.7635 0.0275-1.0282 0.0151-0.26474 0.0461-0.66967 0.0687-0.89936 0.0226-0.22997 0.0717-0.62924 0.10919-0.88754 0.0372-0.25854 0.10407-0.65891 0.14882-0.88967 0.0445-0.23104 0.12887-0.62007 0.18764-0.8646 0.0588-0.24426 0.17389-0.67452 0.25612-0.95571 0.0822-0.28119 0.21675-0.70013 0.29844-0.93064 0.082-0.23024 0.20247-0.55185 0.26771-0.71443 0.0652-0.1623 0.11862-0.31139 0.11862-0.33107 0-0.0197-0.0669-0.18413-0.14855-0.36503-0.0817-0.18117-0.16957-0.37474-0.19546-0.42974zm1.5995 3.0524c-0.005 0-0.0515 0.14855-0.10461 0.33026-0.0531 0.18171-0.13264 0.47584-0.17685 0.65377-0.0445 0.17794-0.11108 0.4691-0.14828 0.64704-0.0372 0.17793-0.0922 0.46909-0.1224 0.64703-0.0302 0.17793-0.0733 0.45696-0.096 0.62007-0.0224 0.16311-0.0596 0.48447-0.0828 0.71443-0.0232 0.2297-0.0493 0.81204-0.058 1.2941-0.01 0.55592-0.004 1.0585 0.0162 1.3749 0.0175 0.27418 0.0555 0.70498 0.0847 0.95707 0.0291 0.25207 0.0836 0.64621 0.12105 0.87619 0.0375 0.2297 0.11728 0.64136 0.1774 0.91474 0.0601 0.2731 0.15717 0.66749 0.21567 0.87619 0.0585 0.20866 0.17362 0.58555 0.25612 0.83764 0.0822 0.25207 0.23887 0.68345 0.34778 0.95843 0.10892 0.27526 0.29063 0.69823 0.40386 0.94034 0.11296 0.24182 0.29763 0.61115 0.41006 0.82067 0.11242 0.20947 0.31354 0.5629 0.44645 0.78532 0.13318 0.22242 0.35776 0.57425 0.49929 0.78183 0.14127 0.20759 0.34832 0.49875 0.45993 0.64703s0.3006 0.39092 0.42004 0.53919c0.11916 0.14828 0.36179 0.43325 0.5389 0.63356 0.17712 0.20004 0.93821 0.98267 1.6914 1.7389l1.3693 1.3749 1.1886-1.1862c0.65353-0.65241 1.3687-1.3803 1.5893-1.6176 0.22053-0.23724 0.51253-0.56479 0.64839-0.72791 0.13615-0.1631 0.39119-0.48687 0.56669-0.71981 0.17524-0.23266 0.41491-0.56615 0.53216-0.74139 0.11728-0.17497 0.32244-0.50011 0.45616-0.72253 0.13345-0.22242 0.33026-0.56562 0.43728-0.76244 0.10677-0.19707 0.29144-0.56668 0.41006-0.82173 0.11863-0.25504 0.30546-0.68908 0.41491-0.96464 0.10973-0.2758 0.2669-0.70556 0.34967-0.95518 0.0825-0.24991 0.20974-0.67641 0.28227-0.94814 0.0728-0.27149 0.1747-0.69717 0.22619-0.94602 0.0518-0.24856 0.12482-0.65241 0.16229-0.89694 0.0375-0.24479 0.0863-0.60872 0.10865-0.80879 0.0221-0.20031 0.0547-0.58855 0.072-0.86271 0.0202-0.31597 0.0261-0.82014 0.0162-1.3749-0.009-0.48204-0.0345-1.0644-0.0574-1.2941-0.0229-0.22996-0.0728-0.6303-0.11054-0.88967-0.0377-0.25962-0.1108-0.68422-0.16256-0.94359-0.0518-0.25962-0.14747-0.67801-0.21272-0.9301-0.0652-0.25208-0.14719-0.5489-0.18198-0.65969l-0.0636-0.20139-0.29278 0.43054c-0.16095 0.23671-0.44457 0.6306-0.63031 0.87537-0.18547 0.24452-0.42865 0.55403-0.54055 0.68747-0.11188 0.13345-0.34265 0.40035-0.51306 0.59311-0.17011 0.19277-1.296 1.3391-2.5019 2.5477l-2.1927 2.1972-2.205-2.2107c-1.2126-1.2159-2.3743-2.4048-2.5814-2.642-0.20678-0.23725-0.49255-0.57692-0.63462-0.75488-0.14208-0.17793-0.36153-0.46316-0.4877-0.63355-0.12617-0.17065-0.34724-0.48285-0.49148-0.69421-0.14423-0.21136-0.26555-0.38418-0.26987-0.38418z"/>
 </g>

</svg>