<?xml version="1.0" encoding="utf-8"?>
<!-- Generator: Adobe Illustrator 21.1.0, SVG Export Plug-In . SVG Version: 6.00 Build 0)  -->
<svg xmlns="http://www.w3.org/2000/svg" xmlns:xlink="http://www.w3.org/1999/xlink" version="1.1" id="Layer_1" x="0px" y="0px" viewBox="0 0 200 200" enable-background="new 0 0 200 200" xml:space="preserve">
<path fill="#040404" d="M196.9,106.3l-0.1-0.1c-3.2-3.9-7.9-6.2-12.9-6.2c-1.3,0-2.6,0.2-3.9,0.5c1-2,1.9-4.1,2.8-6.2  c3.2-3,5.1-7,5.5-11.4c0.3-4.6-1.1-9-4-12.5l-0.1-0.1c-0.9-1-2.3-1.1-3.3-0.2l-0.1,0.1c-3.4,3-5.5,7.2-5.8,11.8  c-0.3,4.1,0.8,8.2,3.2,11.5c-3.5,8.8-8.8,16.2-15,22c1.4-5.4,2.2-11.2,2.2-17.1c0-0.1,0-0.2,0-0.4c3.9-8.2,5.4-17.3,4.4-26.5  c8.3-1.4,14.5-9,14.1-17.8v-0.1c-0.1-1.3-1.1-2.3-2.5-2.3h-0.2c-6.1,0.3-11.2,3.8-14,8.9c-0.3-1.1-0.7-2.1-1.1-3.2  c-0.9-2.3-2-4.5-3.2-6.7c7.6-2.9,12.2-11,10.7-19.3l0-0.1c-0.2-1.3-1.5-2.2-2.8-1.9l-0.1,0c-4.4,0.8-8.3,3.4-10.8,7.2  c-1.2,1.8-2,3.7-2.5,5.8c-2.2-2.8-4.6-5.4-7.3-7.9c6-5.7,7.1-15.2,2.3-22.3l-0.1-0.1c-0.3-0.5-0.9-0.9-1.5-1c-0.6-0.1-1.3,0-1.8,0.4  l-0.1,0.1c-3.7,2.6-6.2,6.5-7,11.1c-0.3,1.8-0.4,3.7-0.1,5.5c-1.9-1.2-3.8-2.4-5.8-3.4c-3.2-4.3-8.2-6.9-13.5-6.9  c-3.5,0-6.9,1.1-9.7,3.2l-0.1,0.1c-1.1,0.8-1.3,2.3-0.6,3.4L112,24c3.1,4.6,8.3,7.3,13.8,7.3c3.1,0,6-0.8,8.6-2.4  c2.5,1.4,4.9,2.9,7.2,4.5c-4.1,0.9-7.6,3.3-9.9,6.7c-9.4-5.3-20.2-8.4-31.6-8.4s-22.3,3-31.6,8.4c-2.4-3.4-5.9-5.8-9.9-6.7  c2.3-1.7,4.7-3.2,7.2-4.5c2.6,1.6,5.6,2.4,8.6,2.4l0,0c5.5,0,10.6-2.7,13.8-7.3l0.1-0.1c0.7-1.1,0.5-2.6-0.6-3.4l-0.1-0.1  c-2.9-2.1-6.2-3.2-9.7-3.2c-5.3,0-10.3,2.6-13.5,6.9c-2,1.1-3.9,2.2-5.8,3.4c0.2-1.8,0.2-3.6-0.1-5.5c-0.8-4.5-3.3-8.5-7-11.1  l-0.1-0.1c-0.5-0.4-1.1-0.5-1.8-0.4c-0.6,0.1-1.2,0.5-1.5,1l-0.1,0.1c-2.6,3.8-3.5,8.4-2.7,12.9c0.7,3.7,2.4,6.9,5,9.4  c-2.7,2.4-5.1,5.1-7.3,7.9c-0.5-2.1-1.3-4-2.5-5.8c-2.5-3.8-6.4-6.3-10.8-7.2l-0.1,0c-1.3-0.2-2.5,0.6-2.8,1.9l0,0.1  c-0.8,4.5,0.1,9.1,2.7,12.9c2,3,4.8,5.2,8.1,6.4c-1.8,3.2-3.2,6.5-4.3,9.9c-0.6-1.2-1.4-2.3-2.3-3.3c-3-3.4-7.2-5.4-11.7-5.6h-0.1  c-1.3-0.1-2.4,1-2.5,2.3v0.1c-0.4,8.8,5.8,16.4,14.1,17.8c-1,9,0.3,18.1,4.3,26.5c0,0.1,0,0.2,0,0.4c0,5.9,0.8,11.7,2.2,17.1  c-6.4-6-11.5-13.5-15-22.1c5.1-7.2,4.1-17.3-2.6-23.2L19.2,70c-0.5-0.4-1.1-0.6-1.7-0.6c-0.6,0.1-1.2,0.4-1.6,0.8l-0.1,0.1  c-2.9,3.5-4.4,7.9-4,12.5c0.3,4.4,2.3,8.5,5.5,11.4c0.8,2.2,1.8,4.2,2.8,6.2c-1.3-0.3-2.6-0.5-3.9-0.5c-5,0-9.7,2.2-12.9,6.2  l-0.1,0.1c-0.4,0.5-0.6,1.1-0.6,1.8s0.3,1.2,0.9,1.6l0.1,0.1c3,2.6,6.9,4,10.8,4l0,0c4.1,0,8.1-1.6,11.1-4.3  c4,5.6,8.9,10.5,14.3,14.4c1.5,3.6,3.3,7.1,5.3,10.3c-2.7,3.5-3.9,8-3.4,12.5c-2.3-1.6-4.5-3.4-6.6-5.4c0.8-4,0.2-8.2-1.8-11.8  c-2.2-4-5.8-6.9-10.1-8.2l-0.1,0c-1.3-0.4-2.6,0.4-2.9,1.7l0,0.1c-1.2,4.4-0.7,9.1,1.5,13.1c2.1,3.9,5.5,6.7,9.7,8  c1.7,1.6,3.4,3.1,5.1,4.5c-6.1,1.3-11.2,6-12.9,12.4l0,0.1c-0.3,1.3,0.4,2.6,1.7,3l0.1,0c1.4,0.4,2.9,0.6,4.4,0.6l0,0  c6.7,0,12.8-4.1,15.4-10.3c3.2,1.8,6.5,3.2,9.8,4.4c-5.5,3.6-8.7,10.2-7.6,17.2l0,0.1c0.2,1.2,1.2,2,2.3,2c0.1,0,0.2,0,0.4,0l0.1,0  c4.5-0.7,8.4-3.2,11-6.9c2.1-2.9,3.2-6.4,3.3-9.9c3.3,0.6,6.6,0.9,9.9,0.9c0.2,0,0.5,0,0.7,0c-0.9,1-1.7,2.1-2.3,3.3  c-2.1,4.1-2.6,8.7-1.3,13.1l0.1,0.1c0.3,1,1.3,1.7,2.3,1.7c0.2,0,0.5,0,0.7-0.1l0.1-0.1c4.3-1.3,7.9-4.3,10-8.4  c1.4-2.7,2.1-5.7,2-8.7c3.3,0.7,6.7,1.2,10.2,1.4l-2.3,3.3c-4.4,6.3-4.4,16.2,0,22.6c0.7,1.1,2.2,1.4,3.3,0.6  c1.1-0.8,1.3-2.3,0.6-3.4c-3.2-4.6-3.2-12.4,0-17l1.5-2.3l1.5,2.3c3.2,4.6,3.2,12.4,0,17c-0.7,1.1-0.5,2.6,0.6,3.4  c0.4,0.3,0.9,0.4,1.4,0.4c0.7,0,1.5-0.4,1.9-1c4.4-6.3,4.4-16.2,0-22.6l-2.3-3.3c3.6-0.2,7.1-0.6,10.5-1.4c-0.1,3,0.6,6,2,8.7  c2.1,4.1,5.7,7,10,8.4l0.1,0.1c0.2,0.1,0.5,0.1,0.7,0.1c1,0,2-0.7,2.3-1.7l0.1-0.1c1.8-5.9,0.2-12.1-3.6-16.4c0.2,0,0.5,0,0.7,0  c3.3,0,6.6-0.3,9.9-0.9c0.1,3.5,1.1,7,3.3,9.9c2.7,3.7,6.6,6.2,11,6.9l0.1,0c0.1,0,0.2,0,0.4,0c0.5,0,1-0.2,1.4-0.5  c0.5-0.4,0.9-1,0.9-1.6l0-0.2c1.1-6.9-2.1-13.6-7.6-17.2c3.3-1.2,6.6-2.6,9.8-4.4c2.7,6.2,8.7,10.3,15.4,10.3c1.5,0,3-0.2,4.4-0.6  l0.1,0c1.3-0.4,2-1.7,1.7-3l0-0.1c-1.7-6.4-6.7-11.1-12.9-12.4c1.8-1.4,3.5-2.9,5.1-4.5c4.1-1.3,7.5-4.1,9.7-8  c2.2-4,2.7-8.7,1.5-13.1l0-0.1c-0.3-1.3-1.7-2-2.9-1.7l-0.1,0.1c-4.3,1.3-7.9,4.1-10.1,8.2c-2,3.6-2.6,7.8-1.8,11.8  c-2.1,2-4.3,3.8-6.6,5.4c0.2-2.2,0.1-4.4-0.5-6.6c-0.6-2.2-1.6-4.1-2.9-5.9c2.1-3.3,3.9-6.7,5.3-10.4c5.3-3.8,10.2-8.7,14.3-14.3  c3.1,2.7,7,4.3,11.1,4.3c3.9,0,7.8-1.4,10.8-4l0.1-0.1c0.5-0.4,0.8-1,0.8-1.6C197.5,107.5,197.3,106.8,196.9,106.3z M178.9,56.4  c-0.7,4.8-4.3,8.8-9,10C170.7,61.6,174.2,57.7,178.9,56.4z M125.8,26.4c-3.1,0-6.1-1.2-8.3-3.3c1.5-0.7,3.1-1,4.8-1  c3.1,0,6.1,1.2,8.3,3.3C129.1,26.1,127.5,26.4,125.8,26.4z M77.7,22.1c1.7,0,3.3,0.4,4.8,1c-2.2,2.1-5.2,3.3-8.3,3.3  c-1.7,0-3.3-0.4-4.8-1C71.7,23.3,74.6,22.1,77.7,22.1z M21.2,56.4c2.3,0.6,4.3,1.9,5.9,3.7c1.6,1.8,2.6,4,3,6.4  C25.5,65.2,21.9,61.3,21.2,56.4z M19,89.1c-1.4-1.9-2.3-4.2-2.5-6.6c-0.2-2.4,0.3-4.8,1.5-6.9C20.9,79.5,21.3,84.8,19,89.1z   M14.4,109c-2,0-4-0.5-5.7-1.5c2.1-1.7,4.7-2.7,7.5-2.7c2,0,4,0.5,5.7,1.5C19.8,108.1,17.1,109,14.4,109z M30.8,138.9  c-2.1-1.1-3.8-2.8-5-5c-1.2-2.2-1.7-4.5-1.5-6.9c2.1,1.1,3.8,2.8,5,5C30.4,134.1,30.9,136.5,30.8,138.9z M29.7,160  c-0.2,0-0.5,0-0.7,0c2.1-4.3,6.7-7.1,11.5-6.8C38.5,157.4,34.3,160,29.7,160z M170.8,132c1.2-2.2,2.9-3.8,5-5  c0.2,2.4-0.3,4.8-1.5,6.9c-1.2,2.2-2.9,3.8-5,4.9C169.1,136.5,169.7,134.1,170.8,132z M171.1,160c-0.2,0-0.5,0-0.7,0  c-4.6,0-8.8-2.7-10.8-6.8C164.4,153,168.9,155.7,171.1,160z M164.2,86.4c-0.6-3.6-1.5-7-2.7-10.3c1.3-0.6,2.5-1.3,3.6-2.2  C165.4,78.1,165.1,82.3,164.2,86.4z M158.3,68.3C158.3,68.3,158.3,68.3,158.3,68.3c1.7,0,3.2,0.3,4.7,1c-0.9,0.9-2,1.7-3.2,2.3  C159.3,70.5,158.8,69.4,158.3,68.3z M169.1,34.4c-0.1,4.9-3.1,9.3-7.5,11.2C161.7,40.6,164.6,36.2,169.1,34.4z M146.4,22.9  c0.4-2.4,1.5-4.6,3.1-6.3c1.9,4.5,0.9,9.8-2.4,13.4C146.3,27.8,146,25.4,146.4,22.9z M149.2,39.9c5.4,5.5,9.6,11.8,12.4,18.8  c0.7,1.9,1.4,3.7,1.9,5.6c-1.7-0.5-3.4-0.8-5.1-0.8c-0.9,0-1.7,0.1-2.6,0.2c-3.6-6-8-11.3-13.2-15.9C145.5,46,147.8,43.3,149.2,39.9  z M145,37.8c-1.2,3.1-3.5,5.5-6.5,6.8c-0.9-0.7-1.8-1.3-2.8-2C137.9,39.7,141.3,37.9,145,37.8z M160.5,98.3  c0,34-27.1,61.8-60.5,61.8s-60.5-27.7-60.5-61.8S66.7,36.6,100,36.6S160.5,64.3,160.5,98.3z M40.3,71.6c-1.2-0.6-2.3-1.3-3.2-2.3  c1.5-0.6,3-1,4.6-1c0,0,0,0,0.1,0C41.3,69.4,40.8,70.5,40.3,71.6z M64.3,42.6c-0.9,0.6-1.9,1.3-2.8,2c-2.9-1.3-5.3-3.7-6.5-6.8  C58.8,37.9,62.2,39.7,64.3,42.6z M49.7,23.7c-0.4-2.4-0.2-4.8,0.7-7c1.6,1.7,2.7,3.9,3.2,6.3c0.4,2.4,0.2,4.8-0.7,7  C51.3,28.3,50.2,26.1,49.7,23.7z M33.1,41.1c-1.4-2-2.1-4.4-2.1-6.8c2.2,0.9,4.1,2.4,5.4,4.5c1.4,2,2.1,4.4,2.1,6.8  C36.3,44.7,34.4,43.1,33.1,41.1z M50.9,39.9c1.4,3.3,3.7,6.1,6.6,7.9c-5.2,4.5-9.6,9.9-13.2,15.9c-0.9-0.1-1.7-0.2-2.6-0.2  c-1.8,0-3.5,0.3-5.1,0.8C39,55.5,43.9,47,50.9,39.9z M35,73.8c1.1,0.9,2.3,1.6,3.6,2.2c-1.2,3.3-2.1,6.8-2.7,10.3  C35,82.3,34.7,78,35,73.8z M47,148.5c-1-3.4-0.6-7,1.1-10c0.9,1.2,1.8,2.3,2.7,3.4C50.2,144.5,48.9,146.8,47,148.5z M57.4,168.6  c-1.4,2-3.3,3.5-5.5,4.3c0.2-4.9,3.3-9.3,7.8-11C59.6,164.3,58.8,166.6,57.4,168.6z M75.5,175c-0.2-2.4,0.3-4.8,1.4-6.9  c1.1-2.2,2.8-3.9,4.9-5C82.2,167.9,79.7,172.6,75.5,175z M50.4,151.9c1.8-1.7,3.2-3.7,4.1-5.9c4.5,4.5,9.7,8.4,15.4,11.4  C63.4,156.8,56.7,155,50.4,151.9z M124.6,175c-2.1-1.1-3.8-2.9-4.9-5c-1.1-2.2-1.6-4.5-1.4-6.9C122.5,165.3,125,170.1,124.6,175z   M148.2,172.9c-2.2-0.8-4.1-2.3-5.5-4.3c-1.4-2-2.2-4.3-2.3-6.7C144.9,163.6,148,168,148.2,172.9z M130.2,157.4  c5.7-3,10.9-6.9,15.4-11.4c0.9,2.2,2.3,4.3,4.1,5.9C143.4,155,136.7,156.8,130.2,157.4z M153.2,141.4c0.6,2.4,0.6,4.8-0.1,7.1  c-2-1.7-3.3-4.1-3.8-6.6c1-1.1,1.9-2.3,2.7-3.4C152.5,139.4,152.9,140.4,153.2,141.4z M179.6,82.2c0.2-2.4,1-4.7,2.5-6.6  c1.1,2.1,1.7,4.5,1.5,6.9c-0.2,2.4-1,4.7-2.5,6.6C179.9,87,179.4,84.7,179.6,82.2z M185.7,109c-2.8,0-5.4-1-7.5-2.7  c1.8-1,3.7-1.5,5.7-1.5c2.8,0,5.4,1,7.5,2.7C189.7,108.5,187.7,109,185.7,109z"/>
<g transform="translate(30 30) scale(0.7)">
  
  <defs id="defs285458"/>
  <linearGradient id="3d_gradient2-logo-AB01AE2D2735437986BDF38AA15DFFAE" x1="30%" y1="120%" x2="-10%" y2="30%" spreadMethod="pad">
    <stop offset="0%" stop-color="#ffffff" stop-opacity="1" id="stop285435"/>
    <stop offset="100%" stop-color="#000000" stop-opacity="1" id="stop285437"/>
  </linearGradient>
  <linearGradient id="3d_gradient3-logo-AB01AE2D2735437986BDF38AA15DFFAE" x1="30%" y1="120%" x2="-10%" y2="30%" spreadMethod="pad" gradientTransform="rotate(-30)">
    <stop offset="0%" stop-color="#ffffff" stop-opacity="1" id="stop285440"/>
    <stop offset="50%" stop-color="#cccccc" stop-opacity="1" id="stop285442"/>
    <stop offset="100%" stop-color="#000000" stop-opacity="1" id="stop285444"/>
  </linearGradient>
  <path id="path285493" style="font-style:oblique;font-weight:normal;font-size:72px;line-height:1;font-family:Molle;font-variant-ligatures:none;text-align:center;text-anchor:middle;fill:#000000;stroke:#000000;stroke-width:0;stroke-linejoin:miter;stroke-miterlimit:2" d="m 133.39678,98.161624 q 14.77272,7.616156 11.88384,21.994926 -2.56061,12.86866 -14.37877,21.33835 -15.69191,11.29291 -38.9343,11.29291 -17.267647,0 -30.661578,-6.56564 -13.131296,-6.43434 -18.383815,-17.92422 -3.742407,-8.33837 -2.691904,-13.65655 0.393925,-2.03535 5.909079,-3.47979 3.873734,7.48484 16.348452,12.80301 5.252518,-5.51514 14.313126,-15.6919 9.06059,-10.176752 14.116137,-15.82321 5.12121,-5.712114 10.111093,-10.964633 11.03029,-11.621196 18.64645,-17.595937 2.36362,-1.969693 6.04039,-0.131308 0.91919,0.459596 1.51011,1.050504 -6.56566,5.515144 -19.10604,21.929263 5.71211,1.444444 10.2424,1.444444 4.5303,0 9.19192,-0.984848 4.72726,-1.050504 8.79797,-3.020197 9.32321,-4.398985 10.63635,-10.833321 2.49495,-12.540386 -15.69192,-17.267653 -7.09089,-1.904039 -14.57572,-1.904039 -7.41919,0 -14.1818,1.050504 -6.762629,0.984848 -12.343427,3.151511 -12.212101,4.792924 -13.984828,13.590892 -1.510092,7.419182 3.020203,12.474732 -7.287881,6.368678 -10.833317,6.368678 -4.070707,0 -6.696966,-4.398985 -2.691922,-4.530296 -1.641419,-9.914129 1.050504,-5.38383 4.13637,-9.454533 3.085848,-4.070701 7.616142,-7.222212 4.530295,-3.217167 10.045449,-5.5808 5.580798,-2.363633 11.621185,-3.939389 11.686868,-3.085855 20.550488,-3.085855 8.86362,0 14.64139,0.787878 5.84343,0.722222 10.89898,2.297977 5.05554,1.575756 9.19191,3.939389 4.13635,2.363633 6.89392,5.5808 5.77777,6.828274 3.87374,16.348463 -1.5101,7.616152 -9.12626,13.656548 -6.82827,5.580801 -17.00503,8.338374 z M 76.80091,128.3636 q 7.353526,1.5101 12.080793,1.5101 4.727266,0 8.075749,-0.19697 3.348468,-0.26262 7.353528,-1.31313 4.07069,-1.0505 7.2222,-2.95454 6.82827,-4.0707 8.27272,-11.1616 1.37878,-6.89393 -4.79293,-11.29291 -5.5808,-4.005048 -15.691894,-4.398988 -3.020203,4.070698 -5.974742,8.141408 -2.954539,4.0707 -5.843415,7.94443 -6.106069,8.1414 -10.702009,13.7222 z" stroke-miterlimit="2"/>
</g></svg>
