<?xml version="1.0" encoding="utf-8"?>
<!-- Generator: Adobe Illustrator 21.1.0, SVG Export Plug-In . SVG Version: 6.00 Build 0)  -->
<svg xmlns="http://www.w3.org/2000/svg" xmlns:xlink="http://www.w3.org/1999/xlink" version="1.1" id="Layer_1" x="0px" y="0px" viewBox="0 0 200 200" enable-background="new 0 0 200 200" xml:space="preserve">
<path fill="#040404" d="M196.9,106.3l-0.1-0.1c-3.2-3.9-7.9-6.2-12.9-6.2c-1.3,0-2.6,0.2-3.9,0.5c1-2,1.9-4.1,2.8-6.2  c3.2-3,5.1-7,5.5-11.4c0.3-4.6-1.1-9-4-12.5l-0.1-0.1c-0.9-1-2.3-1.1-3.3-0.2l-0.1,0.1c-3.4,3-5.5,7.2-5.8,11.8  c-0.3,4.1,0.8,8.2,3.2,11.5c-3.5,8.8-8.8,16.2-15,22c1.4-5.4,2.2-11.2,2.2-17.1c0-0.1,0-0.2,0-0.4c3.9-8.2,5.4-17.3,4.4-26.5  c8.3-1.4,14.5-9,14.1-17.8v-0.1c-0.1-1.3-1.1-2.3-2.5-2.3h-0.2c-6.1,0.3-11.2,3.8-14,8.9c-0.3-1.1-0.7-2.1-1.1-3.2  c-0.9-2.3-2-4.5-3.2-6.7c7.6-2.9,12.2-11,10.7-19.3l0-0.1c-0.2-1.3-1.5-2.2-2.8-1.9l-0.1,0c-4.4,0.8-8.3,3.4-10.8,7.2  c-1.2,1.8-2,3.7-2.5,5.8c-2.2-2.8-4.6-5.4-7.3-7.9c6-5.7,7.1-15.2,2.3-22.3l-0.1-0.1c-0.3-0.5-0.9-0.9-1.5-1c-0.6-0.1-1.3,0-1.8,0.4  l-0.1,0.1c-3.7,2.6-6.2,6.5-7,11.1c-0.3,1.8-0.4,3.7-0.1,5.5c-1.9-1.2-3.8-2.4-5.8-3.4c-3.2-4.3-8.2-6.9-13.5-6.9  c-3.5,0-6.9,1.1-9.7,3.2l-0.1,0.1c-1.1,0.8-1.3,2.3-0.6,3.4L112,24c3.1,4.6,8.3,7.3,13.8,7.3c3.1,0,6-0.8,8.6-2.4  c2.5,1.4,4.9,2.9,7.2,4.5c-4.1,0.9-7.6,3.3-9.9,6.7c-9.4-5.3-20.2-8.4-31.6-8.4s-22.3,3-31.6,8.4c-2.4-3.4-5.9-5.8-9.9-6.7  c2.3-1.7,4.7-3.2,7.2-4.5c2.6,1.6,5.6,2.4,8.6,2.4l0,0c5.5,0,10.6-2.7,13.8-7.3l0.1-0.1c0.7-1.1,0.5-2.6-0.6-3.4l-0.1-0.1  c-2.9-2.1-6.2-3.2-9.7-3.2c-5.3,0-10.3,2.6-13.5,6.9c-2,1.1-3.9,2.2-5.8,3.4c0.2-1.8,0.2-3.6-0.1-5.5c-0.8-4.5-3.3-8.5-7-11.1  l-0.1-0.1c-0.5-0.4-1.1-0.5-1.8-0.4c-0.6,0.1-1.2,0.5-1.5,1l-0.1,0.1c-2.6,3.8-3.5,8.4-2.7,12.9c0.7,3.7,2.4,6.9,5,9.4  c-2.7,2.4-5.1,5.1-7.3,7.9c-0.5-2.1-1.3-4-2.5-5.8c-2.5-3.8-6.4-6.3-10.8-7.2l-0.1,0c-1.3-0.2-2.5,0.6-2.8,1.9l0,0.1  c-0.8,4.5,0.1,9.1,2.7,12.9c2,3,4.8,5.2,8.1,6.4c-1.8,3.2-3.2,6.5-4.3,9.9c-0.6-1.2-1.4-2.3-2.3-3.3c-3-3.4-7.2-5.4-11.7-5.6h-0.1  c-1.3-0.1-2.4,1-2.5,2.3v0.1c-0.4,8.8,5.8,16.4,14.1,17.8c-1,9,0.3,18.1,4.3,26.5c0,0.1,0,0.2,0,0.4c0,5.9,0.8,11.7,2.2,17.1  c-6.4-6-11.5-13.5-15-22.1c5.1-7.2,4.1-17.3-2.6-23.2L19.2,70c-0.5-0.4-1.1-0.6-1.7-0.6c-0.6,0.1-1.2,0.4-1.6,0.8l-0.1,0.1  c-2.9,3.5-4.4,7.9-4,12.5c0.3,4.4,2.3,8.5,5.5,11.4c0.8,2.2,1.8,4.2,2.8,6.2c-1.3-0.3-2.6-0.5-3.9-0.5c-5,0-9.7,2.2-12.9,6.2  l-0.1,0.1c-0.4,0.5-0.6,1.1-0.6,1.8s0.3,1.2,0.9,1.6l0.1,0.1c3,2.6,6.9,4,10.8,4l0,0c4.1,0,8.1-1.6,11.1-4.3  c4,5.6,8.9,10.5,14.3,14.4c1.5,3.6,3.3,7.1,5.3,10.3c-2.7,3.5-3.9,8-3.4,12.5c-2.3-1.6-4.5-3.4-6.6-5.4c0.8-4,0.2-8.2-1.8-11.8  c-2.2-4-5.8-6.9-10.1-8.2l-0.1,0c-1.3-0.4-2.6,0.4-2.9,1.7l0,0.1c-1.2,4.4-0.7,9.1,1.5,13.1c2.1,3.9,5.5,6.7,9.7,8  c1.7,1.6,3.4,3.1,5.1,4.5c-6.1,1.3-11.2,6-12.9,12.4l0,0.1c-0.3,1.3,0.4,2.6,1.7,3l0.1,0c1.4,0.4,2.9,0.6,4.4,0.6l0,0  c6.7,0,12.8-4.1,15.4-10.3c3.2,1.8,6.5,3.2,9.8,4.4c-5.5,3.6-8.7,10.2-7.6,17.2l0,0.1c0.2,1.2,1.2,2,2.3,2c0.1,0,0.2,0,0.4,0l0.1,0  c4.5-0.7,8.4-3.2,11-6.9c2.1-2.9,3.2-6.4,3.3-9.9c3.3,0.6,6.6,0.9,9.9,0.9c0.2,0,0.5,0,0.7,0c-0.9,1-1.7,2.1-2.3,3.3  c-2.1,4.1-2.6,8.7-1.3,13.1l0.1,0.1c0.3,1,1.3,1.7,2.3,1.7c0.2,0,0.5,0,0.7-0.1l0.1-0.1c4.3-1.3,7.9-4.3,10-8.4  c1.4-2.7,2.1-5.7,2-8.7c3.3,0.7,6.7,1.2,10.2,1.4l-2.3,3.3c-4.4,6.3-4.4,16.2,0,22.6c0.7,1.1,2.2,1.4,3.3,0.6  c1.1-0.8,1.3-2.3,0.6-3.4c-3.2-4.6-3.2-12.4,0-17l1.5-2.3l1.5,2.3c3.2,4.6,3.2,12.4,0,17c-0.7,1.1-0.5,2.6,0.6,3.4  c0.4,0.3,0.9,0.4,1.4,0.4c0.7,0,1.5-0.4,1.9-1c4.4-6.3,4.4-16.2,0-22.6l-2.3-3.3c3.6-0.2,7.1-0.6,10.5-1.4c-0.1,3,0.6,6,2,8.7  c2.1,4.1,5.7,7,10,8.4l0.1,0.1c0.2,0.1,0.5,0.1,0.7,0.1c1,0,2-0.7,2.3-1.7l0.1-0.1c1.8-5.9,0.2-12.1-3.6-16.4c0.2,0,0.5,0,0.7,0  c3.3,0,6.6-0.3,9.9-0.9c0.1,3.5,1.1,7,3.3,9.9c2.7,3.7,6.6,6.2,11,6.9l0.1,0c0.1,0,0.2,0,0.4,0c0.5,0,1-0.2,1.4-0.5  c0.5-0.4,0.9-1,0.9-1.6l0-0.2c1.1-6.9-2.1-13.6-7.6-17.2c3.3-1.2,6.6-2.6,9.8-4.4c2.7,6.2,8.7,10.3,15.4,10.3c1.5,0,3-0.2,4.4-0.6  l0.1,0c1.3-0.4,2-1.7,1.7-3l0-0.1c-1.7-6.4-6.7-11.1-12.9-12.4c1.8-1.4,3.5-2.9,5.1-4.5c4.1-1.3,7.5-4.1,9.7-8  c2.2-4,2.7-8.7,1.5-13.1l0-0.1c-0.3-1.3-1.7-2-2.9-1.7l-0.1,0.1c-4.3,1.3-7.9,4.1-10.1,8.2c-2,3.6-2.6,7.8-1.8,11.8  c-2.1,2-4.3,3.8-6.6,5.4c0.2-2.2,0.1-4.4-0.5-6.6c-0.6-2.2-1.6-4.1-2.9-5.9c2.1-3.3,3.9-6.7,5.3-10.4c5.3-3.8,10.2-8.7,14.3-14.3  c3.1,2.7,7,4.3,11.1,4.3c3.9,0,7.8-1.4,10.8-4l0.1-0.1c0.5-0.4,0.8-1,0.8-1.6C197.5,107.5,197.3,106.8,196.9,106.3z M178.9,56.4  c-0.7,4.8-4.3,8.8-9,10C170.7,61.6,174.2,57.7,178.9,56.4z M125.8,26.4c-3.1,0-6.1-1.2-8.3-3.3c1.5-0.7,3.1-1,4.8-1  c3.1,0,6.1,1.2,8.3,3.3C129.1,26.1,127.5,26.4,125.8,26.4z M77.7,22.1c1.7,0,3.3,0.4,4.8,1c-2.2,2.1-5.2,3.3-8.3,3.3  c-1.7,0-3.3-0.4-4.8-1C71.7,23.3,74.6,22.1,77.7,22.1z M21.2,56.4c2.3,0.6,4.3,1.9,5.9,3.7c1.6,1.8,2.6,4,3,6.4  C25.5,65.2,21.9,61.3,21.2,56.4z M19,89.1c-1.4-1.9-2.3-4.2-2.5-6.6c-0.2-2.4,0.3-4.8,1.5-6.9C20.9,79.5,21.3,84.8,19,89.1z   M14.4,109c-2,0-4-0.5-5.7-1.5c2.1-1.7,4.7-2.7,7.5-2.7c2,0,4,0.5,5.7,1.5C19.8,108.1,17.1,109,14.4,109z M30.8,138.9  c-2.1-1.1-3.8-2.8-5-5c-1.2-2.2-1.7-4.5-1.5-6.9c2.1,1.1,3.8,2.8,5,5C30.4,134.1,30.9,136.5,30.8,138.9z M29.7,160  c-0.2,0-0.5,0-0.7,0c2.1-4.3,6.7-7.1,11.5-6.8C38.5,157.4,34.3,160,29.7,160z M170.8,132c1.2-2.2,2.9-3.8,5-5  c0.2,2.4-0.3,4.8-1.5,6.9c-1.2,2.2-2.9,3.8-5,4.9C169.1,136.5,169.7,134.1,170.8,132z M171.1,160c-0.2,0-0.5,0-0.7,0  c-4.6,0-8.8-2.7-10.8-6.8C164.4,153,168.9,155.7,171.1,160z M164.2,86.4c-0.6-3.6-1.5-7-2.7-10.3c1.3-0.6,2.5-1.3,3.6-2.2  C165.4,78.1,165.1,82.3,164.2,86.4z M158.3,68.3C158.3,68.3,158.3,68.3,158.3,68.3c1.7,0,3.2,0.3,4.7,1c-0.9,0.9-2,1.7-3.2,2.3  C159.3,70.5,158.8,69.4,158.3,68.3z M169.1,34.4c-0.1,4.9-3.1,9.3-7.5,11.2C161.7,40.6,164.6,36.2,169.1,34.4z M146.4,22.9  c0.4-2.4,1.5-4.6,3.1-6.3c1.9,4.5,0.9,9.8-2.4,13.4C146.3,27.8,146,25.4,146.4,22.9z M149.2,39.9c5.4,5.5,9.6,11.8,12.4,18.8  c0.7,1.9,1.4,3.7,1.9,5.6c-1.7-0.5-3.4-0.8-5.1-0.8c-0.9,0-1.7,0.1-2.6,0.2c-3.6-6-8-11.3-13.2-15.9C145.5,46,147.8,43.3,149.2,39.9  z M145,37.8c-1.2,3.1-3.5,5.5-6.5,6.8c-0.9-0.7-1.8-1.3-2.8-2C137.9,39.7,141.3,37.9,145,37.8z M160.5,98.3  c0,34-27.1,61.8-60.5,61.8s-60.5-27.7-60.5-61.8S66.7,36.6,100,36.6S160.5,64.3,160.5,98.3z M40.3,71.6c-1.2-0.6-2.3-1.3-3.2-2.3  c1.5-0.6,3-1,4.6-1c0,0,0,0,0.1,0C41.3,69.4,40.8,70.5,40.3,71.6z M64.3,42.6c-0.9,0.6-1.9,1.3-2.8,2c-2.9-1.3-5.3-3.7-6.5-6.8  C58.8,37.9,62.2,39.7,64.3,42.6z M49.7,23.7c-0.4-2.4-0.2-4.8,0.7-7c1.6,1.7,2.7,3.9,3.2,6.3c0.4,2.4,0.2,4.8-0.7,7  C51.3,28.3,50.2,26.1,49.7,23.7z M33.1,41.1c-1.4-2-2.1-4.4-2.1-6.8c2.2,0.9,4.1,2.4,5.4,4.5c1.4,2,2.1,4.4,2.1,6.8  C36.3,44.7,34.4,43.1,33.1,41.1z M50.9,39.9c1.4,3.3,3.7,6.1,6.6,7.9c-5.2,4.5-9.6,9.9-13.2,15.9c-0.9-0.1-1.7-0.2-2.6-0.2  c-1.8,0-3.5,0.3-5.1,0.8C39,55.5,43.9,47,50.9,39.9z M35,73.8c1.1,0.9,2.3,1.6,3.6,2.2c-1.2,3.3-2.1,6.8-2.7,10.3  C35,82.3,34.7,78,35,73.8z M47,148.5c-1-3.4-0.6-7,1.1-10c0.9,1.2,1.8,2.3,2.7,3.4C50.2,144.5,48.9,146.8,47,148.5z M57.4,168.6  c-1.4,2-3.3,3.5-5.5,4.3c0.2-4.9,3.3-9.3,7.8-11C59.6,164.3,58.8,166.6,57.4,168.6z M75.5,175c-0.2-2.4,0.3-4.8,1.4-6.9  c1.1-2.2,2.8-3.9,4.9-5C82.2,167.9,79.7,172.6,75.5,175z M50.4,151.9c1.8-1.7,3.2-3.7,4.1-5.9c4.5,4.5,9.7,8.4,15.4,11.4  C63.4,156.8,56.7,155,50.4,151.9z M124.6,175c-2.1-1.1-3.8-2.9-4.9-5c-1.1-2.2-1.6-4.5-1.4-6.9C122.5,165.3,125,170.1,124.6,175z   M148.2,172.9c-2.2-0.8-4.1-2.3-5.5-4.3c-1.4-2-2.2-4.3-2.3-6.7C144.9,163.6,148,168,148.2,172.9z M130.2,157.4  c5.7-3,10.9-6.9,15.4-11.4c0.9,2.2,2.3,4.3,4.1,5.9C143.4,155,136.7,156.8,130.2,157.4z M153.2,141.4c0.6,2.4,0.6,4.8-0.1,7.1  c-2-1.7-3.3-4.1-3.8-6.6c1-1.1,1.9-2.3,2.7-3.4C152.5,139.4,152.9,140.4,153.2,141.4z M179.6,82.2c0.2-2.4,1-4.7,2.5-6.6  c1.1,2.1,1.7,4.5,1.5,6.9c-0.2,2.4-1,4.7-2.5,6.6C179.9,87,179.4,84.7,179.6,82.2z M185.7,109c-2.8,0-5.4-1-7.5-2.7  c1.8-1,3.7-1.5,5.7-1.5c2.8,0,5.4,1,7.5,2.7C189.7,108.5,187.7,109,185.7,109z"/>
<g transform="translate(30 30) scale(0.7)"><path d="m114.03 47.213c-5.9091 0-12.758 1.0287-20.549 3.0859-4.0269 1.0505-7.9006 2.3637-11.621 3.9394-3.6767 1.5758-7.0267 3.4353-10.047 5.5801-3.0202 2.101-5.558 4.5088-7.6152 7.2227-2.0572 2.7138-3.4364 5.8639-4.1367 9.4531-0.70034 3.5892-0.15395 6.8958 1.6406 9.916 1.7508 2.9327 3.9835 4.3984 6.6973 4.3984 2.3636 0 5.9754-2.1234 10.834-6.3691-3.0202-3.3704-4.0262-7.5285-3.0195-12.475 1.1818-5.8653 5.843-10.397 13.984-13.592 3.7205-1.4444 7.8353-2.4938 12.344-3.1504 4.5084-0.70034 9.2355-1.0508 14.182-1.0508 4.9899 0 9.847 0.63494 14.574 1.9043 12.125 3.1515 17.357 8.9073 15.693 17.268-0.87544 4.2896-4.4213 7.9013-10.637 10.834-2.7138 1.3131-5.6473 2.3192-8.7988 3.0195-3.1078 0.65656-6.1712 0.98437-9.1914 0.98437s-6.4341-0.4804-10.242-1.4434c8.3602-10.943 14.728-18.253 19.105-21.93-0.39394-0.39394-0.89697-0.74438-1.5098-1.0508-2.4512-1.2256-4.4653-1.1823-6.041 0.1309-5.0774 3.9831-11.293 9.8482-18.646 17.596-3.3266 3.5017-6.6952 7.1568-10.109 10.965-3.3704 3.7643-8.0768 9.0397-14.117 15.824-6.0404 6.7845-10.811 12.015-14.313 15.691-8.3165-3.5454-13.767-7.8128-16.35-12.803-3.6768 0.96298-5.6456 2.1216-5.9082 3.4785-0.70034 3.5454 0.19646 8.0993 2.6914 13.658 3.5017 7.6599 9.6306 13.634 18.385 17.924 8.9293 4.3771 19.148 6.5644 30.66 6.5644 15.495 0 28.474-3.7644 38.936-11.293 7.8788-5.6464 12.672-12.759 14.379-21.338 1.9259-9.5858-2.0363-16.917-11.885-21.994 6.7845-1.8384 12.454-4.6174 17.006-8.3379 5.0774-4.0269 8.1183-8.5808 9.125-13.658 1.2694-6.3468-0.0212-11.795-3.873-16.348-1.8384-2.1448-4.137-4.0043-6.8945-5.5801-2.7576-1.5758-5.8211-2.889-9.1914-3.9394-3.3704-1.0505-7.0028-1.8174-10.898-2.2988-3.8518-0.52526-8.7335-0.7871-14.643-0.7871zm-14.71 51.342c6.7407 0.26262 11.973 1.7304 15.693 4.4004 4.1144 2.9326 5.7121 6.697 4.793 11.293-0.96297 4.7272-3.7213 8.4464-8.2734 11.16-2.101 1.2693-4.5089 2.2547-7.2227 2.9551-2.67 0.70034-5.1212 1.1374-7.3535 1.3125-2.2323 0.13124-4.9247 0.19728-8.0762 0.19728s-7.1777-0.50303-12.08-1.5098c3.0639-3.7205 6.6305-8.2951 10.701-13.723 1.9259-2.5825 3.8741-5.2296 5.8438-7.9434s3.9612-5.4288 5.9746-8.1426z" fill="#CACACA"/></g></svg>
