<?xml version="1.0" encoding="utf-8"?>
<!-- Generator: Adobe Illustrator 21.1.0, SVG Export Plug-In . SVG Version: 6.00 Build 0)  -->
<svg xmlns="http://www.w3.org/2000/svg" xmlns:xlink="http://www.w3.org/1999/xlink" version="1.1" id="Layer_1" x="0px" y="0px" viewBox="0 0 200 200" enable-background="new 0 0 200 200" xml:space="preserve">
<path d="M183,100l-0.1,20.8l-0.2,8.6l-0.4,6.5l-0.6,5.5l-0.7,4.7l-0.9,4.2l-1.1,3.8l-1.3,3.4  l-1.4,3.1l-1.6,2.9l-1.8,2.6l-2,2.4l-2.2,2.2l-2.4,2l-2.6,1.8l-2.9,1.6l-3.1,1.4l-3.4,1.3l-3.8,1.1l-4.2,0.9l-4.7,0.7l-5.5,0.6  l-6.5,0.4l-8.6,0.2L100,183l-20.8-0.1l-8.6-0.2l-6.5-0.4l-5.5-0.6l-4.7-0.7l-4.2-0.9l-3.8-1.1l-3.4-1.3l-3.1-1.4l-2.9-1.6l-2.6-1.8  l-2.4-2l-2.2-2.2l-2-2.4l-1.8-2.6l-1.6-2.9l-1.4-3.1l-1.3-3.4l-1.1-3.8l-0.9-4.2l-0.7-4.7l-0.6-5.5l-0.4-6.5l-0.2-8.6L17,100  l0.1-20.8l0.2-8.6l0.4-6.5l0.6-5.5l0.7-4.7l0.9-4.2l1.1-3.8l1.3-3.4l1.4-3.1l1.6-2.9l1.8-2.6l2-2.4l2.2-2.2l2.4-2l2.6-1.8l2.9-1.6  l3.1-1.4l3.4-1.3l3.8-1.1l4.2-0.9l4.7-0.7l5.5-0.6l6.5-0.4l8.6-0.2L100,17l20.8,0.1l8.6,0.2l6.5,0.4l5.5,0.6l4.7,0.7l4.2,0.9  l3.8,1.1l3.4,1.3l3.1,1.4l2.9,1.6l2.6,1.8l2.4,2l2.2,2.2l2,2.4l1.8,2.6l1.6,2.9l1.4,3.1l1.3,3.4l1.1,3.8l0.9,4.2l0.7,4.7l0.6,5.5  l0.4,6.5l0.2,8.6L183,100L183,100z" fill="#a9a42c"/>
<g transform="translate(30 30) scale(0.7)">
  
  <defs id="defs285458"/>
  <linearGradient id="3d_gradient2-logo-AB01AE2D2735437986BDF38AA15DFFAE" x1="30%" y1="120%" x2="-10%" y2="30%" spreadMethod="pad">
    <stop offset="0%" stop-color="#ffffff" stop-opacity="1" id="stop285435"/>
    <stop offset="100%" stop-color="#000000" stop-opacity="1" id="stop285437"/>
  </linearGradient>
  <linearGradient id="3d_gradient3-logo-AB01AE2D2735437986BDF38AA15DFFAE" x1="30%" y1="120%" x2="-10%" y2="30%" spreadMethod="pad" gradientTransform="rotate(-30)">
    <stop offset="0%" stop-color="#ffffff" stop-opacity="1" id="stop285440"/>
    <stop offset="50%" stop-color="#cccccc" stop-opacity="1" id="stop285442"/>
    <stop offset="100%" stop-color="#000000" stop-opacity="1" id="stop285444"/>
  </linearGradient>
  <path id="path285493" style="font-style:oblique;font-weight:normal;font-size:72px;line-height:1;font-family:Molle;font-variant-ligatures:none;text-align:center;text-anchor:middle;fill:#000000;stroke:#000000;stroke-width:0;stroke-linejoin:miter;stroke-miterlimit:2" d="m 133.39678,98.161624 q 14.77272,7.616156 11.88384,21.994926 -2.56061,12.86866 -14.37877,21.33835 -15.69191,11.29291 -38.9343,11.29291 -17.267647,0 -30.661578,-6.56564 -13.131296,-6.43434 -18.383815,-17.92422 -3.742407,-8.33837 -2.691904,-13.65655 0.393925,-2.03535 5.909079,-3.47979 3.873734,7.48484 16.348452,12.80301 5.252518,-5.51514 14.313126,-15.6919 9.06059,-10.176752 14.116137,-15.82321 5.12121,-5.712114 10.111093,-10.964633 11.03029,-11.621196 18.64645,-17.595937 2.36362,-1.969693 6.04039,-0.131308 0.91919,0.459596 1.51011,1.050504 -6.56566,5.515144 -19.10604,21.929263 5.71211,1.444444 10.2424,1.444444 4.5303,0 9.19192,-0.984848 4.72726,-1.050504 8.79797,-3.020197 9.32321,-4.398985 10.63635,-10.833321 2.49495,-12.540386 -15.69192,-17.267653 -7.09089,-1.904039 -14.57572,-1.904039 -7.41919,0 -14.1818,1.050504 -6.762629,0.984848 -12.343427,3.151511 -12.212101,4.792924 -13.984828,13.590892 -1.510092,7.419182 3.020203,12.474732 -7.287881,6.368678 -10.833317,6.368678 -4.070707,0 -6.696966,-4.398985 -2.691922,-4.530296 -1.641419,-9.914129 1.050504,-5.38383 4.13637,-9.454533 3.085848,-4.070701 7.616142,-7.222212 4.530295,-3.217167 10.045449,-5.5808 5.580798,-2.363633 11.621185,-3.939389 11.686868,-3.085855 20.550488,-3.085855 8.86362,0 14.64139,0.787878 5.84343,0.722222 10.89898,2.297977 5.05554,1.575756 9.19191,3.939389 4.13635,2.363633 6.89392,5.5808 5.77777,6.828274 3.87374,16.348463 -1.5101,7.616152 -9.12626,13.656548 -6.82827,5.580801 -17.00503,8.338374 z M 76.80091,128.3636 q 7.353526,1.5101 12.080793,1.5101 4.727266,0 8.075749,-0.19697 3.348468,-0.26262 7.353528,-1.31313 4.07069,-1.0505 7.2222,-2.95454 6.82827,-4.0707 8.27272,-11.1616 1.37878,-6.89393 -4.79293,-11.29291 -5.5808,-4.005048 -15.691894,-4.398988 -3.020203,4.070698 -5.974742,8.141408 -2.954539,4.0707 -5.843415,7.94443 -6.106069,8.1414 -10.702009,13.7222 z" stroke-miterlimit="2"/>
</g></svg>
