<?xml version="1.0" encoding="utf-8"?>
<!-- Generator: Adobe Illustrator 21.1.0, SVG Export Plug-In . SVG Version: 6.00 Build 0)  -->
<svg xmlns="http://www.w3.org/2000/svg" xmlns:xlink="http://www.w3.org/1999/xlink" version="1.1" id="Layer_1" x="0px" y="0px" viewBox="0 0 200 200" enable-background="new 0 0 200 200" xml:space="preserve">
<rect width="200" height="200" fill="#a9a42c"/><path fill="#040404" d="M109.1,23.2c1.4,0.2,2.9,0.2,4.4,0.2c0.5,0,1.1,0,1.6,0l1.1,0c0.6,0,1.2,0,1.8,0l0.5,0  c6.4-0.1,7.5-1.2,7.8-1.6c0.4-0.5,0.6-1,0.4-1.6c-0.2-0.7-1-1.5-4.9-2.2c-2.3-0.4-4.8-0.6-7.5-0.6c-1.3,0-2.8,0.1-4.2,0.2  c-3.5,0.2-5.8,0.7-6.1,2.3c-0.1,0.5,0,1,0.3,1.4C104.9,22.3,106.3,22.8,109.1,23.2z M183.3,130.3c0-3.4-0.1-6.8-0.1-10.2  c-0.1-6.8-0.2-13.8-0.2-20.7c0-12.2-0.2-24.6-0.3-36.6l0-3.5l-0.2-20l-0.1-10l0-11.2c0-0.6-0.4-1-1-1l-9.2,0c0,0-8.6-0.1-8.9-0.1  c-8.1,0-9.6,1.4-9.9,2.5c-0.2,0.6-0.2,1.5,1,2.6c1,0.9,2.5,1.2,5.4,1.2c0.3,0,0.6,0,0.9,0l9.8-0.2l6.1-0.1l0.1,9.3l0.2,13  c0.1,4.5,0,9.1-0.1,13.5c-0.1,6-0.2,12.2,0.1,18.2c0.4,7.4,0.4,15,0.4,22.3l0,3.3c0,1.8,0,3.6,0,5.4c0,2.8,0,5.5,0,8.3l0.1,5.3  c0.1,11.7,0.3,23.9-0.4,35.7c-0.1,1.2-0.1,2.4-0.1,3.5c0,0.8,0,1.7,0,2.5c-0.1,2.4-0.1,5.1-0.1,8.1l0.1,4l0,0.9  c-0.1,0-4.1,0.1-4.1,0.1c-0.6,0-1.1,0-1.7,0c-2,0-3.9,0-5.6-0.1c-3-0.1-6.1-0.2-9.6-0.2c-5,0-10,0.1-14.8,0.2  c-4.8,0.1-9.8,0.2-14.8,0.2c-0.9,0-1.9,0-2.8,0l-2.6,0c-4.7,0-9.4-0.1-14-0.1c-7.2,0-13,0.1-18.4,0.3c-1.4-0.1-2.8-0.2-4.2-0.2  c-2.3,0-4.6,0.1-7,0.5c-2.8,0.4-4.3,0.9-4.9,1.8c-0.3,0.4-0.4,1-0.2,1.5c0.4,1.3,2.1,2,6,2.3c2.2,0.2,4.5,0.3,6.7,0.3  c1.7,0,3.5-0.1,5.3-0.2c0.8,0,1.5-0.1,2.3-0.2c2.7-0.2,5.6-0.4,8.3-0.4c0.4,0,0.8,0,1.1,0c4.5,0.1,9.4,0.1,14.8,0.1  c7.1,0,14.2-0.1,21.2-0.2c6.8-0.1,13.8-0.2,20.7-0.2l23.3,0c0.6,0,1-0.4,1-1l0-10.3l0.1-8.7c0.1-6.3,0.2-12,0.3-17.4  C183.3,139.6,183.4,134.7,183.3,130.3z M60.3,16.3l-0.3,0c-1.5,0-3,0.1-4,0.2c-2.3,0.2-4.7,0.3-7.5,0.3c-1.8,0-3.7,0-6-0.1  c-3.7-0.1-7.7-0.2-12.5-0.2c-1.6,0-3.1,0-4.7,0l-7.2,0c-0.3,0-0.5,0.1-0.7,0.3C17.1,17,17,17.2,17,17.5l0.3,21.9  c0.1,8,0,14.2-0.1,20l-0.4,22.3c-0.2,11.7-0.1,23.6,0,35.1c0.1,8.2,0.2,16.7,0.1,25c0,4.3,0.1,8.7,0.2,13c0.2,6.6,0.3,13.4,0,20.2  c-0.2,3.9,0.6,4.8,0.9,5.1c0.2,0.2,0.5,0.4,0.8,0.5c0.1,1.1,1.5,1.6,3.6,2c3.5,0.6,7.3,1,11.2,1.2c0.7,0,1.3,0,1.9,0  c2.5,0,8.6-0.2,9.8-2.4c0.3-0.6,0.3-1.2,0-1.7c-0.3-0.5-1.3-2.2-10.6-2.3c-0.6,0-1.1,0-1.7,0c-3.8,0-7.4,0.5-10.8,1.1  c-0.7,0.1-1.5,0.3-2,0.5c0.1-1.6,0.1-3.2,0.2-4.7c0.1-4.2,0.3-8.5,0.6-12.5c0.4-5.2,0.7-10.7,0.8-17.8c0.2-12.7,0.2-25.5,0.2-37.8  c0-2.5,0-5-0.1-7.5C22.1,92.8,22,87,22.3,81.2c0.5-10.3,0.5-20.5,0.5-30c0-4.3-0.1-8.7-0.2-12.9l-0.1-3l-0.1-7.9l0-4l0-1.4l4.3,0.1  c5.3,0.2,10.8,0.2,16,0.3c5.4,0,11,0.1,16.5,0.3c0.3,0,0.6,0,1,0c3.1,0,9.9-0.8,10.3-3c0.1-0.4,0-0.9-0.4-1.3  C68.6,16.5,61.6,16.3,60.3,16.3z"/>
<g transform="translate(30 30) scale(0.7)">
  
  <defs id="defs285458"/>
  <linearGradient id="3d_gradient2-logo-AB01AE2D2735437986BDF38AA15DFFAE" x1="30%" y1="120%" x2="-10%" y2="30%" spreadMethod="pad">
    <stop offset="0%" stop-color="#ffffff" stop-opacity="1" id="stop285435"/>
    <stop offset="100%" stop-color="#000000" stop-opacity="1" id="stop285437"/>
  </linearGradient>
  <linearGradient id="3d_gradient3-logo-AB01AE2D2735437986BDF38AA15DFFAE" x1="30%" y1="120%" x2="-10%" y2="30%" spreadMethod="pad" gradientTransform="rotate(-30)">
    <stop offset="0%" stop-color="#ffffff" stop-opacity="1" id="stop285440"/>
    <stop offset="50%" stop-color="#cccccc" stop-opacity="1" id="stop285442"/>
    <stop offset="100%" stop-color="#000000" stop-opacity="1" id="stop285444"/>
  </linearGradient>
  <path id="path285493" style="font-style:oblique;font-weight:normal;font-size:72px;line-height:1;font-family:Molle;font-variant-ligatures:none;text-align:center;text-anchor:middle;fill:#000000;stroke:#000000;stroke-width:0;stroke-linejoin:miter;stroke-miterlimit:2" d="m 133.39678,98.161624 q 14.77272,7.616156 11.88384,21.994926 -2.56061,12.86866 -14.37877,21.33835 -15.69191,11.29291 -38.9343,11.29291 -17.267647,0 -30.661578,-6.56564 -13.131296,-6.43434 -18.383815,-17.92422 -3.742407,-8.33837 -2.691904,-13.65655 0.393925,-2.03535 5.909079,-3.47979 3.873734,7.48484 16.348452,12.80301 5.252518,-5.51514 14.313126,-15.6919 9.06059,-10.176752 14.116137,-15.82321 5.12121,-5.712114 10.111093,-10.964633 11.03029,-11.621196 18.64645,-17.595937 2.36362,-1.969693 6.04039,-0.131308 0.91919,0.459596 1.51011,1.050504 -6.56566,5.515144 -19.10604,21.929263 5.71211,1.444444 10.2424,1.444444 4.5303,0 9.19192,-0.984848 4.72726,-1.050504 8.79797,-3.020197 9.32321,-4.398985 10.63635,-10.833321 2.49495,-12.540386 -15.69192,-17.267653 -7.09089,-1.904039 -14.57572,-1.904039 -7.41919,0 -14.1818,1.050504 -6.762629,0.984848 -12.343427,3.151511 -12.212101,4.792924 -13.984828,13.590892 -1.510092,7.419182 3.020203,12.474732 -7.287881,6.368678 -10.833317,6.368678 -4.070707,0 -6.696966,-4.398985 -2.691922,-4.530296 -1.641419,-9.914129 1.050504,-5.38383 4.13637,-9.454533 3.085848,-4.070701 7.616142,-7.222212 4.530295,-3.217167 10.045449,-5.5808 5.580798,-2.363633 11.621185,-3.939389 11.686868,-3.085855 20.550488,-3.085855 8.86362,0 14.64139,0.787878 5.84343,0.722222 10.89898,2.297977 5.05554,1.575756 9.19191,3.939389 4.13635,2.363633 6.89392,5.5808 5.77777,6.828274 3.87374,16.348463 -1.5101,7.616152 -9.12626,13.656548 -6.82827,5.580801 -17.00503,8.338374 z M 76.80091,128.3636 q 7.353526,1.5101 12.080793,1.5101 4.727266,0 8.075749,-0.19697 3.348468,-0.26262 7.353528,-1.31313 4.07069,-1.0505 7.2222,-2.95454 6.82827,-4.0707 8.27272,-11.1616 1.37878,-6.89393 -4.79293,-11.29291 -5.5808,-4.005048 -15.691894,-4.398988 -3.020203,4.070698 -5.974742,8.141408 -2.954539,4.0707 -5.843415,7.94443 -6.106069,8.1414 -10.702009,13.7222 z" stroke-miterlimit="2"/>
</g></svg>
