<?xml version="1.0" encoding="utf-8"?>
<!-- Generator: Adobe Illustrator 21.1.0, SVG Export Plug-In . SVG Version: 6.00 Build 0)  -->
<svg xmlns="http://www.w3.org/2000/svg" xmlns:xlink="http://www.w3.org/1999/xlink" version="1.1" id="Layer_1" x="0px" y="0px" viewBox="0 0 200 200" enable-background="new 0 0 200 200" xml:space="preserve">
<path fill="#040404" d="M124.1,38.9c7.2,0,13-5.8,13-13s-5.8-13-13-13c-7.2,0-13,5.8-13,13C111.1,33.1,116.9,38.9,124.1,38.9z   M124.1,20.4c3.1,0,5.6,2.5,5.6,5.6s-2.5,5.6-5.6,5.6s-5.6-2.5-5.6-5.6S121,20.4,124.1,20.4z M170.4,151.9c7.2,0,13-5.8,13-13  s-5.8-13-13-13c-7.2,0-13,5.8-13,13C157.4,146,163.2,151.9,170.4,151.9z M170.4,133.3c3.1,0,5.6,2.5,5.6,5.6c0,3.1-2.5,5.6-5.6,5.6  c-3.1,0-5.6-2.5-5.6-5.6C164.8,135.8,167.3,133.3,170.4,133.3z M27.8,72.2c7.2,0,13-5.8,13-13s-5.8-13-13-13c-7.2,0-13,5.8-13,13  C14.8,66.4,20.6,72.2,27.8,72.2z M27.8,53.7c3.1,0,5.6,2.5,5.6,5.6s-2.5,5.6-5.6,5.6s-5.6-2.5-5.6-5.6S24.7,53.7,27.8,53.7z   M74.1,159.3c-7.2,0-13,5.8-13,13c0,7.2,5.8,13,13,13c7.2,0,13-5.8,13-13C87,165.1,81.2,159.3,74.1,159.3z M74.1,177.8  c-3.1,0-5.6-2.5-5.6-5.6c0-3.1,2.5-5.6,5.6-5.6s5.6,2.5,5.6,5.6C79.6,175.3,77.1,177.8,74.1,177.8z M0,200h200V0H0V200z   M144.4,192.6L144.4,192.6c-1.1,0-12.1-0.2-18.9-7c-7.2-7.2-7-18.9-7-18.9h0.1c1,0,12.1,0.2,18.9,7  C144.6,180.8,144.4,192.6,144.4,192.6z M151.9,192.6L151.9,192.6c-0.1,0-0.3-11.8,6.9-18.9c6.8-6.8,17.8-7,18.9-7h0.1  c0,0,0.2,11.8-7,18.9C164,192.4,153,192.6,151.9,192.6z M192.6,48.1L192.6,48.1c-1.1,0-12.1-0.2-18.9-7c-7.2-7.2-7-18.9-7-18.9h0.1  c1,0,12.1,0.2,18.9,7C192.8,36.4,192.6,48.1,192.6,48.1z M185.6,74.5c-6.8,6.8-17.8,7-18.9,7h-0.1c0,0-0.2-11.8,7-18.9  c6.8-6.8,17.8-7,18.9-7h0.1C192.6,55.6,192.8,67.3,185.6,74.5z M61.1,7.4L61.1,7.4c1.1,0,12.1,0.2,18.9,7c7.2,7.2,7,18.9,7,18.9H87  c-1,0-12.1-0.2-18.9-7C60.9,19.2,61.1,7.4,61.1,7.4z M53.6,7.4L53.6,7.4c0.1,0,0.3,11.8-6.9,18.9c-6.8,6.8-17.8,7-18.9,7h-0.1  c0,0-0.2-11.8,7-18.9C41.6,7.6,52.6,7.4,53.6,7.4z M7.4,7.4h24.1c-0.7,0.5-1.3,1.1-1.9,1.7c-9.1,9.1-9.2,22.8-9.1,24.3l0.1,7.2  l7.2,0.1h0.2c2.5,0,15.4-0.4,24.1-9.1c2.2-2.3,4.1-4.9,5.4-7.8c1.4,2.9,3.2,5.5,5.4,7.8c8.7,8.7,21.6,9.1,24.1,9.1h0.2l7.2-0.1  l0.1-7.2c0-1.5,0-15.2-9.1-24.3C84.7,8.5,84,8,83.4,7.4h109.2v18.5c-0.5-0.7-1.1-1.3-1.7-1.9c-8.7-8.7-21.6-9.1-24.1-9.1h-0.2  l-7.2,0.1l-0.1,7.2c0,1.5,0,15.2,9.1,24.3c2.3,2.2,4.9,4.1,7.8,5.4c-2.9,1.4-5.5,3.2-7.8,5.4c-9.1,9.1-9.2,22.8-9.1,24.3l0.1,7.2  l7.2,0.1h0.2c2.5,0,15.4-0.4,24.1-9.1c0.6-0.6,1.2-1.3,1.7-1.9v114.8h-18.5c0.7-0.5,1.3-1.1,1.9-1.7c9.1-9.1,9.2-22.8,9.1-24.3  l-0.1-7.2l-7.2-0.1h-0.2c-3.3,0-6.5,0.5-9.7,1.3c-5.4,1.3-10.4,4-14.4,7.8c-2.2,2.3-4.1,4.9-5.4,7.8c-1.4-2.9-3.2-5.5-5.4-7.8  c-8.7-8.7-21.6-9.1-24.1-9.1h-0.2l-7.2,0.1l-0.1,7.2c0,1.5,0,15.2,9.1,24.3c0.6,0.6,1.3,1.2,1.9,1.7H7.4v-18.5  c0.5,0.7,1.1,1.3,1.7,1.9c8.7,8.7,21.6,9.1,24.1,9.1h0.2l7.2-0.1l0.1-7.2c0-1.5,0-15.2-9.1-24.3c-2.3-2.2-4.9-4.1-7.8-5.4  c2.9-1.4,5.5-3.2,7.8-5.4c9.1-9.1,9.2-22.8,9.1-24.3l-0.1-7.2l-7.2-0.1h-0.2c-2.5,0-15.4,0.4-24.1,9.1c-0.6,0.6-1.2,1.3-1.7,1.9V7.4  z M14.4,125.5c6.8-6.8,17.8-7,18.9-7h0.1c0,0,0.2,11.8-7,18.9c-6.8,6.8-17.8,7-18.9,7H7.4C7.4,144.4,7.2,132.7,14.4,125.5z   M7.4,151.9L7.4,151.9c1.1,0,12.1,0.2,18.9,7c7.2,7.2,7,18.9,7,18.9h-0.1c-1,0-12.1-0.2-18.9-7C7.2,163.6,7.4,151.9,7.4,151.9z"/>
<g transform="translate(30 30) scale(0.7)">
  
  <defs id="defs285458"/>
  <linearGradient id="3d_gradient2-logo-AB01AE2D2735437986BDF38AA15DFFAE" x1="30%" y1="120%" x2="-10%" y2="30%" spreadMethod="pad">
    <stop offset="0%" stop-color="#ffffff" stop-opacity="1" id="stop285435"/>
    <stop offset="100%" stop-color="#000000" stop-opacity="1" id="stop285437"/>
  </linearGradient>
  <linearGradient id="3d_gradient3-logo-AB01AE2D2735437986BDF38AA15DFFAE" x1="30%" y1="120%" x2="-10%" y2="30%" spreadMethod="pad" gradientTransform="rotate(-30)">
    <stop offset="0%" stop-color="#ffffff" stop-opacity="1" id="stop285440"/>
    <stop offset="50%" stop-color="#cccccc" stop-opacity="1" id="stop285442"/>
    <stop offset="100%" stop-color="#000000" stop-opacity="1" id="stop285444"/>
  </linearGradient>
  <path id="path285493" style="font-style:oblique;font-weight:normal;font-size:72px;line-height:1;font-family:Molle;font-variant-ligatures:none;text-align:center;text-anchor:middle;fill:#000000;stroke:#000000;stroke-width:0;stroke-linejoin:miter;stroke-miterlimit:2" d="m 133.39678,98.161624 q 14.77272,7.616156 11.88384,21.994926 -2.56061,12.86866 -14.37877,21.33835 -15.69191,11.29291 -38.9343,11.29291 -17.267647,0 -30.661578,-6.56564 -13.131296,-6.43434 -18.383815,-17.92422 -3.742407,-8.33837 -2.691904,-13.65655 0.393925,-2.03535 5.909079,-3.47979 3.873734,7.48484 16.348452,12.80301 5.252518,-5.51514 14.313126,-15.6919 9.06059,-10.176752 14.116137,-15.82321 5.12121,-5.712114 10.111093,-10.964633 11.03029,-11.621196 18.64645,-17.595937 2.36362,-1.969693 6.04039,-0.131308 0.91919,0.459596 1.51011,1.050504 -6.56566,5.515144 -19.10604,21.929263 5.71211,1.444444 10.2424,1.444444 4.5303,0 9.19192,-0.984848 4.72726,-1.050504 8.79797,-3.020197 9.32321,-4.398985 10.63635,-10.833321 2.49495,-12.540386 -15.69192,-17.267653 -7.09089,-1.904039 -14.57572,-1.904039 -7.41919,0 -14.1818,1.050504 -6.762629,0.984848 -12.343427,3.151511 -12.212101,4.792924 -13.984828,13.590892 -1.510092,7.419182 3.020203,12.474732 -7.287881,6.368678 -10.833317,6.368678 -4.070707,0 -6.696966,-4.398985 -2.691922,-4.530296 -1.641419,-9.914129 1.050504,-5.38383 4.13637,-9.454533 3.085848,-4.070701 7.616142,-7.222212 4.530295,-3.217167 10.045449,-5.5808 5.580798,-2.363633 11.621185,-3.939389 11.686868,-3.085855 20.550488,-3.085855 8.86362,0 14.64139,0.787878 5.84343,0.722222 10.89898,2.297977 5.05554,1.575756 9.19191,3.939389 4.13635,2.363633 6.89392,5.5808 5.77777,6.828274 3.87374,16.348463 -1.5101,7.616152 -9.12626,13.656548 -6.82827,5.580801 -17.00503,8.338374 z M 76.80091,128.3636 q 7.353526,1.5101 12.080793,1.5101 4.727266,0 8.075749,-0.19697 3.348468,-0.26262 7.353528,-1.31313 4.07069,-1.0505 7.2222,-2.95454 6.82827,-4.0707 8.27272,-11.1616 1.37878,-6.89393 -4.79293,-11.29291 -5.5808,-4.005048 -15.691894,-4.398988 -3.020203,4.070698 -5.974742,8.141408 -2.954539,4.0707 -5.843415,7.94443 -6.106069,8.1414 -10.702009,13.7222 z" stroke-miterlimit="2"/>
</g></svg>
