<?xml version="1.0" encoding="utf-8"?>
<!-- Generator: Adobe Illustrator 21.1.0, SVG Export Plug-In . SVG Version: 6.00 Build 0)  -->
<svg xmlns="http://www.w3.org/2000/svg" xmlns:xlink="http://www.w3.org/1999/xlink" version="1.1" id="Layer_1" x="0px" y="0px" viewBox="0 0 200 200" enable-background="new 0 0 200 200" xml:space="preserve">
<rect width="200" height="200" fill="#040404"/><path fill="#a9a42c" d="M27.9,52.9c-0.6-0.6-1.2-0.6-1.7,0l0.2,1.1c0.2,0.2,0.6,0.3,1.4,0.4C28,54.2,28,53.7,27.9,52.9z M42.4,50.3  c1.8-1.9,1.6-3.9-0.6-5.9c-2.1-1.9-4-1.9-5.7,0c-1.8,1.9-1.6,3.8,0.4,5.7C38.7,52.1,40.6,52.2,42.4,50.3z M144.7,161  c-0.8-0.8-2-1.3-3.6-1.6c1.5-3,2.5-5.1,3-6.1c3.3,1,6,0.3,8.1-2c2.1-2.2,2.6-4.5,1.7-6.9c4.1,2.2,7.3,2.2,9.4-0.1  c1-1,1.4-2.5,1.4-4.5c0-2-0.8-3.6-2.3-5.1c-0.6-0.6-1.3-1-2-1.3c-0.7-0.3-1.1-0.5-1.2-0.6c-0.3-0.2-0.1-0.9,0.4-1.8  c0.7-1.4,1-2.5,1-3c3.7,0.7,6.5,0,8.4-2c1.4-1.5,2-3.4,1.9-5.8c-0.1-2.4-1.2-4.4-3-6.2c-1-0.9-2.4-1.7-4.4-2.3  c0.2-1.6,0.4-2.8,0.6-3.6c3.9,1.4,6.9,0.9,9-1.4c1.3-1.3,1.9-3.2,1.8-5.4c-0.1-2.3-1-4.3-2.9-6c-1.1-1-2.2-1.6-3.4-1.8  c0.7-3.1,0.8-5.3,0.5-6.7c3.1,0.8,5.3,0.5,6.7-1c0.7-0.7,1-1.9,1.1-3.7c0-1.7-0.6-3.2-1.8-4.4c-0.8-0.8-2.1-1.3-3.8-1.6  c-1.7-0.3-3.2,0.2-4.3,1.3c-0.7,0.7-1,1.8-1.1,3.4c-2.8-1.8-4.4-2.7-4.8-2.9c-0.1-0.4-0.1-1.7,0.1-3.9c3.1,1.4,5.5,1.1,7.3-0.8  c2.7-2.8,2.4-5.7-0.7-8.7c-3.2-3-6.2-3.1-8.8-0.2c-0.9,1-1.3,2.2-1.4,3.6c-1.8-0.8-3-1.4-3.7-1.9c0.1-1.9,0.1-3.6-0.1-5  c2.7,1,4.9,0.7,6.6-1.2c2.4-2.6,2.1-5.3-0.9-8.2c-2.9-2.8-5.6-2.8-8.1-0.2c-0.7,0.8-1.1,1.8-1.2,2.9c-2.1-1.1-3.8-1.9-4.9-2.3  c0.4-3.8-0.8-7-3.5-9.5c-2.1-1.9-4.5-2.9-7.4-2.9c0.6-3.6,0-6.3-2-8.1c-3.3-3.1-6.4-3.1-9.2-0.1c-0.1,0.2-0.5,0.6-0.9,1.3  c-0.5,0.7-0.8,1.1-1,1.4c-2.6-1.3-4.7-2.1-6.2-2.5c0.3-3-0.6-5.4-2.5-7.3c-3.5-3.3-6.7-3.3-9.7-0.1c-1,1-1.5,2.5-1.5,4.3  c-3.5-2.7-6.8-3.3-9.9-1.7c2.2-3.1,2.2-5.7,0-7.8C89,17,86.8,17,84.8,19.1c-2.1,2.2-1.9,4.5,0.5,6.7c1.3,1.3,3,1.7,4.9,1.5l-3.3,4.9  c-2.2-0.3-4-0.5-5.2-0.6c0.4-3-0.2-5.3-2-7c-1.1-1-2.5-1.6-4.3-1.8c-1.8-0.2-3.2,0.3-4.3,1.5c-0.9,1-1.3,2.3-1.3,4  c0,1.7,0.7,3.2,2.1,4.5c0.8,0.7,2,1.3,3.6,1.5C74.7,36,74,37.2,73.4,38c-1.6-0.2-2.9-0.3-3.7-0.3c0.4-3.1-0.4-5.4-2.1-7.1  c-1.2-1.1-2.6-1.7-4.3-1.9c-1.7-0.2-3.1,0.4-4.3,1.7c-1,1-1.4,2.3-1.3,3.9c0,2,0.7,3.5,2,4.8c0.6,0.6,1.3,1,2.1,1.3  c0.8,0.3,1.2,0.4,1.3,0.5c0.3,0.2,0.1,0.7-0.4,1.4c-0.6,1-1,1.8-1,2.2c-1.3-0.2-3-0.3-4.9-0.4c0.2-2.3,0.2-3.6,0.1-3.9  c-0.1-1-0.7-2-1.8-3c-2.9-2.7-5.5-2.7-7.8-0.2c-2.3,2.5-2,5,0.9,7.7c1.2,1.1,2.4,1.6,3.6,1.6c-1.2,2.9-2.2,4.9-3,6.1  c-3.3-0.9-6-0.3-8,1.9c-1.7,1.8-2.2,4.3-1.6,7.4c-3.7-2.7-6.8-2.7-9.3,0c-1,1.1-1.5,2.5-1.5,4.3c0,1.7,0.8,3.3,2.4,4.7  c1.1,1,2.2,1.6,3.5,1.9c-0.1,0.1-0.5,1-1.2,2.9c-0.5,1.1-0.6,2.2-0.3,3.3c-3.4-1-6.1-0.4-8,1.6c-1.2,1.3-1.7,3-1.6,5.1  c0.1,2.1,1,3.9,2.6,5.4c0.3,0.2,0.8,0.6,1.6,1c0.8,0.4,1.3,0.7,1.4,0.9c0.3,0.2,0.3,1,0,2.2c-0.4,1.7-0.6,2.8-0.7,3.4  c-2.9-1-5.3-0.5-7.2,1.5c-0.9,1-1.3,2.4-1.3,4.4c0,2,0.7,3.7,2.3,5.1c1.7,1.6,3.8,2.2,6.3,1.9c-3.2,4.3-2.9,8.2,0.7,11.6  c1.5,1.4,3.4,2.2,5.5,2.5c-1.9,4.4-1.3,8.1,1.8,11c1.6,1.5,3.9,2.3,6.8,2.4c-1.8,4.1-1.3,7.5,1.6,10.1c1.5,1.4,3.3,2.2,5.4,2.3  c2.1,0.1,3.8-0.6,5.2-2.1c1.8-1.9,2.1-4.4,1.1-7.4c2,1.4,3.5,2.3,4.5,2.7c-0.9,3.5-1.2,5.7-0.9,6.7c-3.4-1.4-6-1.1-7.7,0.8  c-1,1.1-1.5,2.6-1.3,4.5c0.1,1.9,0.9,3.5,2.2,4.7c1.2,1.1,2.7,1.7,4.6,1.8c1.9,0.1,3.4-0.5,4.5-1.6c0.4-0.5,0.9-1.7,1.4-3.6l3.1,1.5  c1.1,0.6,2.2,0.8,3.4,0.7c-1.5,3.4-0.8,6.4,2.1,9.1c1.2,1.2,3.1,1.9,5.5,2.1c2.4,0.3,4.3-0.3,5.6-1.7c1.6-1.7,2.1-3.3,1.6-4.9  c2,1.3,3.8,1.8,5.4,1.7c-0.9,3.9-0.2,6.9,2.1,9.1c1.4,1.3,3.2,2.1,5.4,2.2c2.1,0.1,3.9-0.5,5.2-1.9c0.7-0.7,1.2-2,1.7-3.7  c5.1,2.2,9.1,1.9,11.9-1.2c0.4-0.5,1.1-1.5,1.9-3.1c2.9,0.3,4.9,0.5,6,0.5c-0.9,2.7-0.4,5,1.5,6.7c1,0.9,2.3,1.4,3.9,1.5  c1.6,0.1,2.9-0.4,3.8-1.4c0.8-0.9,1.2-2.1,1-3.7c-0.1-1.6-0.7-2.9-1.8-3.9c-0.8-0.8-2-1.3-3.7-1.7c1.3-1.9,2-3.3,2.2-4.2  c0.6,0.1,1.5,0.2,2.8,0.3c1.3,0.1,2.2,0.2,2.7,0.2c-0.8,2.3-0.3,4.4,1.6,6.1c2.7,2.5,5.1,2.6,7.2,0.3  C147.7,165.9,147.4,163.5,144.7,161z M24.9,70.1c-2-1.8-3.7-1.9-5.3-0.3c-1.6,1.7-1.5,3.5,0.5,5.4c1.9,1.7,3.6,1.8,5.3,0  C26.9,73.6,26.8,71.9,24.9,70.1z M20.5,89.1c-2-1.8-3.7-1.9-5.3-0.3c-1.6,1.7-1.5,3.5,0.5,5.4c1.9,1.8,3.6,1.8,5.3,0  C22.5,92.6,22.4,90.9,20.5,89.1z M98.8,18.4c0.3,0.2,0.9,0.4,1.8,0.5c0.9,0.1,1.6-0.1,2-0.5c0.3-0.3,0.5-0.9,0.5-1.8  c0-0.9-0.2-1.5-0.7-2c-0.4-0.3-1-0.5-1.9-0.6c-0.9-0.1-1.6,0.1-2,0.5c-0.3,0.3-0.4,0.9-0.4,1.8C97.9,17.2,98.2,17.9,98.8,18.4z   M12.9,109.4l-0.9,0.9c0.2,1.1,0.4,1.7,0.7,2c0.2,0.2,0.8,0.3,1.9,0.4l0.9-0.9c-0.2-1.1-0.4-1.7-0.5-1.8  C14.6,109.7,14,109.5,12.9,109.4z M23.4,121.8c-1.6-1.5-3-1.6-4.3-0.2c-1.3,1.4-1.2,2.9,0.4,4.4c1.6,1.5,3.1,1.5,4.4,0.1  C25.2,124.8,25,123.3,23.4,121.8z M118.2,25.6c1.7,1.6,3.3,1.6,4.8,0c1.4-1.5,1.2-3.1-0.4-4.6c-1.8-1.7-3.4-1.8-4.8-0.2  C116.2,22.3,116.4,23.9,118.2,25.6z M31.3,134.3c-1.7-1.6-3.3-1.6-4.8,0c-1.5,1.6-1.4,3.2,0.3,4.8c1.8,1.7,3.4,1.7,4.9,0.1  C33.2,137.6,33.1,136,31.3,134.3z M139.2,31.2c0.6,0.6,1.3,0.8,2,0.5l0.8-0.8c0.2-0.8,0.1-1.5-0.6-2.1c-0.5-0.5-1.2-0.6-2-0.3  l-0.8,0.8C138.5,30.1,138.7,30.7,139.2,31.2z M39.1,147.8c-0.4-0.4-1.2-0.7-2.2-0.8c-1-0.1-1.7,0.1-2.1,0.6  c-1.3,1.4-1.2,2.9,0.4,4.4c0.4,0.4,1.1,0.7,2.1,0.7c0.9,0.1,1.7-0.2,2.2-0.7c0.4-0.4,0.5-1.1,0.5-2C39.9,149,39.6,148.3,39.1,147.8z   M145.1,46.2c0.8,0.7,1.9,1.2,3.2,1.4c1.4,0.2,2.5-0.2,3.4-1.2c0.7-0.7,1-1.8,1-3.1c0-1.4-0.5-2.6-1.6-3.6c-1-0.9-2.2-1.4-3.6-1.4  c-1.4,0-2.5,0.4-3.3,1.3c-0.6,0.6-0.9,1.6-0.9,3C143.3,43.9,143.9,45.1,145.1,46.2z M67.3,166.5c-2.1-1.9-4-1.9-5.8,0  c-1.7,1.8-1.5,3.7,0.5,5.6c2.1,2,4.1,2.1,5.8,0.3C69.6,170.5,69.4,168.5,67.3,166.5z M87.7,173.2c-0.9-0.8-2.1-1.3-3.5-1.3  c-1.5,0-2.5,0.3-3.2,1c-0.6,0.6-0.8,1.7-0.7,3.2c0.1,1.5,0.6,2.7,1.5,3.5c0.7,0.7,1.8,1.1,3.3,1.2c1.5,0.1,2.6-0.2,3.3-1  c0.6-0.6,0.9-1.7,0.8-3.1C89.1,175.1,88.6,174,87.7,173.2z M176.7,97.1c2,1.8,3.7,1.9,5.3,0.3c1.6-1.7,1.5-3.5-0.5-5.4  c-1.9-1.8-3.6-1.8-5.3,0C174.7,93.6,174.9,95.3,176.7,97.1z M106.7,180.8c-1.6-1.5-3-1.6-4.3-0.2c-1.3,1.4-1.2,2.9,0.4,4.4  c1.5,1.4,2.9,1.4,4.3,0C108.3,183.6,108.2,182.3,106.7,180.8z M171.3,117.7c1.1,1,2.4,1.5,4,1.6c1.6,0.1,2.9-0.4,3.8-1.4  c0.8-0.9,1.2-2.1,1-3.7c-0.1-1.6-0.8-2.9-1.9-4c-1-0.9-2.3-1.4-3.9-1.5c-1.6-0.1-2.8,0.4-3.7,1.3  C168.3,112.6,168.5,115.2,171.3,117.7z M120.2,173.6c-1-0.9-2.2-1.4-3.5-1.4c-1.4,0-2.4,0.4-3.2,1.3c-0.6,0.6-0.9,1.6-1,2.9  c-0.1,1.3,0.5,2.5,1.6,3.6c0.8,0.7,1.9,1.2,3.3,1.4c1.4,0.2,2.5-0.2,3.4-1.1c0.7-0.7,1-1.8,1-3.1  C121.9,175.9,121.3,174.7,120.2,173.6z M187.9,108.6c0.1-0.2,0.2-0.6,0.1-1.5c-0.6-0.6-1.2-0.6-1.7,0l0,1.1  C186.5,108.4,187,108.5,187.9,108.6z M165.7,132.3c-0.1,1.5,0.4,2.8,1.6,3.9c0.8,0.7,1.9,1.2,3.3,1.4c1.4,0.2,2.6-0.2,3.5-1.3  c2-2.1,1.7-4.4-0.8-6.7c-1-0.9-2.2-1.4-3.5-1.4c-1.3,0-2.4,0.4-3.1,1.2C166.1,130.3,165.8,131.2,165.7,132.3z M156.3,155.6  c-2.1-2-4.1-2.1-5.9-0.2c-1.7,1.8-1.5,3.7,0.7,5.7c2.1,1.9,3.9,2,5.6,0.1C158.5,159.4,158.4,157.5,156.3,155.6z M183.1,127.7  c0.1-0.2,0.2-0.6,0.2-1.3c-0.6-0.6-1.2-0.6-1.7,0l0,1.1C181.9,127.6,182.4,127.7,183.1,127.7z M166.5,151.1c-1.2,0-1.8,0-1.8,0.1  c-0.2,0.2-0.2,0.9,0.1,1.8c0.8,0.3,1.5,0.4,2,0.3C166.9,152.6,166.8,151.8,166.5,151.1z"/>
<g transform="translate(30 30) scale(0.7)">
  
  <defs id="defs285458"/>
  <linearGradient id="3d_gradient2-logo-AB01AE2D2735437986BDF38AA15DFFAE" x1="30%" y1="120%" x2="-10%" y2="30%" spreadMethod="pad">
    <stop offset="0%" stop-color="#ffffff" stop-opacity="1" id="stop285435"/>
    <stop offset="100%" stop-color="#000000" stop-opacity="1" id="stop285437"/>
  </linearGradient>
  <linearGradient id="3d_gradient3-logo-AB01AE2D2735437986BDF38AA15DFFAE" x1="30%" y1="120%" x2="-10%" y2="30%" spreadMethod="pad" gradientTransform="rotate(-30)">
    <stop offset="0%" stop-color="#ffffff" stop-opacity="1" id="stop285440"/>
    <stop offset="50%" stop-color="#cccccc" stop-opacity="1" id="stop285442"/>
    <stop offset="100%" stop-color="#000000" stop-opacity="1" id="stop285444"/>
  </linearGradient>
  <path id="path285493" style="font-style:oblique;font-weight:normal;font-size:72px;line-height:1;font-family:Molle;font-variant-ligatures:none;text-align:center;text-anchor:middle;fill:#000000;stroke:#000000;stroke-width:0;stroke-linejoin:miter;stroke-miterlimit:2" d="m 133.39678,98.161624 q 14.77272,7.616156 11.88384,21.994926 -2.56061,12.86866 -14.37877,21.33835 -15.69191,11.29291 -38.9343,11.29291 -17.267647,0 -30.661578,-6.56564 -13.131296,-6.43434 -18.383815,-17.92422 -3.742407,-8.33837 -2.691904,-13.65655 0.393925,-2.03535 5.909079,-3.47979 3.873734,7.48484 16.348452,12.80301 5.252518,-5.51514 14.313126,-15.6919 9.06059,-10.176752 14.116137,-15.82321 5.12121,-5.712114 10.111093,-10.964633 11.03029,-11.621196 18.64645,-17.595937 2.36362,-1.969693 6.04039,-0.131308 0.91919,0.459596 1.51011,1.050504 -6.56566,5.515144 -19.10604,21.929263 5.71211,1.444444 10.2424,1.444444 4.5303,0 9.19192,-0.984848 4.72726,-1.050504 8.79797,-3.020197 9.32321,-4.398985 10.63635,-10.833321 2.49495,-12.540386 -15.69192,-17.267653 -7.09089,-1.904039 -14.57572,-1.904039 -7.41919,0 -14.1818,1.050504 -6.762629,0.984848 -12.343427,3.151511 -12.212101,4.792924 -13.984828,13.590892 -1.510092,7.419182 3.020203,12.474732 -7.287881,6.368678 -10.833317,6.368678 -4.070707,0 -6.696966,-4.398985 -2.691922,-4.530296 -1.641419,-9.914129 1.050504,-5.38383 4.13637,-9.454533 3.085848,-4.070701 7.616142,-7.222212 4.530295,-3.217167 10.045449,-5.5808 5.580798,-2.363633 11.621185,-3.939389 11.686868,-3.085855 20.550488,-3.085855 8.86362,0 14.64139,0.787878 5.84343,0.722222 10.89898,2.297977 5.05554,1.575756 9.19191,3.939389 4.13635,2.363633 6.89392,5.5808 5.77777,6.828274 3.87374,16.348463 -1.5101,7.616152 -9.12626,13.656548 -6.82827,5.580801 -17.00503,8.338374 z M 76.80091,128.3636 q 7.353526,1.5101 12.080793,1.5101 4.727266,0 8.075749,-0.19697 3.348468,-0.26262 7.353528,-1.31313 4.07069,-1.0505 7.2222,-2.95454 6.82827,-4.0707 8.27272,-11.1616 1.37878,-6.89393 -4.79293,-11.29291 -5.5808,-4.005048 -15.691894,-4.398988 -3.020203,4.070698 -5.974742,8.141408 -2.954539,4.0707 -5.843415,7.94443 -6.106069,8.1414 -10.702009,13.7222 z" stroke-miterlimit="2"/>
</g></svg>
