<?xml version="1.0" encoding="utf-8"?>
<!-- Generator: Adobe Illustrator 21.1.0, SVG Export Plug-In . SVG Version: 6.00 Build 0)  -->
<svg xmlns="http://www.w3.org/2000/svg" xmlns:xlink="http://www.w3.org/1999/xlink" version="1.1" id="Layer_1" x="0px" y="0px" viewBox="0 0 200 200" enable-background="new 0 0 200 200" xml:space="preserve">
<rect width="200" height="200" fill="#a9a42c"/><path fill="#040404" d="M169.8,171.6c-10.5,1.2-21.7,2.2-33.1,3.2c-11.4,0.9-23.2,1.7-35.1,2.4c-11.9,0.6-24.1,1.1-36.2,1.3  c-12.2,0.3-24.4,0.2-36.5-0.3l-0.7,0c-3.7-0.2-6.6-3.3-6.5-7.1l0,0c0.6-11.7,1.5-23.4,2.4-35.1c0.9-11.7,1.7-23.4,2-35.1  c0.3-11.7,0.2-23.4-0.1-35.1c-0.3-11.7-1.1-23.4-1.8-35.1c-0.2-2.4,1.7-4.5,4.1-4.7h0l0.6,0c11.7-0.7,23.4-1.7,35.1-2.2  c11.7-0.6,23.4-0.9,35.1-1.2c11.7-0.3,23.4-0.6,35.1-0.9c11.7-0.3,23.4-0.3,35.1-0.2l0.2,0c5,0,9,4.1,9,9.1v0  c-0.2,12.2-0.4,24.5-1,36.7l-0.8,18.2l-1.1,18c-0.3,6-0.8,11.8-1.2,17.7c-0.4,5.9-0.9,11.6-1.4,17.3  C171.9,149.8,170.9,160.9,169.8,171.6z M168.6,170.4l-3-37l-1.4-17.8c-0.4-5.9-0.9-11.7-1.2-17.4L161.9,81l-0.8-16.9  c-0.6-11.2-0.8-22.4-1-33.6l9.2,9.2c-11.7,0.1-23.4,0.1-35.1-0.2c-11.7-0.2-23.4-0.5-35.1-0.9c-11.7-0.3-23.4-0.6-35.1-1.2  c-11.7-0.5-23.4-1.5-35.1-2.2l4.7-4.7C32.7,42.3,32,54,31.7,65.7c-0.3,11.7-0.4,23.4-0.1,35.1c0.3,11.7,1.1,23.4,2,35.1  c0.9,11.7,1.8,23.4,2.4,35.1l-7.2-7.2c11.3-0.6,22.4-0.6,33.7-0.3c11.2,0.2,22.5,0.7,34,1.3c11.5,0.6,23.1,1.4,35.1,2.4  C143.5,168.2,155.8,169.2,168.6,170.4z"/>
<g transform="translate(30 30) scale(0.7)">
  
  <defs id="defs285458"/>
  <linearGradient id="3d_gradient2-logo-AB01AE2D2735437986BDF38AA15DFFAE" x1="30%" y1="120%" x2="-10%" y2="30%" spreadMethod="pad">
    <stop offset="0%" stop-color="#ffffff" stop-opacity="1" id="stop285435"/>
    <stop offset="100%" stop-color="#000000" stop-opacity="1" id="stop285437"/>
  </linearGradient>
  <linearGradient id="3d_gradient3-logo-AB01AE2D2735437986BDF38AA15DFFAE" x1="30%" y1="120%" x2="-10%" y2="30%" spreadMethod="pad" gradientTransform="rotate(-30)">
    <stop offset="0%" stop-color="#ffffff" stop-opacity="1" id="stop285440"/>
    <stop offset="50%" stop-color="#cccccc" stop-opacity="1" id="stop285442"/>
    <stop offset="100%" stop-color="#000000" stop-opacity="1" id="stop285444"/>
  </linearGradient>
  <path id="path285493" style="font-style:oblique;font-weight:normal;font-size:72px;line-height:1;font-family:Molle;font-variant-ligatures:none;text-align:center;text-anchor:middle;fill:#000000;stroke:#000000;stroke-width:0;stroke-linejoin:miter;stroke-miterlimit:2" d="m 133.39678,98.161624 q 14.77272,7.616156 11.88384,21.994926 -2.56061,12.86866 -14.37877,21.33835 -15.69191,11.29291 -38.9343,11.29291 -17.267647,0 -30.661578,-6.56564 -13.131296,-6.43434 -18.383815,-17.92422 -3.742407,-8.33837 -2.691904,-13.65655 0.393925,-2.03535 5.909079,-3.47979 3.873734,7.48484 16.348452,12.80301 5.252518,-5.51514 14.313126,-15.6919 9.06059,-10.176752 14.116137,-15.82321 5.12121,-5.712114 10.111093,-10.964633 11.03029,-11.621196 18.64645,-17.595937 2.36362,-1.969693 6.04039,-0.131308 0.91919,0.459596 1.51011,1.050504 -6.56566,5.515144 -19.10604,21.929263 5.71211,1.444444 10.2424,1.444444 4.5303,0 9.19192,-0.984848 4.72726,-1.050504 8.79797,-3.020197 9.32321,-4.398985 10.63635,-10.833321 2.49495,-12.540386 -15.69192,-17.267653 -7.09089,-1.904039 -14.57572,-1.904039 -7.41919,0 -14.1818,1.050504 -6.762629,0.984848 -12.343427,3.151511 -12.212101,4.792924 -13.984828,13.590892 -1.510092,7.419182 3.020203,12.474732 -7.287881,6.368678 -10.833317,6.368678 -4.070707,0 -6.696966,-4.398985 -2.691922,-4.530296 -1.641419,-9.914129 1.050504,-5.38383 4.13637,-9.454533 3.085848,-4.070701 7.616142,-7.222212 4.530295,-3.217167 10.045449,-5.5808 5.580798,-2.363633 11.621185,-3.939389 11.686868,-3.085855 20.550488,-3.085855 8.86362,0 14.64139,0.787878 5.84343,0.722222 10.89898,2.297977 5.05554,1.575756 9.19191,3.939389 4.13635,2.363633 6.89392,5.5808 5.77777,6.828274 3.87374,16.348463 -1.5101,7.616152 -9.12626,13.656548 -6.82827,5.580801 -17.00503,8.338374 z M 76.80091,128.3636 q 7.353526,1.5101 12.080793,1.5101 4.727266,0 8.075749,-0.19697 3.348468,-0.26262 7.353528,-1.31313 4.07069,-1.0505 7.2222,-2.95454 6.82827,-4.0707 8.27272,-11.1616 1.37878,-6.89393 -4.79293,-11.29291 -5.5808,-4.005048 -15.691894,-4.398988 -3.020203,4.070698 -5.974742,8.141408 -2.954539,4.0707 -5.843415,7.94443 -6.106069,8.1414 -10.702009,13.7222 z" stroke-miterlimit="2"/>
</g></svg>
