<?xml version="1.0" encoding="utf-8"?>
<!-- Generator: Adobe Illustrator 21.1.0, SVG Export Plug-In . SVG Version: 6.00 Build 0)  -->
<svg xmlns="http://www.w3.org/2000/svg" xmlns:xlink="http://www.w3.org/1999/xlink" version="1.1" id="Layer_1" x="0px" y="0px" viewBox="0 0 200 200" enable-background="new 0 0 200 200" xml:space="preserve">
<rect width="200" height="200" fill="#a9a42c"/><path fill="#040404" d="M163.4,144.1c-0.4,0.6-0.4,1.2,0.2,1.6c0.6,0.4,1.3,0.3,1.7-0.3c0.4-0.6,0.4-1.4-0.2-1.8  C164.6,143.3,163.9,143.6,163.4,144.1z M146.9,146.9c0.3-0.2,0.3-0.8-0.1-1.1c-0.3-0.3-0.8-0.4-1.1-0.1s-0.2,0.8,0.1,1.1  C146.1,147.1,146.6,147.2,146.9,146.9z M175,117.9c-0.3,0.6-0.1,1.3,0.3,1.5c0.5,0.3,1,0,1.4-0.6c0.4-0.6,0.3-1.3-0.2-1.5  C176,117,175.3,117.3,175,117.9z M160,130.2c0.2-0.4,0.1-1-0.4-1.3c-0.5-0.2-1.2-0.1-1.4,0.4s0.1,0.9,0.6,1.2  C159.3,130.8,159.8,130.7,160,130.2z M187.4,112.6c-0.1-0.8-0.3-1.7-0.5-2.6c-0.3-0.9-0.7-1.7-1.4-2.4c-1.3-1.4-3.7-1.5-6.2-2.1  c-1.1-0.3-2.1-1-3.3-1.3c-0.9-0.3-1.7-0.7-2.6-1.2v-0.1c0-0.8,0-1.5,0.1-2.1h-0.2c0-0.6,0-1.2-0.1-1.9c-0.1-2.7-0.1-6-0.5-7.7l0.9,1  c1.4,1.5,2.6,2.6,3.4,3.2c1.2,1.1,2.5,1.8,3.8,2.1c1.5,0.4,2.9,0.2,3.8-0.9c0.9-1.1,0.9-2.9,0.2-4.6c-0.6-1.4-1.5-2.7-2.8-3.7  c-1.4-1.1-3.2-1.7-5.5-1.9c-1.6-0.1-3.4,0-5.3-0.4v-0.1c-0.6-2.5,0.2-2.7-0.4-5.2c-0.6-2.5-1.2-2.4-2-4.8c-0.4-1.2-0.7-1.8-0.9-2.4  s-0.4-1.2-1-2.4c-1.1-2.3-1.1-2.3-2.3-4.6c-0.2-0.4-0.3-0.7-0.5-1c1.1,0.8,2,1.7,3.1,2.5c0.9,0.7,2.8,1.5,4.8,2.3  c1.9,0.8,3.7,1.6,4.5,1.6c1.7,0.1,3-0.4,3.7-1.7c1.4-2.6-0.7-6.6-4.5-8.6c-1.7-1-3.9-0.3-6.4,0c-2,0.2-4.3,0.4-6.8,0.2  c-0.7-1.1-1.1-1.6-1.5-2.1c-0.5-0.5-0.9-0.9-1.7-1.9c-1.6-2-1.2-2.3-2.9-4.3c-1.8-1.9-2.1-1.6-3.9-3.5c-0.8-0.9-1.3-1.4-1.7-1.8  c0.6,0.1,1.3,0,1.9,0c0.6,0,1.2,0,1.8,0.1c2.1,0.3,4.1,0.6,5.2,0.6c1.8,0,3.6-0.3,4.8-1c1.5-0.8,2.3-2.2,2.1-3.7  c-0.2-1.6-1.4-3-3.2-4.1c-1.4-0.8-3.3-1.7-5.1-1.6c-1.9,0.1-3.5,2-5.5,3.5c-0.9,0.7-2,1-3.1,1.7c-0.8,0.5-1.6,0.9-2.5,1.3h-0.1  c-0.5-0.4-1-0.8-1.4-1.1l0.1-0.2c-0.5-0.4-1.1-0.8-1.7-1.3c-1.1-0.8-2.2-1.8-3.3-2.5c-1.2-0.7-2.2-1.4-2.9-1.9h1.3  c1.9-0.1,3.7-0.6,4.7-0.7c1.6-0.3,3-0.8,4-1.6c1.2-1,2-2.2,1.6-3.6c-0.3-1.4-1.7-2.5-3.5-3c-1.4-0.4-3-0.5-4.6-0.2  c-1.7,0.4-3.3,1.4-4.9,3.2c-1.1,1.2-2.2,2.7-3.7,3.9h-0.1c-2.3-1.1-1.9-1.9-4.3-3c-2.4-0.9-2.6-0.5-5-1.4c-2.4-1-2.5-0.7-5-1.4  c-1.3-0.3-1.9-0.5-2.5-0.6c-0.6-0.2-1.2-0.3-2.5-0.5c-0.4-0.1-0.8-0.1-1.1-0.2c1.3-0.3,2.6-0.7,3.9-0.9c1-0.2,2.9-1.2,4.8-2.2  c1.8-1,3.6-2.1,4.1-2.6c1.1-1.3,1.6-2.6,0.9-4c-1.2-2.5-5.6-3.5-9.5-1.8c-1.8,0.9-2.7,2.9-4,5.1c-1.1,1.7-2.3,3.6-4,5.4  c-2.6-0.3-2.6,0.2-5.2,0.1c-2.6-0.1-2.6-0.5-5.2-0.4c-2.6,0.2-2.6,0.6-5.1,0.8c-1.2,0.1-1.9,0.2-2.5,0.3c0.9-0.9,1.5-2.2,2.4-2.9  c1.6-1.4,3-2.7,3.7-3.6c1.2-1.4,2-2.9,2.3-4.4c0.3-1.7-0.2-3.1-1.6-4c-1.4-0.9-3.2-0.8-5.2-0.1c-1.5,0.5-3.4,1.6-4.5,3  c-1.1,1.6-0.6,3.9-0.7,6.5c0,1.1-0.5,2.2-0.6,3.5c-0.1,0.9-0.3,1.8-0.6,2.8h-0.1c-0.6,0.1-1.2,0.3-1.7,0.4l-0.1-0.4  c-0.6,0.1-1.3,0.3-2.1,0.5c-1.3,0.3-2.8,0.6-4.1,1c-1.3,0.4-2.5,0.9-3.3,1.1l0.8-1.1c1.2-1.6,1.9-3.3,2.4-4.1  c0.8-1.4,1.2-2.8,1.2-4.1c0-1.6-0.5-2.9-1.8-3.5c-0.7-0.3-1.4-0.4-2.2-0.2c-0.8,0.2-1.6,0.6-2.3,1.1c-1.2,0.8-2.3,2-3,3.5  c-0.8,1.5-0.9,3.5-0.6,5.8c0.2,1.6,0.8,3.4,0.8,5.3h-0.1c-2.3,1.1-2.7,0.3-5,1.5c-2.2,1.3-2,1.7-4.2,3c-1.1,0.6-1.6,1-2.1,1.4  c-0.5,0.4-1,0.8-2.1,1.6c-2.1,1.6-2.1,1.5-4,3.2c-0.3,0.3-0.6,0.5-0.9,0.7c0.6-1.2,1.1-2.5,1.7-3.6c0.5-1,0.9-3,1.2-5.1  c0.3-2.1,0.6-4.1,0.5-4.8c-0.3-1.7-1-2.8-2.5-3.2c-2.7-0.6-6.2,2.2-7.3,6.3c-0.5,2,0.6,3.9,1.4,6.3c0.7,1.9,1.4,4.1,1.7,6.5  c-1.8,1.9-1.4,2.2-3.2,4.1c-1.8,1.9-1.9,1.8-3.5,3.8c-1.5,2.1-1.3,2.3-2.6,4.5c-0.6,1.1-1,1.6-1.4,2.1c-0.2-1.2-0.6-2.5-0.8-3.7  c-0.3-2.2-0.2-4.1-0.5-5.2c-0.4-1.8-1-3.4-2-4.5c-1.1-1.3-2.6-1.8-4.1-1.3s-2.8,1.9-3.3,4c-0.4,1.6-0.9,3.6-0.4,5.4  c0.5,1.9,2.7,2.9,4.6,4.5c0.8,0.7,1.4,1.7,2.3,2.6c0.7,0.7,1.3,1.4,1.9,2.2v0.1c-0.3,0.7-0.6,1.4-0.9,1.9l0.3,0.1  c-0.3,0.5-0.5,1.1-0.9,1.7c-0.7,1.2-1.1,2.6-1.7,3.9c-0.5,1.3-1,2.5-1.3,3.2l-0.7-1c-0.5-1.9-1.3-3.5-1.7-4.4  c-0.7-1.5-1.6-2.8-2.6-3.6c-1.2-1-2.6-1.4-3.8-0.8c-1.2,0.7-1.9,2.3-2.1,4.1c-0.1,1.5,0,3,0.8,4.5c0.8,1.6,2.3,2.9,4.3,4.1  c1.4,0.8,3.1,1.5,4.6,2.7v0.1c-0.7,2.5-1.5,2.3-1.9,4.8c-0.4,2.6,0,2.6-0.4,5.2c-0.1,2.6-0.1,2.6-0.3,5.2c-0.2,2.6-0.1,2.6,0.1,5.2  v1.1c-0.6-1.2-1.2-2.4-1.8-3.5c-0.5-1-1.8-2.6-3.2-4.1c-1.4-1.5-2.8-3-3.5-3.4c-1.6-0.8-2.9-1-4.1,0c-1.1,0.9-1.6,2.4-1.6,4.2  c0,0.9,0.2,1.8,0.4,2.8c0.3,0.9,0.9,1.9,1.5,2.7c1.2,1.6,3.4,1.9,5.8,2.8c1.9,0.7,4,1.5,6.1,2.7c0.4,2.6,0.8,2.5,1.2,5.1  c0.4,2.6,0.2,2.6,0.8,5.1c0.3,1.3,0.6,1.9,0.9,2.4c0.3,0.6,0.5,1.2,1,2.4c0.4,1.2,0.6,1.8,0.8,2.4c-1.1-0.6-2.3-1.1-3.4-1.7  c-1.9-1.2-3.3-2.4-4.4-2.8c-1.6-0.8-3.3-1.3-4.7-1.3c-1.7,0.1-3,0.9-3.6,2.4c-0.5,1.5-0.2,3.4,1.1,5.1c1,1.3,2.3,3,3.9,3.7  c1.8,0.7,3.9-0.3,6.4-0.8c1.1-0.2,2.2,0,3.5-0.2c0.9-0.1,1.9-0.1,2.9-0.1v0.1c0.4,0.7,0.7,1.4,1,1.9l4.6-2.2  c-0.3-0.5-1.2-1.7-1.2-1.7c-0.4-0.4-0.7-0.1-1.3-1.6c-0.4-1.1-0.6-1.7-0.7-2.2c0.4-0.3,0.8-0.6,1.1-0.8c1-0.7,2.2-1,3.2-1.6  c2.2-1.2,3.7-2.4,4.7-3.7c0.9-1.2,2.1-2.3,2.3-3.4c0.5-1.6,0.1-2.8-1-3.4c-1.1-0.6-2.7-0.5-4.3,0c-1.4,0.5-2.9,1.3-3.9,2.5  c-0.7,0.8-1.6,2.3-2.4,4.1c-0.3,0.5-0.4,1.1-0.6,1.7c-0.1-0.8-0.2-1.4-0.6-2.9c-0.6-2.3-1.4-2.1-1.7-4.6c-0.4-2.4-0.3-2.4-0.6-4.8  c-0.2-2.4-0.3-2.4-0.4-4.8c-0.1-2.4,0.1-2.4,0.3-4.9v-1.7l0.3-0.2c0.9-0.7,2-1.2,3-1.7c1.1-0.5,2.3-0.6,3.3-0.9  c2.4-0.7,4.1-1.4,5.3-2.4c1.1-0.9,2.2-1.7,2.6-2.7c0.5-1.2,0.3-2.6-0.7-3.5c-1-0.9-2.6-1.3-4.3-1.1c-1.4,0.1-2.9,0.7-4.2,1.7  c-0.4,0.3-0.9,0.8-1.4,1.4c-0.5,0.6-1,1.4-1.6,2.2c-0.6,1-0.9,2.2-1.5,3.3c-0.4,0.6-0.6,1.2-0.9,1.7v-1.1c0.4-2.4,1-2.3,1.4-4.7  c0.4-2.4,0-2.5,0.7-4.8s0.8-2.3,1.6-4.6c0.3-0.8,0.8-2,1.4-3.2c0.6-1.2,1.1-2.5,1.8-3.6c0.4-0.7,0.7-1.3,1-1.7l-0.3-0.1  c0.2-0.6,0.5-1.7,0.5-1.7c0.1-0.6-0.4-0.6,0.5-2.1c0.6-1,0.9-1.5,1.3-1.9c0.5,0.1,0.9,0.2,1.4,0.4c1.2,0.3,2.2,1.1,3.2,1.5  c2.3,0.9,4.2,1.4,5.8,1.4c1.5,0,3.1,0.2,4.1-0.3c1.1-0.6,1.7-1.7,1.5-2.9s-1.3-2.4-2.7-3.4c-1.2-0.8-2.8-1.5-4.5-1.5  c-1,0-2.8,0.2-4.7,0.7c-0.6,0.1-1.1,0.4-1.7,0.6c0.5-0.6,1-1,1.9-2.3c1.4-1.9,0.8-2.4,2.5-4.2c1.6-1.8,1.7-1.7,3.3-3.5  c1.8-1.6,1.7-1.7,3.5-3.4c1.8-1.7,2.1-1.3,4-2.8c0.6-0.4,1-0.8,1.3-1.1l0.3,0.1c1.2,0.3,2.2,0.7,3.2,1.3c1.1,0.6,1.9,1.5,2.8,2.1  c2,1.4,3.7,2.3,5.1,2.6c1.4,0.2,2.7,0.7,3.7,0.4c1.3-0.4,2.2-1.5,2.2-2.9c0.1-1.4-0.7-2.9-1.8-4c-1-1-2.3-1.9-3.9-2.2  c-0.9-0.2-2.8-0.4-4.7-0.1c-1.1,0.1-2.3,0.7-3.5,0.9c-0.7,0.1-1.3,0.2-1.9,0.4c0.2-0.2,0.5-0.4,0.9-0.6c2.1-1.2,2.4-0.7,4.5-1.9  c2.2-1.1,2-1.4,4.2-2.4c1.1-0.5,1.7-0.7,2.2-0.9c0.6-0.1,1.2-0.3,2.3-0.7c0.9-0.3,2.1-0.6,3.4-1c1.3-0.4,2.7-0.5,4-0.8  c0.6-0.1,1.1-0.2,1.6-0.3l0.1,0.4c0.5-0.2,1.9-0.8,1.9-0.8c0.5-0.3,0.3-0.6,1.9-0.9c1.1-0.2,1.7-0.2,2.3-0.2  c0.2,0.4,0.4,0.9,0.6,1.3c0.5,1.1,0.5,2.4,0.8,3.4c0.7,2.4,1.5,4.1,2.5,5.5c1,1.3,1.8,2.5,2.8,3c1.5,0.1,2.8-0.2,3.7-1  c0.8-0.9,1.1-2.5,0.9-4.2c-0.2-1.4-0.6-3.1-1.6-4.5c-0.6-0.9-1.9-2-3.5-3.3l-1.5-0.9c0.8,0,1.4,0.1,2.9,0c2.4-0.2,2.4-0.7,4.8-0.6  c2.4,0.2,2.4,0.1,4.8,0.4c2.4,0.4,2.4,0.2,4.8,0.6c1.2,0.2,1.8,0.4,2.3,0.6c0.6,0.2,1.1,0.5,2.3,0.8c0.7,0.2,1.2,0.3,1.6,0.3  l0.2,0.3c0.5,1.1,0.8,2.2,1,3.3c0.2,1.2,0,2.4,0.1,3.5c0.2,2.5,0.5,4.3,1.2,5.6c0.7,1.2,1.1,2.6,2,3.2c1.1,0.7,2.5,0.8,3.7,0  c1.1-0.8,1.8-2.3,2-3.9c0.2-1.4,0-3-0.7-4.4c-0.5-0.9-1.4-2.4-2.8-3.8c-0.8-0.8-2-1.3-2.9-2.2c-0.5-0.4-1-0.9-1.5-1.3  c0.3,0.1,0.6,0.2,1,0.3c2.3,0.9,2.1,1.5,4.3,2.3c2.2,1,2.3,0.7,4.5,1.8c2.2,1.1,2,1.3,4.1,2.6c0.8,0.5,1.8,1.2,2.9,2  c1.1,0.8,2.1,1.8,3.1,2.6c0.5,0.4,0.9,0.8,1.3,1.1l-0.2,0.2c0.2,0.2,0.7,0.4,1.1,0.6c0.4,0.2,0.7,0.4,0.7,0.4  c0.5,0.2,0.6-0.1,1.9,0.9c0.9,0.8,1.3,1.2,1.6,1.6c-0.2,0.4-0.4,0.8-0.6,1.2c-0.6,1.1-1.5,1.9-2.1,2.8c-1.4,2-2.4,3.8-2.7,5.4  c-0.4,1.5-0.8,3-0.5,4c0.6,1.5,1.4,2.4,2.7,2.5c1.2,0.1,2.7-0.7,3.9-1.9c1-1,2-2.4,2.5-4c0.1-0.5,0.3-1.2,0.4-2  c0.1-0.8,0.1-1.7,0-2.7c0-0.6-0.1-1.2-0.3-1.7c0.5,0.7,0.8,1.1,1.9,2.2c1.6,1.8,2,1.5,3.5,3.4c0.7,1,1.1,1.5,1.4,2s0.6,1.1,1.2,2.1  c1.2,2.1,1.4,2,2.6,4.1c1,2.2,0.8,2.3,1.8,4.5c0.3,0.7,0.6,1.1,0.8,1.5l-0.2,0.3c-0.6,1.1-1.3,2-2,2.8c-0.8,0.9-1.9,1.5-2.7,2.2  c-1.8,1.7-2.9,3-3.6,4.4c-0.7,1.3-1.4,2.5-1.3,3.6c0.1,0.7,0.3,1.3,0.8,1.7c0.4,0.5,0.9,0.9,1.5,1.1c1.2,0.4,2.9,0,4.3-0.9  c1.2-0.7,2.5-1.9,3.1-3.3c0.4-0.9,0.8-2.6,1.2-4.6c0.3-1.2-0.2-2.4-0.1-3.6v-2c0.1,0.3,0.3,0.6,0.4,1c0.8,2.3,0.3,2.5,0.8,4.8  c0.6,2.3,0.9,2.3,1.5,4.6c0.4,2.4,0.1,2.4,0.4,4.8c0.1,0.9,0.3,2.1,0.2,3.5c0,1.3-0.1,2.8-0.1,4v2h0.2c0,0.7,0.2,1.8,0.2,1.8  c0.2,0.5,0.5,0.4,0.5,2.1c0,1.1-0.1,1.7-0.2,2.3c-0.5,0.1-0.9,0.2-1.4,0.3c-1.2,0.2-2.4,0-3.5,0.1c-2.5,0.2-4.5,0.5-6,1.2  c-1.4,0.7-2.8,1.2-3.4,2.1c-0.8,1.4-1.2,2.6-0.4,3.6c0.7,1,2.2,1.7,4,1.9c1.4,0.2,3.1,0.1,4.7-0.6c1-0.4,2.6-1.3,4-2.7  c0.4-0.4,0.8-0.8,1.2-1.3c-0.2,0.8-0.4,1.3-0.6,2.9c-0.5,2.3,0.1,2.5-0.5,4.8c-0.6,2.4-0.7,2.3-1.5,4.6c-0.9,2.3-0.6,2.4-1.6,4.6  c-1.1,2.2-1.3,2.1-2.4,4.2c-0.3,0.6-0.5,1.1-0.7,1.5l-0.3,0.1c-1.2,0.2-2.4,0.2-3.5,0.2c-1.2,0-2.3-0.5-3.4-0.7  c-2.4-0.4-4.2-0.4-5.7-0.1s-2.8,0.5-3.6,1.3c-0.5,0.5-0.8,1.1-0.9,1.7c-0.2,0.6-0.2,1.2,0.1,1.9c0.5,1.2,1.8,2.3,3.4,2.8  c1.3,0.5,3,0.8,4.5,0.3c0.9-0.2,2.5-1,4.3-2c1.1-0.5,1.8-1.6,2.8-2.4c0.5-0.4,1.1-0.8,1.6-1.2c-0.1,0.3-0.3,0.6-0.5,0.9  c-1.3,2.1-1.7,1.8-3.3,3.7c-1.5,1.9-1.2,2.2-2.7,4.1c-1.7,1.8-1.8,1.6-3.5,3.4c-1.2,1.4-3.9,3.2-5.8,4.8c-0.6,0.5-1.1,0.9-1.6,1.2  l0.1,0.1c-0.4,0.4-0.9,0.9-0.9,0.9c-0.3,0.5,0,0.7-1.3,1.7c-0.9,0.7-1.4,1-2,1.2c-0.4-0.3-0.7-0.6-1.1-0.9c-0.9-0.8-1.5-1.9-2.2-2.7  c-1.7-1.9-3.2-3.1-4.7-3.9c-1.4-0.7-2.7-1.4-3.8-1.4c-2,0.5-3.1,1.2-3.5,2.4c-0.3,1.2,0.1,2.8,1,4.3c0.8,1.2,1.9,2.4,3.4,3.2  c0.9,0.5,2.6,1.1,4.6,1.6c0.6,0.1,1.1,0.1,1.7,0.1c-0.7,0.4-1.2,0.6-2.6,1.3c-2.2,1.1-1.9,1.7-4.1,2.7c-2.3,0.9-2.3,0.8-4.6,1.6  c-2.3,0.9-2.2,1-4.6,1.6c-2.4,0.6-2.4,0.4-4.8,0.8c-0.7,0.1-1.2,0.2-1.6,0.3l-0.3-0.2c-0.9-0.8-1.7-1.7-2.3-2.6  c-0.7-0.9-1.1-2.1-1.6-3.1c-1.2-2-2.3-3.6-3.5-4.6c-1.2-0.9-2.2-1.9-3.2-1.9c-1.3,0-2.6,0.3-3.3,1.5c-0.7,1.1-0.7,2.8-0.1,4.4  c0.5,1.3,1.3,2.8,2.6,3.8c0.8,0.6,2.3,1.3,4.2,2c1.1,0.4,2.4,0.5,3.6,0.8c0.7,0.1,1.3,0.3,1.9,0.4c-0.3,0.1-0.6,0.1-1.1,0.2  c-1.2,0.2-1.8,0.1-2.4-0.1c-0.6-0.1-1.2-0.3-2.4-0.2c-2.4,0-2.4,0.6-4.8,0.4c-2.4-0.2-2.4-0.4-4.8-0.6c-0.9,0-2.1-0.3-3.4-0.6  c-1.3-0.3-2.7-0.6-3.9-0.9c-0.7-0.1-1.4-0.4-1.9-0.6l-1.1,5c0.6,0.1,1.3,0.4,2.1,0.5c2.6,0.4,5.9,1.1,7.6,1.2  c-0.4,0.2-0.8,0.5-1.2,0.6c-1.7,0.8-3.1,2-3.9,2.5c-1.3,1-2.3,2.1-2.9,3.3c-0.7,1.4-0.8,2.8,0.1,3.9c0.9,1.1,2.6,1.4,4.5,1.2  c1.4-0.1,2.9-0.8,4.2-1.9c1.4-1.1,2.3-2.8,3-5c0.5-1.6,0.8-3.4,1.6-5.1h0.1c1.3,0.1,1.9,0.3,2.6,0.5c0.6,0.2,1.3,0.4,2.6,0.3  c1.3,0,1.9-0.2,2.6-0.3c0.6-0.1,1.3-0.3,2.6-0.5c2.6-0.4,2.6-0.4,5.1-0.8c2.5-0.5,2.5-0.6,5-1.2c0.4-0.1,0.8-0.2,1.1-0.2  c-1,0.8-2.1,1.6-3.1,2.5c-0.4,0.4-0.9,1-1.5,1.7c-0.6,0.7-1.2,1.5-1.8,2.4c-1.2,1.7-2.3,3.4-2.5,4.1c-0.5,1.7-0.3,3,0.9,4  c1.1,0.9,2.7,1.1,4.5,0.7c1.7-0.4,3.5-1.6,4.9-3.2c1.3-1.5,1.2-3.7,1.5-6.2c0.2-1.9,0.5-4.3,1.3-6.7c2.4-0.9,2.3-1.3,4.7-2.2  c2.3-1.1,2.5-0.8,4.8-2c1.2-0.6,1.7-1,2.2-1.4c0.5-0.4,1-0.9,2.1-1.6c1.1-0.7,1.6-1,2.2-1.3c-0.4,1.2-0.5,2.5-1,3.6  c-0.8,2-1.5,3.9-1.7,5c-0.4,1.7-0.6,3.4-0.2,4.8c0.5,1.7,1.6,2.7,3.2,3c1.7,0.3,3.3-0.7,4.7-2.3c1.1-1.3,2.4-2.8,2.8-4.6  c0.3-2-1.2-3.8-2.2-6.2c-0.5-1-0.6-2.2-1-3.4c-0.3-0.9-0.5-1.8-0.7-2.8c0.6-0.5,1.2-0.9,1.7-1.3l0,0c0.4-0.3,0.7-0.6,1.1-0.9  c1-0.9,2.1-1.9,3.2-2.8c0.5-0.5,1-0.9,1.5-1.3l1.1-1.1l-0.2,1.3c-0.4,1.9-0.4,3.6-0.4,4.6c-0.1,1.6,0.2,3.1,0.8,4.3  c0.7,1.4,1.7,2.4,3.1,2.4s2.7-1.1,3.7-2.7c0.8-1.2,1.1-2.8,1.1-4.5c0-1.8-0.7-3.6-2-5.5c-0.9-1.3-2.1-2.7-3-4.4l0.1-0.1  c1.6-2,2.2-1.5,3.8-3.6c1.6-2,1.1-2.4,2.5-4.5c0.7-1.1,1-1.7,1.3-2.2c0.3-0.6,0.7-1.1,1.2-2.3c1.1-2.3,1.1-2.3,2.2-4.7  c0.2-0.4,0.4-0.7,0.5-1c0,1.3-0.1,2.6,0,3.9c0,1.1,0.6,3.2,1.2,5.2c0.5,2,1.1,3.9,1.5,4.5c1,1.4,2.2,2.1,3.7,1.8  c1.3-0.3,2.7-1.4,3.3-3c0.7-1.6,1-3.7,0.6-5.8c-0.3-1.9-2.2-3.2-4-5c-1.4-1.4-3.1-3.1-4.4-5.2c0.4-1.2,0.6-1.9,0.7-2.5  c0.1-0.7,0.1-1.3,0.4-2.6c0.6-2.5,1-2.4,1.5-5c0.4-2.6-0.1-2.6,0.3-5.2c0.2-1.2,0.3-1.9,0.4-2.5c0.8,1,1.6,2,2.2,3  c1.1,1.9,2.1,3.6,2.8,4.5c1.2,1.5,2.4,2.6,3.7,3.2c1.6,0.7,3.2,0.5,4.3-0.6C187.4,116.5,187.8,114.7,187.4,112.6z M105.9,177.4  c-0.7,0-1.2,0.5-1.1,1.2c0,0.7,0.5,1.2,1.3,1.1c0.8,0,1.4-0.5,1.3-1.2C107.3,177.8,106.6,177.4,105.9,177.4z M94.2,165.6  c0-0.5-0.2-0.9-0.6-0.9c-0.4,0-0.8,0.3-0.8,0.7c-0.1,0.4,0.2,0.9,0.6,1C93.8,166.4,94.2,166,94.2,165.6z M133.6,170.1  c-0.7,0.1-1.1,0.7-1,1.2c0.1,0.5,0.6,0.8,1.3,0.7c0.7-0.2,1.2-0.6,1-1.2C134.9,170.3,134.3,170,133.6,170.1z M113.7,165.6  c0.1,0.4,0.5,0.7,1,0.6c0.5-0.1,0.9-0.6,0.7-1.1c-0.1-0.5-0.7-1-1.2-0.8S113.5,165,113.7,165.6z M44,155.1c0.6-0.5,0.5-1.3,0-1.8  s-1.1-0.6-1.7-0.1c-0.5,0.5-0.6,1.1-0.1,1.7C42.7,155.5,43.5,155.6,44,155.1z M46,136.8c0.4-0.2,0.6-0.7,0.4-1.1  c-0.2-0.3-0.7-0.4-1.1-0.2c-0.4,0.2-0.6,0.7-0.4,1.1C45.1,136.9,45.6,137,46,136.8z M67.3,171.9c0.3-0.4,0.2-1.1-0.3-1.5  c-0.5-0.4-1.2-0.4-1.6,0c-0.4,0.4-0.2,1,0.3,1.4C66.3,172.2,66.9,172.3,67.3,171.9z M58.3,153.1c0.4,0.3,1,0.3,1.3-0.1  c0.3-0.4,0.3-1.1-0.1-1.4s-1-0.1-1.3,0.4C57.9,152.3,57.9,152.8,58.3,153.1z M82.9,167.6c-0.6,0.1-0.5,0.4-2.1,0  c-1.1-0.2-1.7-0.5-2.2-0.8c0-0.5,0-1,0.1-1.4c0.1-1.2,0.6-2.4,0.7-3.5c0.4-2.5,0.5-4.4,0.1-6.1c-0.3-1.5-0.6-2.9-1.3-3.8  c-0.9-1.1-2.1-1.6-3.3-1.1c-1.1,0.5-2.1,1.9-2.7,3.5c-0.5,1.3-0.8,3-0.5,4.6c0.2,1,0.8,2.7,1.7,4.6c0.3,0.5,0.6,1,1,1.4  c-0.8-0.3-1.2-0.6-2.6-1.3c-2.2-1-2.5-0.4-4.7-1.5c-2.1-1.2-2-1.3-4.1-2.6c-2.1-1.2-2.1-1.2-4.1-2.6c-1.9-1.5-1.8-1.6-3.6-3.2  c-0.5-0.5-0.9-0.8-1.3-1v-0.4c0-1.2,0.3-2.4,0.5-3.4c0.3-1.1,1-2.2,1.4-3.1c0.9-2.2,1.5-4.1,1.4-5.6c0-1.5,0.1-2.8-0.5-3.7  c-0.6-1.2-1.8-1.8-3.2-1.6c-1.3,0.2-2.6,1.3-3.5,2.7c-0.7,1.2-1.3,2.7-1.3,4.4c-0.1,1.1,0.4,2.7,1,4.6c0.4,1.1,1.1,2.1,1.6,3.3  c0.3,0.6,0.6,1.2,0.9,1.7c-0.2-0.2-0.5-0.4-0.8-0.7c-1.7-1.7-1.2-2.2-2.8-4c-1.6-1.8-1.9-1.5-3.3-3.5c-1.4-2-1.3-2.1-2.6-4.1  c-0.4-0.8-1-1.9-1.6-3.1c-0.6-1.2-1.3-2.4-1.7-3.7c-0.3-0.7-0.5-1.3-0.8-1.8l-4.6,2.2c0.3,0.6,0.6,1.2,0.9,1.9  c0.5,1.2,1.3,2.5,2,3.7c0.7,1.2,1.3,2.3,1.7,3l-1.2-0.5c-1.8-0.8-3.5-1.2-4.5-1.4c-1.6-0.4-3.2-0.5-4.4-0.2c-1.5,0.3-2.7,1.1-3,2.5  c-0.3,1.4,0.6,2.9,1.9,4.2c1.1,1,2.3,1.8,4,2.2c1.7,0.4,3.7,0.1,5.8-0.8c1.5-0.6,3.1-1.5,5-1.9v0.1c1.5,2.1,0.9,2.6,2.6,4.5  c1.7,1.9,2,1.7,3.8,3.5c1.9,1.7,1.9,1.7,3.8,3.5c1.9,1.7,2.1,1.6,4.1,3.2c0.3,0.3,0.6,0.5,0.9,0.7l-3.9-0.9  c-0.5-0.1-1.4-0.1-2.3-0.1c-0.9,0-1.9,0-3,0.1c-2.1,0.1-4.1,0.3-4.8,0.6c-1.6,0.7-2.6,1.6-2.6,3.2c0,2.8,3.4,5.7,7.8,5.8  c2,0.1,3.6-1.4,5.8-2.7c1.7-1,3.7-2.3,6-3.2c2.2,1.3,2.4,1,4.7,2.3c2.3,1.1,2.2,1.4,4.5,2.5c2.3,1.1,2.6,0.6,5,1.5  c1.2,0.4,1.8,0.7,2.4,0.9c-1.2,0.4-2.3,1.1-3.4,1.5c-2.1,0.6-4,1.3-5,1.7c-1.6,0.7-3.1,1.7-3.9,2.9c-1,1.4-1.2,2.9-0.3,4.3  c0.8,1.5,2.6,2.2,4.7,2.2c1.7,0.1,3.7,0.2,5.3-0.7c1.7-1,2.3-3.3,3.4-5.6c0.5-1,1.4-1.8,2-2.9c0.5-0.8,1.1-1.5,1.7-2.3h0.1  c0.8,0.2,1.5,0.3,2.1,0.5l1.1-5C84.4,167.7,82.9,167.6,82.9,167.6z M24.3,89.8c0.1-0.7-0.3-1.3-0.9-1.4c-0.7-0.1-1.3,0.3-1.4,1  c-0.1,0.7,0.2,1.5,1,1.6C23.6,91.1,24.2,90.5,24.3,89.8z M37.9,80.1c-0.2,0.4,0.1,0.8,0.5,1c0.4,0.1,0.9,0,1.1-0.4  c0.1-0.4-0.1-0.8-0.5-1C38.6,79.5,38.1,79.7,37.9,80.1z M25.2,118.4c0-0.7-0.5-1.2-1-1.2s-0.9,0.4-0.9,1.1s0.4,1.3,0.9,1.3  C24.8,119.7,25.2,119.1,25.2,118.4z M33.3,100.9c0,0.5,0.4,1,0.9,1c0.6,0,1-0.5,1.1-0.9c0-0.5-0.5-0.8-1-0.8  C33.7,100,33.4,100.4,33.3,100.9z M61.6,34.8c0.6-0.4,0.8-1,0.5-1.6c-0.3-0.6-1-0.8-1.6-0.4c-0.7,0.4-1,1.1-0.6,1.7  C60.2,35.1,61,35.2,61.6,34.8z M78.2,41.1c0.4-0.1,0.6-0.6,0.4-1c-0.1-0.4-0.6-0.7-1-0.6c-0.3,0.1-0.5,0.6-0.3,1  S77.9,41.2,78.2,41.1z M39.8,53.4c0.5-0.4,0.6-1.1,0.3-1.6c-0.3-0.4-0.9-0.4-1.5,0c-0.6,0.4-0.7,1.1-0.4,1.5  C38.6,53.8,39.3,53.9,39.8,53.4z M59.9,50.4c0.3-0.3,0.3-0.9,0-1.3c-0.4-0.5-0.8-0.6-1.2-0.3c-0.4,0.3-0.6,0.8-0.2,1.3  C58.9,50.5,59.6,50.7,59.9,50.4z M127.9,29.7c0.7,0.3,1.3,0,1.6-0.6c0.3-0.7,0-1.3-0.7-1.5c-0.7-0.3-1.5-0.1-1.7,0.6  C126.8,28.8,127.2,29.5,127.9,29.7z M134.4,46.3c0.3-0.4,0.2-0.9-0.1-1.1c-0.3-0.2-0.8,0-1.1,0.4s-0.2,0.9,0.1,1.1  S134.1,46.7,134.4,46.3z M99.8,24.3c0.7,0.1,1.3-0.1,1.4-0.7c0.1-0.5-0.2-1-0.9-1.2c-0.7-0.2-1.3,0.1-1.4,0.6  C98.7,23.6,99.1,24.1,99.8,24.3z M114.7,38c0.5,0.1,0.9-0.3,1-0.9c0.1-0.4-0.1-0.8-0.6-1c-0.5-0.1-1,0.1-1.1,0.6  S114.2,37.9,114.7,38z M174,76.8c-0.8,0.1-1,0.9-0.7,1.6c0.2,0.7,0.7,1,1.4,0.9c0.7-0.1,1-0.8,0.9-1.5  C175.4,77.1,174.7,76.6,174,76.8z M164.3,93.8c0.5,0,0.8-0.4,0.8-0.8c0-0.4-0.5-0.7-0.9-0.6c-0.5,0.1-0.8,0.4-0.8,0.8  C163.4,93.6,163.9,93.9,164.3,93.8z M160.4,51.4c-0.5,0.2-0.8,0.9-0.5,1.6c0.3,0.6,0.9,0.9,1.4,0.7s0.6-0.8,0.4-1.5  C161.4,51.5,160.9,51.2,160.4,51.4z M159.7,73.5c0.5-0.2,0.7-0.7,0.5-1.1c-0.2-0.4-0.7-0.7-1.2-0.5c-0.5,0.2-0.8,0.9-0.6,1.3  C158.6,73.6,159.2,73.7,159.7,73.5z"/>
<g transform="translate(30 30) scale(0.7)">
  
  <defs id="defs285458"/>
  <linearGradient id="3d_gradient2-logo-AB01AE2D2735437986BDF38AA15DFFAE" x1="30%" y1="120%" x2="-10%" y2="30%" spreadMethod="pad">
    <stop offset="0%" stop-color="#ffffff" stop-opacity="1" id="stop285435"/>
    <stop offset="100%" stop-color="#000000" stop-opacity="1" id="stop285437"/>
  </linearGradient>
  <linearGradient id="3d_gradient3-logo-AB01AE2D2735437986BDF38AA15DFFAE" x1="30%" y1="120%" x2="-10%" y2="30%" spreadMethod="pad" gradientTransform="rotate(-30)">
    <stop offset="0%" stop-color="#ffffff" stop-opacity="1" id="stop285440"/>
    <stop offset="50%" stop-color="#cccccc" stop-opacity="1" id="stop285442"/>
    <stop offset="100%" stop-color="#000000" stop-opacity="1" id="stop285444"/>
  </linearGradient>
  <path id="path285493" style="font-style:oblique;font-weight:normal;font-size:72px;line-height:1;font-family:Molle;font-variant-ligatures:none;text-align:center;text-anchor:middle;fill:#000000;stroke:#000000;stroke-width:0;stroke-linejoin:miter;stroke-miterlimit:2" d="m 133.39678,98.161624 q 14.77272,7.616156 11.88384,21.994926 -2.56061,12.86866 -14.37877,21.33835 -15.69191,11.29291 -38.9343,11.29291 -17.267647,0 -30.661578,-6.56564 -13.131296,-6.43434 -18.383815,-17.92422 -3.742407,-8.33837 -2.691904,-13.65655 0.393925,-2.03535 5.909079,-3.47979 3.873734,7.48484 16.348452,12.80301 5.252518,-5.51514 14.313126,-15.6919 9.06059,-10.176752 14.116137,-15.82321 5.12121,-5.712114 10.111093,-10.964633 11.03029,-11.621196 18.64645,-17.595937 2.36362,-1.969693 6.04039,-0.131308 0.91919,0.459596 1.51011,1.050504 -6.56566,5.515144 -19.10604,21.929263 5.71211,1.444444 10.2424,1.444444 4.5303,0 9.19192,-0.984848 4.72726,-1.050504 8.79797,-3.020197 9.32321,-4.398985 10.63635,-10.833321 2.49495,-12.540386 -15.69192,-17.267653 -7.09089,-1.904039 -14.57572,-1.904039 -7.41919,0 -14.1818,1.050504 -6.762629,0.984848 -12.343427,3.151511 -12.212101,4.792924 -13.984828,13.590892 -1.510092,7.419182 3.020203,12.474732 -7.287881,6.368678 -10.833317,6.368678 -4.070707,0 -6.696966,-4.398985 -2.691922,-4.530296 -1.641419,-9.914129 1.050504,-5.38383 4.13637,-9.454533 3.085848,-4.070701 7.616142,-7.222212 4.530295,-3.217167 10.045449,-5.5808 5.580798,-2.363633 11.621185,-3.939389 11.686868,-3.085855 20.550488,-3.085855 8.86362,0 14.64139,0.787878 5.84343,0.722222 10.89898,2.297977 5.05554,1.575756 9.19191,3.939389 4.13635,2.363633 6.89392,5.5808 5.77777,6.828274 3.87374,16.348463 -1.5101,7.616152 -9.12626,13.656548 -6.82827,5.580801 -17.00503,8.338374 z M 76.80091,128.3636 q 7.353526,1.5101 12.080793,1.5101 4.727266,0 8.075749,-0.19697 3.348468,-0.26262 7.353528,-1.31313 4.07069,-1.0505 7.2222,-2.95454 6.82827,-4.0707 8.27272,-11.1616 1.37878,-6.89393 -4.79293,-11.29291 -5.5808,-4.005048 -15.691894,-4.398988 -3.020203,4.070698 -5.974742,8.141408 -2.954539,4.0707 -5.843415,7.94443 -6.106069,8.1414 -10.702009,13.7222 z" stroke-miterlimit="2"/>
</g></svg>
