<?xml version="1.0" encoding="utf-8"?>
<!-- Generator: Adobe Illustrator 21.1.0, SVG Export Plug-In . SVG Version: 6.00 Build 0)  -->
<svg xmlns="http://www.w3.org/2000/svg" xmlns:xlink="http://www.w3.org/1999/xlink" version="1.1" id="Layer_1" x="0px" y="0px" viewBox="0 0 200 200" enable-background="new 0 0 200 200" xml:space="preserve">
<rect width="200" height="200" fill="#a9a42c"/><path d="M100-51.3C16.4-51.3-51.3,16.4-51.3,100S16.4,251.3,100,251.3S251.3,183.6,251.3,100S183.6-51.3,100-51.3z M238.6,119.5  l-79.5-9.1l77.9,18.7l-78.7-14.6l76.4,24.1l-77.5-20l74.5,29.3l-75.9-25.4l72.3,34.5l-74-30.6l69.7,39.4L152,130l66.8,44.2l-69-40.6  l63.5,48.7l-66-45.4l60,53.1l-62.7-49.8l56.1,57.1l-59-54.1l52,60.9L138.6,146l47.6,64.4l-50.9-61.8l43,67.5l-46.5-65.2l38.2,70.4  L128.2,153l33.2,72.9l-37-71l28,75l-31.9-73.4l22.7,76.8l-26.7-75.5l17.3,78.2l-21.4-77.2l11.8,79.2l-16-78.5l6.3,79.8l-10.4-79.4  l0.7,80.1L100,160l-4.9,79.9l0.7-80.1l-10.4,79.4l6.3-79.8l-16,78.5l11.8-79.2l-21.4,77.2l17.3-78.2l-26.7,75.5l22.7-76.8  l-31.9,73.4l28-75l-37,71L71.8,153L30,221.2l38.2-70.4l-46.5,65.2l43-67.5l-50.9,61.8L61.4,146L6.3,204l52-60.9l-59,54.1l56.1-57.1  L-7.2,190l60-53.1l-66,45.4l63.5-48.7l-69,40.6L48,130l-71.7,35.7l69.7-39.4l-74,30.6l72.3-34.5l-75.9,25.4l74.5-29.3l-77.5,20  l76.4-24.1l-78.7,14.6l77.9-18.7l-79.5,9.1l79-13.2l-80,3.5l79.7-7.7l-80-2.1l80-2.1l-79.7-7.7l80,3.5l-79-13.2l79.5,9.1l-77.9-18.7  l78.7,14.6l-76.4-24.1l77.5,20l-74.5-29.3l75.9,25.4l-72.3-34.5l74,30.6l-69.7-39.4L48,70l-66.8-44.2l69,40.6l-63.5-48.7l66,45.4  L-7.2,10l62.7,49.8L-0.7,2.7l59,54.1L6.3-4L61.4,54L13.8-10.3l50.9,61.8l-43-67.5l46.5,65.2L30-21.2L71.8,47L38.6-25.8l37,71l-28-75  l31.9,73.4L56.7-33.1l26.7,75.5L66.1-35.8l21.4,77.2L75.7-37.9l16,78.5l-6.3-79.8l10.4,79.4l-0.7-80.1L100,40l4.9-79.9l-0.7,80.1  l10.4-79.4l-6.3,79.8l16-78.5l-11.8,79.2l21.4-77.2l-17.3,78.2l26.7-75.5l-22.7,76.8l31.9-73.4l-28,75l37-71L128.2,47L170-21.2  l-38.2,70.4l46.5-65.2l-43,67.5l50.9-61.8L138.6,54L193.7-4l-52,60.9l59-54.1l-56.1,57.1L207.2,10l-60,53.1l66-45.4l-63.5,48.7  l69-40.6L152,70l71.7-35.7l-69.7,39.4l74-30.6l-72.3,34.5l75.9-25.4l-74.5,29.3l77.5-20l-76.4,24.1l78.7-14.6l-77.9,18.7l79.5-9.1  l-79,13.2l80-3.5L160,97.9l80,2.1l-80,2.1l79.7,7.7l-80-3.5L238.6,119.5z" fill="#040404"/>
<g transform="translate(30 30) scale(0.7)">
  
  <defs id="defs285458"/>
  <linearGradient id="3d_gradient2-logo-AB01AE2D2735437986BDF38AA15DFFAE" x1="30%" y1="120%" x2="-10%" y2="30%" spreadMethod="pad">
    <stop offset="0%" stop-color="#ffffff" stop-opacity="1" id="stop285435"/>
    <stop offset="100%" stop-color="#000000" stop-opacity="1" id="stop285437"/>
  </linearGradient>
  <linearGradient id="3d_gradient3-logo-AB01AE2D2735437986BDF38AA15DFFAE" x1="30%" y1="120%" x2="-10%" y2="30%" spreadMethod="pad" gradientTransform="rotate(-30)">
    <stop offset="0%" stop-color="#ffffff" stop-opacity="1" id="stop285440"/>
    <stop offset="50%" stop-color="#cccccc" stop-opacity="1" id="stop285442"/>
    <stop offset="100%" stop-color="#000000" stop-opacity="1" id="stop285444"/>
  </linearGradient>
  <path id="path285493" style="font-style:oblique;font-weight:normal;font-size:72px;line-height:1;font-family:Molle;font-variant-ligatures:none;text-align:center;text-anchor:middle;fill:#000000;stroke:#000000;stroke-width:0;stroke-linejoin:miter;stroke-miterlimit:2" d="m 133.39678,98.161624 q 14.77272,7.616156 11.88384,21.994926 -2.56061,12.86866 -14.37877,21.33835 -15.69191,11.29291 -38.9343,11.29291 -17.267647,0 -30.661578,-6.56564 -13.131296,-6.43434 -18.383815,-17.92422 -3.742407,-8.33837 -2.691904,-13.65655 0.393925,-2.03535 5.909079,-3.47979 3.873734,7.48484 16.348452,12.80301 5.252518,-5.51514 14.313126,-15.6919 9.06059,-10.176752 14.116137,-15.82321 5.12121,-5.712114 10.111093,-10.964633 11.03029,-11.621196 18.64645,-17.595937 2.36362,-1.969693 6.04039,-0.131308 0.91919,0.459596 1.51011,1.050504 -6.56566,5.515144 -19.10604,21.929263 5.71211,1.444444 10.2424,1.444444 4.5303,0 9.19192,-0.984848 4.72726,-1.050504 8.79797,-3.020197 9.32321,-4.398985 10.63635,-10.833321 2.49495,-12.540386 -15.69192,-17.267653 -7.09089,-1.904039 -14.57572,-1.904039 -7.41919,0 -14.1818,1.050504 -6.762629,0.984848 -12.343427,3.151511 -12.212101,4.792924 -13.984828,13.590892 -1.510092,7.419182 3.020203,12.474732 -7.287881,6.368678 -10.833317,6.368678 -4.070707,0 -6.696966,-4.398985 -2.691922,-4.530296 -1.641419,-9.914129 1.050504,-5.38383 4.13637,-9.454533 3.085848,-4.070701 7.616142,-7.222212 4.530295,-3.217167 10.045449,-5.5808 5.580798,-2.363633 11.621185,-3.939389 11.686868,-3.085855 20.550488,-3.085855 8.86362,0 14.64139,0.787878 5.84343,0.722222 10.89898,2.297977 5.05554,1.575756 9.19191,3.939389 4.13635,2.363633 6.89392,5.5808 5.77777,6.828274 3.87374,16.348463 -1.5101,7.616152 -9.12626,13.656548 -6.82827,5.580801 -17.00503,8.338374 z M 76.80091,128.3636 q 7.353526,1.5101 12.080793,1.5101 4.727266,0 8.075749,-0.19697 3.348468,-0.26262 7.353528,-1.31313 4.07069,-1.0505 7.2222,-2.95454 6.82827,-4.0707 8.27272,-11.1616 1.37878,-6.89393 -4.79293,-11.29291 -5.5808,-4.005048 -15.691894,-4.398988 -3.020203,4.070698 -5.974742,8.141408 -2.954539,4.0707 -5.843415,7.94443 -6.106069,8.1414 -10.702009,13.7222 z" stroke-miterlimit="2"/>
</g></svg>
