<?xml version="1.0" encoding="utf-8"?>
<!-- Generator: Adobe Illustrator 21.1.0, SVG Export Plug-In . SVG Version: 6.00 Build 0)  -->
<svg xmlns="http://www.w3.org/2000/svg" xmlns:xlink="http://www.w3.org/1999/xlink" version="1.1" id="Layer_1" x="0px" y="0px" viewBox="0 0 200 200" enable-background="new 0 0 200 200" xml:space="preserve">
<rect width="200" height="200" fill="#a9a42c"/><path fill="#040404" d="M198.1,107.7l-0.1-0.1c-2.7-5.3-7.8-8.7-13.2-8.7c-0.3,0-0.6,0-0.9,0c1.2-1.8,2.4-3.7,3.4-5.7  c3.3-2.4,5.6-6,6.6-10.3c1-4.5,0.4-9.1-1.7-13.1l-0.1-0.1c-0.6-1.1-1.9-1.5-2.9-0.8l-0.1,0.1c-6.9,4.7-9.3,14.5-5.9,22.6  c-6.1,10.9-14.6,19.2-24.4,23.9L178,97.2c0.5-0.5,0.8-1.1,0.8-1.9c0-0.7-0.3-1.4-0.8-1.9L162.8,79c0.2-3.3,0.2-6.5-0.1-9.9  c7.5-1.4,13-9.1,12.7-17.9v-0.1c0-1.3-1.1-2.4-2.2-2.3h-0.1c-5.5,0.3-10.1,3.8-12.6,8.9c-0.3-1.1-0.6-2.1-1-3.2  c-0.8-2.3-1.8-4.5-2.9-6.7c6.8-2.9,11-11,9.7-19.4l0-0.1c-0.2-1.3-1.3-2.2-2.5-1.9l-0.1,0c-6.1,1.3-10.6,6.6-12,13.1  c-2-2.8-4.2-5.5-6.6-7.9c5.4-5.7,6.4-15.3,2.1-22.4L147,8.9c-0.3-0.5-0.8-0.9-1.4-1c-0.6-0.1-1.1,0-1.6,0.4L144,8.3  c-3.3,2.6-5.6,6.6-6.3,11.1c-0.3,1.8-0.3,3.7-0.1,5.5c-1.7-1.2-3.4-2.4-5.2-3.4c-2.9-4.4-7.4-6.9-12.2-6.9c-3.1,0-6.2,1.1-8.8,3.2  l-0.1,0.1c-1,0.8-1.2,2.3-0.5,3.4l0.1,0.1c2.8,4.6,7.5,7.3,12.4,7.3c2.8,0,5.4-0.8,7.8-2.4c2.3,1.4,4.4,2.9,6.5,4.5  c-5.7,1.5-10.2,6.5-11.5,13.2l-24.6-23.4c-0.8-0.7-1.9-0.7-2.7,0L74,44c-1.3-6.7-5.8-11.7-11.5-13.2c2-1.7,4.2-3.2,6.5-4.6  c2.4,1.6,5,2.4,7.8,2.4l0,0c4.9,0,9.6-2.7,12.4-7.3l0.1-0.1c0.7-1.1,0.5-2.6-0.5-3.4l-0.1-0.1c-2.6-2.1-5.6-3.2-8.8-3.2  c-4.8,0-9.3,2.6-12.2,6.9c-1.8,1.1-3.6,2.2-5.2,3.4c0.2-1.8,0.2-3.7-0.1-5.5c-0.7-4.5-3-8.5-6.3-11.1l-0.1-0.1  c-0.5-0.4-1-0.5-1.6-0.4c-0.6,0.1-1.1,0.5-1.4,1L52.9,9c-2.3,3.8-3.2,8.4-2.4,13c0.6,3.7,2.2,7,4.5,9.5c-2.4,2.5-4.6,5.1-6.6,7.9  c-0.4-2.1-1.2-4.1-2.3-5.9c-2.3-3.8-5.8-6.4-9.7-7.3l-0.1,0c-0.6-0.1-1.1,0-1.6,0.4c-0.5,0.4-0.8,0.9-0.9,1.6l0,0.1  c-1.4,8.4,2.9,16.6,9.7,19.4c-1.6,3.2-2.9,6.5-3.9,9.9c-0.6-1.2-1.3-2.3-2.1-3.3C34.7,51,31,49,26.9,48.8h-0.1  c-1.2-0.1-2.2,1-2.2,2.3v0.1c-0.4,8.9,5.2,16.5,12.7,17.9c-0.3,3.3-0.4,6.6-0.1,9.8L22,93.4c-0.5,0.5-0.8,1.1-0.8,1.9  c0,0.7,0.3,1.4,0.8,1.9l19.3,18.3c-9.6-4.5-18.3-12.6-24.6-23.9c1.6-3.7,2-7.9,1.1-11.9c-1-4.5-3.5-8.3-7-10.6l-0.1-0.1  c-0.5-0.3-1.1-0.4-1.6-0.3c-0.6,0.2-1,0.6-1.3,1.1l-0.1,0.1c-4.3,8.1-2,18.5,4.9,23.5c1.1,2,2.2,3.9,3.4,5.7c-0.3,0-0.6,0-0.9,0  c-5.4,0-10.5,3.3-13.2,8.7l-0.1,0.1c-0.6,1.1-0.2,2.7,0.8,3.3l0.1,0.1c2.3,1.5,4.9,2.3,7.6,2.3l0,0c4.7,0,9-2.4,11.9-6.5  c7.9,8.6,17.5,14.2,27.3,16.3l7.5,7.1c-0.4-0.1-0.9-0.1-1.3,0.1l-0.1,0.1c-5.7,3-9.1,9.5-8.9,16.3c-1.9-1.8-3.7-3.8-5.5-6  c2.2-8.6-1.7-17.8-9.2-21.1l-0.1-0.1c-0.5-0.2-1.1-0.2-1.6,0.1c-0.5,0.3-0.9,0.8-1.1,1.4l0,0.1c-1.4,4.3-1.3,9,0.4,13.2  c1.6,4.1,4.5,7.2,8,8.9c1.3,1.8,2.8,3.4,4.2,4.9c-5.6,0.8-10.5,5.1-12.5,11.3l0,0.1c-0.4,1.3,0.2,2.7,1.3,3.1l0.1,0.1  c1.7,0.7,3.4,1,5.2,1l0,0c5.6,0,10.7-3.5,13.3-9c2.7,2.1,5.5,3.8,8.4,5.3c-5.2,3.1-8.5,9.5-8.1,16.5v0.1c0,0.7,0.3,1.3,0.7,1.7  c0.4,0.4,0.9,0.6,1.4,0.6c0,0,0.1,0,0.1,0h0.1c7.5-0.6,13.4-7.3,14.1-15.5c3.1,0.9,6.3,1.6,9.4,1.8c-0.9,0.9-1.6,2-2.3,3.1  c-2.2,3.9-3,8.5-2.2,13l0,0.1c0.2,1.1,1.1,1.9,2.1,1.9c0.1,0,0.3,0,0.4-0.1l0.1,0c7.6-1.8,12.7-9.9,12-18.5c2.2-0.4,4.3-0.9,6.4-1.6  l5.2,4.9l-2.1,3.4c-3.9,6.4-3.9,16.3,0,22.7c0.7,1.1,2,1.4,3,0.6c1-0.8,1.2-2.3,0.5-3.4c-2.9-4.6-2.9-12.5,0-17.1l1.4-2.3l1.4,2.3  c2.9,4.6,2.9,12.5,0,17.1c-0.7,1.1-0.5,2.6,0.5,3.4c0.4,0.3,0.8,0.4,1.2,0.4c0.7,0,1.3-0.4,1.8-1c3.9-6.4,3.9-16.3,0-22.7l-2-3.3  l5.5-5.3c2.3,0.8,4.6,1.4,7,1.8c-0.7,8.7,4.4,16.7,12,18.5l0.1,0c0.1,0,0.3,0.1,0.4,0.1c1,0,1.9-0.8,2.1-1.9l0-0.1  c0.8-4.5,0-9.2-2.2-13c-0.7-1.1-1.4-2.2-2.3-3.1c3.1-0.3,6.3-0.9,9.4-1.8c0.7,8.2,6.6,15,14.1,15.5h0.1c0,0,0.1,0,0.1,0  c0.5,0,1-0.2,1.4-0.6c0.4-0.4,0.7-1,0.7-1.7v-0.2c0.4-7.1-3-13.4-8.1-16.5c2.9-1.5,5.7-3.2,8.4-5.3c2.6,5.5,7.7,9,13.3,9  c1.8,0,3.5-0.4,5.2-1.1l0.1-0.1c1.1-0.5,1.7-1.9,1.3-3.1l0-0.1c-2-6.2-6.9-10.5-12.5-11.3c1.5-1.5,2.9-3.2,4.2-4.9  c7.6-3.6,11.3-13.4,8.4-22.1l0-0.1c-0.4-1.3-1.7-1.9-2.7-1.4l-0.1,0.1c-7.5,3.2-11.4,12.5-9.2,21.1c-1.7,2.2-3.6,4.2-5.5,6  c0.2-6.8-3.2-13.3-8.9-16.3l-0.1-0.1c-1.1-0.5-2.3,0-2.8,1.2l0,0.1c-3,7.5-0.9,16.1,4.6,20.9c-7.6,5.1-15.9,7.8-24,8  c1.3-2.4,2.1-5.1,2.3-8.1c0.1-1.7,0-3.3-0.3-5l25.9-24.6c1.9-0.4,3.9-1,5.8-1.7c7.9-2.9,15.2-7.9,21.3-14.6  c2.9,4.1,7.2,6.5,11.9,6.5c2.6,0,5.3-0.8,7.6-2.3l0.1-0.1C198.3,110.3,198.7,108.9,198.1,107.7z M189.6,74.6  c0.7,2.3,0.8,4.7,0.2,7.1c-0.5,2.4-1.7,4.5-3.2,6.1C185.3,83.2,186.4,77.9,189.6,74.6z M171,54c-0.7,4.9-3.9,8.9-8.1,10.1  C163.6,59.3,166.8,55.3,171,54z M123.2,23.9c-2.8,0-5.5-1.2-7.5-3.3c1.4-0.7,2.8-1,4.3-1c2.8,0,5.5,1.2,7.5,3.3  C126.2,23.5,124.7,23.9,123.2,23.9z M79.9,19.5c1.5,0,3,0.4,4.3,1c-2,2.1-4.7,3.3-7.5,3.3l0,0c-1.5,0-3-0.4-4.3-1  C74.5,20.7,77.1,19.5,79.9,19.5z M29,54c2,0.6,3.9,1.9,5.4,3.7c1.5,1.8,2.4,4.1,2.7,6.4C32.9,62.9,29.7,58.9,29,54z M13.3,87.9  c-3.2-3.3-4.4-8.6-3-13.2c1.6,1.6,2.7,3.7,3.2,6.1C14.1,83.2,14,85.7,13.3,87.9z M10.4,108.7c-1.2,0-2.3-0.2-3.4-0.6  c2.1-2.6,5-4.2,8.2-4.2c1.2,0,2.3,0.2,3.4,0.6C16.5,107.1,13.5,108.7,10.4,108.7z M37.4,138c-1.8-1.3-3.2-3.1-4.1-5.4  c-0.9-2.2-1.2-4.7-0.8-7.1c1.8,1.3,3.2,3.1,4.1,5.4C37.4,133.2,37.7,135.6,37.4,138z M35.7,159.2L35.7,159.2c-0.5,0-1.1-0.1-1.6-0.1  c2-3.6,5.5-5.9,9.3-5.9c0.5,0,1.1,0.1,1.6,0.1C43,156.9,39.5,159.2,35.7,159.2z M164.2,130.9c0.9-2.2,2.3-4.1,4.1-5.4  c0.3,2.4,0,4.8-0.8,7.1c-0.9,2.2-2.3,4.1-4.1,5.4C163,135.6,163.3,133.2,164.2,130.9z M157.3,153.2c3.8,0,7.3,2.3,9.3,5.9  c-0.5,0.1-1,0.1-1.6,0.1c-3.8,0-7.3-2.3-9.3-5.9C156.2,153.2,156.7,153.2,157.3,153.2z M145.3,136.3c3.5,2.9,5.2,8,4.2,12.8  C146.1,146.2,144.4,141.2,145.3,136.3z M147,174c-4.2-1.3-7.3-5.4-7.9-10.3C143.3,165,146.5,169.1,147,174z M158.7,75.1l-2.1-2  c0.7-0.5,1.4-1,2-1.6C158.7,72.7,158.7,73.9,158.7,75.1z M149.6,66.5c0.9-0.3,1.9-0.4,2.9-0.4c1.4,0,2.9,0.3,4.2,1  c-1.1,1.2-2.3,2.1-3.7,2.7L149.6,66.5z M162.2,31.8c-0.1,4.9-2.8,9.4-6.8,11.3C155.5,38.2,158.2,33.7,162.2,31.8z M141.8,20.4  c0.4-2.4,1.4-4.6,2.8-6.4c1.7,4.5,0.8,9.9-2.2,13.4C141.6,25.2,141.4,22.8,141.8,20.4z M140.5,35.3c-1.6,4.6-5.4,7.7-9.8,7.9  C132.3,38.6,136.1,35.4,140.5,35.3z M130.3,48c6.2,0,11.6-4.3,14-10.6c4.8,5.5,8.6,11.9,11.2,18.9c0.7,1.9,1.2,3.8,1.7,5.6  c-1.5-0.5-3-0.8-4.6-0.8c-2.3,0-4.6,0.6-6.7,1.7L130.2,48C130.2,48,130.3,48,130.3,48z M69.3,43.1c-4.4-0.2-8.2-3.3-9.8-7.9  C64,35.4,67.8,38.6,69.3,43.1z M54.7,21.1c-0.4-2.4-0.1-4.9,0.7-7.1c1.5,1.7,2.4,3.9,2.9,6.4c0.4,2.4,0.1,4.9-0.7,7.1  C56.1,25.7,55.1,23.5,54.7,21.1z M37.8,31.8c1.9,0.9,3.6,2.5,4.9,4.5s1.9,4.4,1.9,6.8C40.6,41.2,37.9,36.8,37.8,31.8z M55.7,37.4  C58,43.7,63.5,48,69.7,48l0,0c0,0,0.1,0,0.1,0L54.2,62.9c-2-1.1-4.3-1.7-6.7-1.7c-1.6,0-3.1,0.3-4.6,0.8  C45.1,53.1,49.5,44.6,55.7,37.4z M47,69.7c-1.4-0.6-2.6-1.5-3.7-2.7c1.3-0.6,2.7-1,4.2-1c1,0,1.9,0.2,2.9,0.4L47,69.7z M41.4,71.5  c0.6,0.6,1.3,1.1,2,1.5l-2.1,2C41.3,73.9,41.3,72.7,41.4,71.5z M100,25.7l73.3,69.6L100,164.9L26.7,95.3L100,25.7z M51.2,149.1  c-0.9-4.8,0.7-9.9,4.2-12.8C56.3,141.2,54.7,146.2,51.2,149.1z M53.7,174c0.6-4.9,3.7-9,7.9-10.3C61,168.6,57.8,172.6,53.7,174z   M54,152.8c5.5-4.8,7.6-13.4,4.6-20.9l0-0.1l17.4,16.5c-0.2,1.4-0.3,2.9-0.2,4.4c0.2,2.9,1,5.7,2.3,8.1  C69.9,160.6,61.6,157.9,54,152.8z M74.7,178.1c0-2.4,0.6-4.8,1.8-6.8c1.2-2.1,2.8-3.6,4.8-4.6C81.3,171.7,78.7,176.2,74.7,178.1z   M80,152.4c0-0.1,0-0.2,0-0.2l3.4,3.2c-0.2,1.3-0.6,2.5-1.2,3.7C80.9,157.2,80.1,154.9,80,152.4z M86.5,160c0.2-0.4,0.3-0.8,0.4-1.2  l1,0.9C87.4,159.8,87,160,86.5,160z M112.3,159.6l1.4-1.3c0.2,0.6,0.4,1.2,0.6,1.8C113.6,159.9,112.9,159.7,112.3,159.6z   M124.2,171.3c1.2,2.1,1.8,4.4,1.8,6.8c-4-2-6.6-6.5-6.6-11.4C121.4,167.7,123,169.2,124.2,171.3z M120.8,152.4  c-0.1,2.5-0.9,4.8-2.2,6.7c-0.7-1.3-1.1-2.8-1.3-4.3l3.5-3.3C120.8,151.8,120.8,152.1,120.8,152.4z M189.6,108.6  c-3.1,0-6.1-1.6-8.2-4.2c1.1-0.4,2.3-0.6,3.4-0.6c3.1,0,6.1,1.6,8.2,4.2C191.9,108.3,190.8,108.6,189.6,108.6z"/>
<g transform="translate(30 30) scale(0.7)">
  
  <defs id="defs285458"/>
  <linearGradient id="3d_gradient2-logo-AB01AE2D2735437986BDF38AA15DFFAE" x1="30%" y1="120%" x2="-10%" y2="30%" spreadMethod="pad">
    <stop offset="0%" stop-color="#ffffff" stop-opacity="1" id="stop285435"/>
    <stop offset="100%" stop-color="#000000" stop-opacity="1" id="stop285437"/>
  </linearGradient>
  <linearGradient id="3d_gradient3-logo-AB01AE2D2735437986BDF38AA15DFFAE" x1="30%" y1="120%" x2="-10%" y2="30%" spreadMethod="pad" gradientTransform="rotate(-30)">
    <stop offset="0%" stop-color="#ffffff" stop-opacity="1" id="stop285440"/>
    <stop offset="50%" stop-color="#cccccc" stop-opacity="1" id="stop285442"/>
    <stop offset="100%" stop-color="#000000" stop-opacity="1" id="stop285444"/>
  </linearGradient>
  <path id="path285493" style="font-style:oblique;font-weight:normal;font-size:72px;line-height:1;font-family:Molle;font-variant-ligatures:none;text-align:center;text-anchor:middle;fill:#000000;stroke:#000000;stroke-width:0;stroke-linejoin:miter;stroke-miterlimit:2" d="m 133.39678,98.161624 q 14.77272,7.616156 11.88384,21.994926 -2.56061,12.86866 -14.37877,21.33835 -15.69191,11.29291 -38.9343,11.29291 -17.267647,0 -30.661578,-6.56564 -13.131296,-6.43434 -18.383815,-17.92422 -3.742407,-8.33837 -2.691904,-13.65655 0.393925,-2.03535 5.909079,-3.47979 3.873734,7.48484 16.348452,12.80301 5.252518,-5.51514 14.313126,-15.6919 9.06059,-10.176752 14.116137,-15.82321 5.12121,-5.712114 10.111093,-10.964633 11.03029,-11.621196 18.64645,-17.595937 2.36362,-1.969693 6.04039,-0.131308 0.91919,0.459596 1.51011,1.050504 -6.56566,5.515144 -19.10604,21.929263 5.71211,1.444444 10.2424,1.444444 4.5303,0 9.19192,-0.984848 4.72726,-1.050504 8.79797,-3.020197 9.32321,-4.398985 10.63635,-10.833321 2.49495,-12.540386 -15.69192,-17.267653 -7.09089,-1.904039 -14.57572,-1.904039 -7.41919,0 -14.1818,1.050504 -6.762629,0.984848 -12.343427,3.151511 -12.212101,4.792924 -13.984828,13.590892 -1.510092,7.419182 3.020203,12.474732 -7.287881,6.368678 -10.833317,6.368678 -4.070707,0 -6.696966,-4.398985 -2.691922,-4.530296 -1.641419,-9.914129 1.050504,-5.38383 4.13637,-9.454533 3.085848,-4.070701 7.616142,-7.222212 4.530295,-3.217167 10.045449,-5.5808 5.580798,-2.363633 11.621185,-3.939389 11.686868,-3.085855 20.550488,-3.085855 8.86362,0 14.64139,0.787878 5.84343,0.722222 10.89898,2.297977 5.05554,1.575756 9.19191,3.939389 4.13635,2.363633 6.89392,5.5808 5.77777,6.828274 3.87374,16.348463 -1.5101,7.616152 -9.12626,13.656548 -6.82827,5.580801 -17.00503,8.338374 z M 76.80091,128.3636 q 7.353526,1.5101 12.080793,1.5101 4.727266,0 8.075749,-0.19697 3.348468,-0.26262 7.353528,-1.31313 4.07069,-1.0505 7.2222,-2.95454 6.82827,-4.0707 8.27272,-11.1616 1.37878,-6.89393 -4.79293,-11.29291 -5.5808,-4.005048 -15.691894,-4.398988 -3.020203,4.070698 -5.974742,8.141408 -2.954539,4.0707 -5.843415,7.94443 -6.106069,8.1414 -10.702009,13.7222 z" stroke-miterlimit="2"/>
</g></svg>
