<?xml version="1.0" encoding="utf-8"?>
<!-- Generator: Adobe Illustrator 21.1.0, SVG Export Plug-In . SVG Version: 6.00 Build 0)  -->
<svg xmlns="http://www.w3.org/2000/svg" xmlns:xlink="http://www.w3.org/1999/xlink" version="1.1" id="Layer_1" x="0px" y="0px" viewBox="0 0 200 200" enable-background="new 0 0 200 200" xml:space="preserve">
<rect width="200" height="200" fill="#a9a42c"/><path fill="#040404" d="M27.9,52.9c-0.6-0.6-1.2-0.6-1.7,0l0.2,1.1c0.2,0.2,0.6,0.3,1.4,0.4C28,54.2,28,53.7,27.9,52.9z M42.4,50.3  c1.8-1.9,1.6-3.9-0.6-5.9c-2.1-1.9-4-1.9-5.7,0c-1.8,1.9-1.6,3.8,0.4,5.7C38.7,52.1,40.6,52.2,42.4,50.3z M144.7,161  c-0.8-0.8-2-1.3-3.6-1.6c1.5-3,2.5-5.1,3-6.1c3.3,1,6,0.3,8.1-2c2.1-2.2,2.6-4.5,1.7-6.9c4.1,2.2,7.3,2.2,9.4-0.1  c1-1,1.4-2.5,1.4-4.5c0-2-0.8-3.6-2.3-5.1c-0.6-0.6-1.3-1-2-1.3c-0.7-0.3-1.1-0.5-1.2-0.6c-0.3-0.2-0.1-0.9,0.4-1.8  c0.7-1.4,1-2.5,1-3c3.7,0.7,6.5,0,8.4-2c1.4-1.5,2-3.4,1.9-5.8c-0.1-2.4-1.2-4.4-3-6.2c-1-0.9-2.4-1.7-4.4-2.3  c0.2-1.6,0.4-2.8,0.6-3.6c3.9,1.4,6.9,0.9,9-1.4c1.3-1.3,1.9-3.2,1.8-5.4c-0.1-2.3-1-4.3-2.9-6c-1.1-1-2.2-1.6-3.4-1.8  c0.7-3.1,0.8-5.3,0.5-6.7c3.1,0.8,5.3,0.5,6.7-1c0.7-0.7,1-1.9,1.1-3.7c0-1.7-0.6-3.2-1.8-4.4c-0.8-0.8-2.1-1.3-3.8-1.6  c-1.7-0.3-3.2,0.2-4.3,1.3c-0.7,0.7-1,1.8-1.1,3.4c-2.8-1.8-4.4-2.7-4.8-2.9c-0.1-0.4-0.1-1.7,0.1-3.9c3.1,1.4,5.5,1.1,7.3-0.8  c2.7-2.8,2.4-5.7-0.7-8.7c-3.2-3-6.2-3.1-8.8-0.2c-0.9,1-1.3,2.2-1.4,3.6c-1.8-0.8-3-1.4-3.7-1.9c0.1-1.9,0.1-3.6-0.1-5  c2.7,1,4.9,0.7,6.6-1.2c2.4-2.6,2.1-5.3-0.9-8.2c-2.9-2.8-5.6-2.8-8.1-0.2c-0.7,0.8-1.1,1.8-1.2,2.9c-2.1-1.1-3.8-1.9-4.9-2.3  c0.4-3.8-0.8-7-3.5-9.5c-2.1-1.9-4.5-2.9-7.4-2.9c0.6-3.6,0-6.3-2-8.1c-3.3-3.1-6.4-3.1-9.2-0.1c-0.1,0.2-0.5,0.6-0.9,1.3  c-0.5,0.7-0.8,1.1-1,1.4c-2.6-1.3-4.7-2.1-6.2-2.5c0.3-3-0.6-5.4-2.5-7.3c-3.5-3.3-6.7-3.3-9.7-0.1c-1,1-1.5,2.5-1.5,4.3  c-3.5-2.7-6.8-3.3-9.9-1.7c2.2-3.1,2.2-5.7,0-7.8C89,17,86.8,17,84.8,19.1c-2.1,2.2-1.9,4.5,0.5,6.7c1.3,1.3,3,1.7,4.9,1.5l-3.3,4.9  c-2.2-0.3-4-0.5-5.2-0.6c0.4-3-0.2-5.3-2-7c-1.1-1-2.5-1.6-4.3-1.8c-1.8-0.2-3.2,0.3-4.3,1.5c-0.9,1-1.3,2.3-1.3,4  c0,1.7,0.7,3.2,2.1,4.5c0.8,0.7,2,1.3,3.6,1.5C74.7,36,74,37.2,73.4,38c-1.6-0.2-2.9-0.3-3.7-0.3c0.4-3.1-0.4-5.4-2.1-7.1  c-1.2-1.1-2.6-1.7-4.3-1.9c-1.7-0.2-3.1,0.4-4.3,1.7c-1,1-1.4,2.3-1.3,3.9c0,2,0.7,3.5,2,4.8c0.6,0.6,1.3,1,2.1,1.3  c0.8,0.3,1.2,0.4,1.3,0.5c0.3,0.2,0.1,0.7-0.4,1.4c-0.6,1-1,1.8-1,2.2c-1.3-0.2-3-0.3-4.9-0.4c0.2-2.3,0.2-3.6,0.1-3.9  c-0.1-1-0.7-2-1.8-3c-2.9-2.7-5.5-2.7-7.8-0.2c-2.3,2.5-2,5,0.9,7.7c1.2,1.1,2.4,1.6,3.6,1.6c-1.2,2.9-2.2,4.9-3,6.1  c-3.3-0.9-6-0.3-8,1.9c-1.7,1.8-2.2,4.3-1.6,7.4c-3.7-2.7-6.8-2.7-9.3,0c-1,1.1-1.5,2.5-1.5,4.3c0,1.7,0.8,3.3,2.4,4.7  c1.1,1,2.2,1.6,3.5,1.9c-0.1,0.1-0.5,1-1.2,2.9c-0.5,1.1-0.6,2.2-0.3,3.3c-3.4-1-6.1-0.4-8,1.6c-1.2,1.3-1.7,3-1.6,5.1  c0.1,2.1,1,3.9,2.6,5.4c0.3,0.2,0.8,0.6,1.6,1c0.8,0.4,1.3,0.7,1.4,0.9c0.3,0.2,0.3,1,0,2.2c-0.4,1.7-0.6,2.8-0.7,3.4  c-2.9-1-5.3-0.5-7.2,1.5c-0.9,1-1.3,2.4-1.3,4.4c0,2,0.7,3.7,2.3,5.1c1.7,1.6,3.8,2.2,6.3,1.9c-3.2,4.3-2.9,8.2,0.7,11.6  c1.5,1.4,3.4,2.2,5.5,2.5c-1.9,4.4-1.3,8.1,1.8,11c1.6,1.5,3.9,2.3,6.8,2.4c-1.8,4.1-1.3,7.5,1.6,10.1c1.5,1.4,3.3,2.2,5.4,2.3  c2.1,0.1,3.8-0.6,5.2-2.1c1.8-1.9,2.1-4.4,1.1-7.4c2,1.4,3.5,2.3,4.5,2.7c-0.9,3.5-1.2,5.7-0.9,6.7c-3.4-1.4-6-1.1-7.7,0.8  c-1,1.1-1.5,2.6-1.3,4.5c0.1,1.9,0.9,3.5,2.2,4.7c1.2,1.1,2.7,1.7,4.6,1.8c1.9,0.1,3.4-0.5,4.5-1.6c0.4-0.5,0.9-1.7,1.4-3.6l3.1,1.5  c1.1,0.6,2.2,0.8,3.4,0.7c-1.5,3.4-0.8,6.4,2.1,9.1c1.2,1.2,3.1,1.9,5.5,2.1c2.4,0.3,4.3-0.3,5.6-1.7c1.6-1.7,2.1-3.3,1.6-4.9  c2,1.3,3.8,1.8,5.4,1.7c-0.9,3.9-0.2,6.9,2.1,9.1c1.4,1.3,3.2,2.1,5.4,2.2c2.1,0.1,3.9-0.5,5.2-1.9c0.7-0.7,1.2-2,1.7-3.7  c5.1,2.2,9.1,1.9,11.9-1.2c0.4-0.5,1.1-1.5,1.9-3.1c2.9,0.3,4.9,0.5,6,0.5c-0.9,2.7-0.4,5,1.5,6.7c1,0.9,2.3,1.4,3.9,1.5  c1.6,0.1,2.9-0.4,3.8-1.4c0.8-0.9,1.2-2.1,1-3.7c-0.1-1.6-0.7-2.9-1.8-3.9c-0.8-0.8-2-1.3-3.7-1.7c1.3-1.9,2-3.3,2.2-4.2  c0.6,0.1,1.5,0.2,2.8,0.3c1.3,0.1,2.2,0.2,2.7,0.2c-0.8,2.3-0.3,4.4,1.6,6.1c2.7,2.5,5.1,2.6,7.2,0.3  C147.7,165.9,147.4,163.5,144.7,161z M24.9,70.1c-2-1.8-3.7-1.9-5.3-0.3c-1.6,1.7-1.5,3.5,0.5,5.4c1.9,1.7,3.6,1.8,5.3,0  C26.9,73.6,26.8,71.9,24.9,70.1z M20.5,89.1c-2-1.8-3.7-1.9-5.3-0.3c-1.6,1.7-1.5,3.5,0.5,5.4c1.9,1.8,3.6,1.8,5.3,0  C22.5,92.6,22.4,90.9,20.5,89.1z M98.8,18.4c0.3,0.2,0.9,0.4,1.8,0.5c0.9,0.1,1.6-0.1,2-0.5c0.3-0.3,0.5-0.9,0.5-1.8  c0-0.9-0.2-1.5-0.7-2c-0.4-0.3-1-0.5-1.9-0.6c-0.9-0.1-1.6,0.1-2,0.5c-0.3,0.3-0.4,0.9-0.4,1.8C97.9,17.2,98.2,17.9,98.8,18.4z   M12.9,109.4l-0.9,0.9c0.2,1.1,0.4,1.7,0.7,2c0.2,0.2,0.8,0.3,1.9,0.4l0.9-0.9c-0.2-1.1-0.4-1.7-0.5-1.8  C14.6,109.7,14,109.5,12.9,109.4z M23.4,121.8c-1.6-1.5-3-1.6-4.3-0.2c-1.3,1.4-1.2,2.9,0.4,4.4c1.6,1.5,3.1,1.5,4.4,0.1  C25.2,124.8,25,123.3,23.4,121.8z M118.2,25.6c1.7,1.6,3.3,1.6,4.8,0c1.4-1.5,1.2-3.1-0.4-4.6c-1.8-1.7-3.4-1.8-4.8-0.2  C116.2,22.3,116.4,23.9,118.2,25.6z M31.3,134.3c-1.7-1.6-3.3-1.6-4.8,0c-1.5,1.6-1.4,3.2,0.3,4.8c1.8,1.7,3.4,1.7,4.9,0.1  C33.2,137.6,33.1,136,31.3,134.3z M139.2,31.2c0.6,0.6,1.3,0.8,2,0.5l0.8-0.8c0.2-0.8,0.1-1.5-0.6-2.1c-0.5-0.5-1.2-0.6-2-0.3  l-0.8,0.8C138.5,30.1,138.7,30.7,139.2,31.2z M39.1,147.8c-0.4-0.4-1.2-0.7-2.2-0.8c-1-0.1-1.7,0.1-2.1,0.6  c-1.3,1.4-1.2,2.9,0.4,4.4c0.4,0.4,1.1,0.7,2.1,0.7c0.9,0.1,1.7-0.2,2.2-0.7c0.4-0.4,0.5-1.1,0.5-2C39.9,149,39.6,148.3,39.1,147.8z   M145.1,46.2c0.8,0.7,1.9,1.2,3.2,1.4c1.4,0.2,2.5-0.2,3.4-1.2c0.7-0.7,1-1.8,1-3.1c0-1.4-0.5-2.6-1.6-3.6c-1-0.9-2.2-1.4-3.6-1.4  c-1.4,0-2.5,0.4-3.3,1.3c-0.6,0.6-0.9,1.6-0.9,3C143.3,43.9,143.9,45.1,145.1,46.2z M67.3,166.5c-2.1-1.9-4-1.9-5.8,0  c-1.7,1.8-1.5,3.7,0.5,5.6c2.1,2,4.1,2.1,5.8,0.3C69.6,170.5,69.4,168.5,67.3,166.5z M87.7,173.2c-0.9-0.8-2.1-1.3-3.5-1.3  c-1.5,0-2.5,0.3-3.2,1c-0.6,0.6-0.8,1.7-0.7,3.2c0.1,1.5,0.6,2.7,1.5,3.5c0.7,0.7,1.8,1.1,3.3,1.2c1.5,0.1,2.6-0.2,3.3-1  c0.6-0.6,0.9-1.7,0.8-3.1C89.1,175.1,88.6,174,87.7,173.2z M176.7,97.1c2,1.8,3.7,1.9,5.3,0.3c1.6-1.7,1.5-3.5-0.5-5.4  c-1.9-1.8-3.6-1.8-5.3,0C174.7,93.6,174.9,95.3,176.7,97.1z M106.7,180.8c-1.6-1.5-3-1.6-4.3-0.2c-1.3,1.4-1.2,2.9,0.4,4.4  c1.5,1.4,2.9,1.4,4.3,0C108.3,183.6,108.2,182.3,106.7,180.8z M171.3,117.7c1.1,1,2.4,1.5,4,1.6c1.6,0.1,2.9-0.4,3.8-1.4  c0.8-0.9,1.2-2.1,1-3.7c-0.1-1.6-0.8-2.9-1.9-4c-1-0.9-2.3-1.4-3.9-1.5c-1.6-0.1-2.8,0.4-3.7,1.3  C168.3,112.6,168.5,115.2,171.3,117.7z M120.2,173.6c-1-0.9-2.2-1.4-3.5-1.4c-1.4,0-2.4,0.4-3.2,1.3c-0.6,0.6-0.9,1.6-1,2.9  c-0.1,1.3,0.5,2.5,1.6,3.6c0.8,0.7,1.9,1.2,3.3,1.4c1.4,0.2,2.5-0.2,3.4-1.1c0.7-0.7,1-1.8,1-3.1  C121.9,175.9,121.3,174.7,120.2,173.6z M187.9,108.6c0.1-0.2,0.2-0.6,0.1-1.5c-0.6-0.6-1.2-0.6-1.7,0l0,1.1  C186.5,108.4,187,108.5,187.9,108.6z M165.7,132.3c-0.1,1.5,0.4,2.8,1.6,3.9c0.8,0.7,1.9,1.2,3.3,1.4c1.4,0.2,2.6-0.2,3.5-1.3  c2-2.1,1.7-4.4-0.8-6.7c-1-0.9-2.2-1.4-3.5-1.4c-1.3,0-2.4,0.4-3.1,1.2C166.1,130.3,165.8,131.2,165.7,132.3z M156.3,155.6  c-2.1-2-4.1-2.1-5.9-0.2c-1.7,1.8-1.5,3.7,0.7,5.7c2.1,1.9,3.9,2,5.6,0.1C158.5,159.4,158.4,157.5,156.3,155.6z M183.1,127.7  c0.1-0.2,0.2-0.6,0.2-1.3c-0.6-0.6-1.2-0.6-1.7,0l0,1.1C181.9,127.6,182.4,127.7,183.1,127.7z M166.5,151.1c-1.2,0-1.8,0-1.8,0.1  c-0.2,0.2-0.2,0.9,0.1,1.8c0.8,0.3,1.5,0.4,2,0.3C166.9,152.6,166.8,151.8,166.5,151.1z"/>
<g transform="translate(30 30) scale(0.7)"><path d="m114.03 47.213c-5.9091 0-12.758 1.0287-20.549 3.0859-4.0269 1.0505-7.9006 2.3637-11.621 3.9394-3.6767 1.5758-7.0267 3.4353-10.047 5.5801-3.0202 2.101-5.558 4.5088-7.6152 7.2227-2.0572 2.7138-3.4364 5.8639-4.1367 9.4531-0.70034 3.5892-0.15395 6.8958 1.6406 9.916 1.7508 2.9327 3.9835 4.3984 6.6973 4.3984 2.3636 0 5.9754-2.1234 10.834-6.3691-3.0202-3.3704-4.0262-7.5285-3.0195-12.475 1.1818-5.8653 5.843-10.397 13.984-13.592 3.7205-1.4444 7.8353-2.4938 12.344-3.1504 4.5084-0.70034 9.2355-1.0508 14.182-1.0508 4.9899 0 9.847 0.63494 14.574 1.9043 12.125 3.1515 17.357 8.9073 15.693 17.268-0.87544 4.2896-4.4213 7.9013-10.637 10.834-2.7138 1.3131-5.6473 2.3192-8.7988 3.0195-3.1078 0.65656-6.1712 0.98437-9.1914 0.98437s-6.4341-0.4804-10.242-1.4434c8.3602-10.943 14.728-18.253 19.105-21.93-0.39394-0.39394-0.89697-0.74438-1.5098-1.0508-2.4512-1.2256-4.4653-1.1823-6.041 0.1309-5.0774 3.9831-11.293 9.8482-18.646 17.596-3.3266 3.5017-6.6952 7.1568-10.109 10.965-3.3704 3.7643-8.0768 9.0397-14.117 15.824-6.0404 6.7845-10.811 12.015-14.313 15.691-8.3165-3.5454-13.767-7.8128-16.35-12.803-3.6768 0.96298-5.6456 2.1216-5.9082 3.4785-0.70034 3.5454 0.19646 8.0993 2.6914 13.658 3.5017 7.6599 9.6306 13.634 18.385 17.924 8.9293 4.3771 19.148 6.5644 30.66 6.5644 15.495 0 28.474-3.7644 38.936-11.293 7.8788-5.6464 12.672-12.759 14.379-21.338 1.9259-9.5858-2.0363-16.917-11.885-21.994 6.7845-1.8384 12.454-4.6174 17.006-8.3379 5.0774-4.0269 8.1183-8.5808 9.125-13.658 1.2694-6.3468-0.0212-11.795-3.873-16.348-1.8384-2.1448-4.137-4.0043-6.8945-5.5801-2.7576-1.5758-5.8211-2.889-9.1914-3.9394-3.3704-1.0505-7.0028-1.8174-10.898-2.2988-3.8518-0.52526-8.7335-0.7871-14.643-0.7871zm-14.71 51.342c6.7407 0.26262 11.973 1.7304 15.693 4.4004 4.1144 2.9326 5.7121 6.697 4.793 11.293-0.96297 4.7272-3.7213 8.4464-8.2734 11.16-2.101 1.2693-4.5089 2.2547-7.2227 2.9551-2.67 0.70034-5.1212 1.1374-7.3535 1.3125-2.2323 0.13124-4.9247 0.19728-8.0762 0.19728s-7.1777-0.50303-12.08-1.5098c3.0639-3.7205 6.6305-8.2951 10.701-13.723 1.9259-2.5825 3.8741-5.2296 5.8438-7.9434s3.9612-5.4288 5.9746-8.1426z" fill="#a9a42c"/></g></svg>
