<?xml version="1.0" encoding="utf-8"?>
<!-- Generator: Adobe Illustrator 21.1.0, SVG Export Plug-In . SVG Version: 6.00 Build 0)  -->
<svg xmlns="http://www.w3.org/2000/svg" xmlns:xlink="http://www.w3.org/1999/xlink" version="1.1" id="Layer_1" x="0px" y="0px" viewBox="0 0 200 200" enable-background="new 0 0 200 200" xml:space="preserve">
<rect width="200" height="200" fill="#040404"/><path fill="#a9a42c" d="M197.8,108.6l-0.1-0.1c-3.3-3.9-8-6.1-13.1-6.1c-1.3,0-2.6,0.2-3.9,0.5c1-2,2-4,2.8-6.2  c3.2-2.9,5.2-6.9,5.5-11.3c0.3-4.5-1.1-8.9-4.1-12.4l-0.1-0.1c-0.9-1-2.4-1.1-3.4-0.2l-0.1,0.1c-6.8,5.8-7.8,15.9-2.6,23  c-3.5,8.4-8.5,15.6-14.5,21.3V94.1c0.6-0.2,1-0.6,1.3-1.2c4.3-8.4,5.7-17.7,4.7-26.8c3.8-0.6,7.2-2.5,9.8-5.4  c3.1-3.4,4.6-7.7,4.4-12.3v-0.1c-0.1-1.3-1.2-2.3-2.5-2.3h-0.2c-4.5,0.2-8.7,2.2-11.8,5.5c-0.9,1-1.7,2.1-2.3,3.3  c-0.9-2.7-2.1-5.4-3.5-8v-2c2.9-1.3,5.4-3.3,7.3-6c2.6-3.8,3.5-8.3,2.7-12.8l0-0.1c-0.2-1.3-1.5-2.2-2.8-1.9l-0.1,0  c-4.5,0.8-8.3,3.4-10.9,7.1c-1.2,1.8-2.1,3.7-2.5,5.8c-2.2-2.8-4.7-5.4-7.4-7.8c2.6-2.5,4.4-5.7,5.1-9.3c0.8-4.5-0.1-9-2.7-12.7  L152.7,7c-0.3-0.5-0.9-0.9-1.5-1c-0.6-0.1-1.3,0-1.8,0.4l-0.1,0.1c-3.7,2.6-6.3,6.5-7.1,10.9c-0.3,1.8-0.4,3.6-0.1,5.4  c-1.9-1.2-3.8-2.3-5.9-3.4c-3.2-4.3-8.3-6.8-13.6-6.8c-3.5,0-6.9,1.1-9.8,3.1l-0.1,0.1c-0.5,0.4-0.9,0.9-1,1.6  c-0.1,0.6,0,1.3,0.4,1.8l0.1,0.1c3.2,4.5,8.4,7.2,13.9,7.2c3.1,0,6.1-0.8,8.7-2.4c2.6,1.3,5,2.9,7.2,4.5c-5.5,1.2-10,5.1-12.1,10.3  H70.1C68,33.6,63.5,29.7,58,28.5c2.3-1.6,4.7-3.1,7.2-4.5c2.6,1.6,5.6,2.4,8.7,2.4l0,0c5.5,0,10.7-2.7,13.9-7.2l0.1-0.1  c0.8-1.1,0.5-2.6-0.6-3.3l-0.1-0.1c-2.9-2-6.3-3.1-9.8-3.1c-5.4,0-10.4,2.5-13.6,6.8c-2,1-4,2.2-5.9,3.4c0.2-1.8,0.2-3.6-0.1-5.4  c-0.8-4.5-3.3-8.4-7.1-11l-0.1-0.1c-0.5-0.3-1.2-0.5-1.8-0.4c-0.6,0.1-1.2,0.5-1.5,1L47.2,7c-4.8,7-3.7,16.4,2.4,22.1  c-2.7,2.4-5.2,5.1-7.4,7.8c-1.5-6.4-6.6-11.6-13.5-12.9l-0.1,0c-1.3-0.2-2.6,0.6-2.8,1.9l0,0.1c-1.5,7.9,2.8,15.7,10,18.8v2  c-1.4,2.6-2.5,5.3-3.5,8c-0.6-1.2-1.4-2.3-2.3-3.3c-3.1-3.4-7.2-5.3-11.8-5.5H18c-1.3-0.1-2.4,1-2.5,2.3v0.1  c-0.2,4.5,1.3,8.9,4.4,12.3c2.6,2.9,6.1,4.7,9.8,5.4c-1,9.1,0.4,18.3,4.7,26.8c0.3,0.6,0.8,1,1.3,1.2v23  c-6.1-5.8-11.1-13.1-14.5-21.3c2.4-3.3,3.6-7.2,3.3-11.3c-0.3-4.5-2.4-8.7-5.9-11.6l-0.1-0.1c-1-0.9-2.5-0.8-3.4,0.2L15.1,73  c-3,3.4-4.4,7.9-4.1,12.4c0.3,4.4,2.3,8.4,5.5,11.3c0.8,2.1,1.8,4.2,2.8,6.2c-1.3-0.3-2.6-0.5-3.9-0.5c-5.1,0-9.8,2.2-13.1,6.1  l-0.1,0.1c-0.4,0.5-0.6,1.1-0.5,1.7c0.1,0.6,0.3,1.2,0.9,1.6l0.1,0.1c3.1,2.6,6.9,4,10.9,4l0,0c4.2,0,8.2-1.5,11.2-4.2  c3.2,4.4,6.9,8.2,11,11.6v17.9l-0.1,0.1c-6.5,2.7-10.5,9-10.5,15.6c-2.1-1.9-4.1-3.9-5.9-6.1c1.3-3.8,1.2-8-0.4-11.8  c-1.7-4.2-5-7.5-9.1-9.3l-0.1-0.1c-0.6-0.2-1.2-0.2-1.8,0c-0.6,0.2-1,0.7-1.3,1.3l-0.1,0.1c-1.8,4.2-1.8,8.8-0.1,13  c1.7,4.1,4.7,7.3,8.7,9.1c1.5,1.7,3,3.4,4.6,5c-6.4,0.5-12,4.5-14.4,10.6l-0.1,0.1c-0.2,0.6-0.2,1.2,0,1.8s0.7,1,1.3,1.3l0.1,0.1  c2,0.8,4.2,1.3,6.4,1.3l0,0c6.1,0,11.6-3.2,14.6-8.3c2.9,2.1,6,4,9.2,5.5c-1.9,0.9-3.6,2.2-5,3.7c-3.1,3.3-4.7,7.6-4.6,12.2v0.1  c0,0.6,0.3,1.2,0.8,1.7c0.5,0.4,1,0.6,1.6,0.6c0,0,0.1,0,0.1,0h0.1c8.4-0.3,15.2-6.6,16.3-14.7c2.3,0.7,4.7,1.3,7.1,1.7  c1.1,0.2,2.2,0.3,3.3,0.5c-4.3,3.8-6.6,9.6-5.5,15.7l0,0.1c0.2,1.2,1.2,2,2.3,2c0.1,0,0.3,0,0.4,0l0.1,0c8.6-1.5,14.6-9.2,14.1-17.7  c8.7-0.9,16.8-4,23.7-9.2h5l-2.3,3.2c-4.4,6.2-4.4,16.1,0,22.3c0.8,1.1,2.3,1.3,3.3,0.6c1.1-0.8,1.3-2.3,0.6-3.3  c-3.2-4.5-3.2-12.2,0-16.8l1.6-2.2l1.6,2.2c3.2,4.5,3.2,12.2,0,16.8c-0.8,1.1-0.5,2.6,0.6,3.3c0.4,0.3,0.9,0.4,1.4,0.4  c0.8,0,1.5-0.3,2-1c4.4-6.2,4.4-16.1,0-22.3l-2.3-3.2h5.3c6.9,5.2,15,8.3,23.7,9.2c-0.4,8.5,5.5,16.2,14.1,17.7l0.1,0  c0.1,0,0.3,0,0.4,0c1.1,0,2.2-0.8,2.3-2l0-0.1c1-6-1.3-11.9-5.5-15.7c1.1-0.1,2.2-0.3,3.3-0.5c2.4-0.4,4.8-1,7.1-1.7  c0.5,3.5,2,6.7,4.4,9.3c3.1,3.3,7.3,5.2,11.9,5.4h0.1c0,0,0.1,0,0.1,0c0.6,0,1.2-0.2,1.6-0.6c0.5-0.4,0.7-1,0.8-1.7v-0.1  c0.2-6.9-3.8-13.1-9.7-15.9c3.2-1.6,6.3-3.4,9.2-5.5c3,5.1,8.5,8.3,14.6,8.3c2.2,0,4.4-0.4,6.4-1.3l0.1-0.1c0.6-0.2,1-0.7,1.3-1.3  c0.2-0.6,0.2-1.2,0-1.8l-0.1-0.1c-2.4-6-8-10.1-14.4-10.6c1.6-1.6,3.1-3.2,4.6-5c4-1.8,7.1-5,8.7-9.1c1.7-4.2,1.7-8.9-0.1-13  l-0.1-0.1c-0.2-0.6-0.7-1-1.3-1.3c-0.6-0.2-1.2-0.2-1.8,0l-0.1,0.1c-4.2,1.8-7.5,5.1-9.2,9.3c-1.6,3.8-1.7,7.9-0.4,11.8  c-1.9,2.2-3.8,4.2-5.9,6.1c0-2.2-0.5-4.4-1.3-6.5c-1.7-4.2-5-7.5-9.2-9.2l-0.1-0.1v-17.9c4-3.3,7.7-7.2,11-11.5  c3.1,2.7,7.1,4.3,11.2,4.3c4,0,7.9-1.4,10.9-4l0.1-0.1c0.5-0.4,0.8-1,0.9-1.6C198.4,109.7,198.2,109.1,197.8,108.6z M173.6,54.9  c1.6-1.8,3.7-3,6-3.6c-0.4,2.3-1.4,4.5-3,6.3c-1.6,1.8-3.7,3-6,3.6C170.9,58.8,171.9,56.6,173.6,54.9z M126,21.6  c-3.1,0-6.1-1.2-8.4-3.3c1.5-0.7,3.2-1,4.9-1c3.1,0,6.1,1.2,8.4,3.3C129.4,21.2,127.7,21.6,126,21.6z M77.5,17.3  c1.7,0,3.3,0.3,4.9,1c-2.3,2.1-5.2,3.3-8.4,3.3c-1.7,0-3.3-0.3-4.9-1C71.4,18.5,74.4,17.3,77.5,17.3z M23.5,57.5  c-1.6-1.8-2.7-4-3-6.3c2.3,0.6,4.4,1.8,6,3.6c1.6,1.8,2.7,4,3,6.3C27.2,60.6,25.1,59.3,23.5,57.5z M18.2,91.6  c-1.5-1.9-2.3-4.1-2.5-6.5c-0.2-2.4,0.3-4.8,1.5-6.9c1.5,1.9,2.3,4.1,2.5,6.5C19.9,87.1,19.4,89.5,18.2,91.6z M13.6,111.2  c-2,0-4-0.5-5.8-1.5c2.2-1.7,4.8-2.6,7.6-2.6c2,0,4,0.5,5.8,1.5C19,110.3,16.3,111.2,13.6,111.2z M15,147.8c-2-1.3-3.5-3.2-4.4-5.5  c-0.9-2.2-1.1-4.7-0.7-7C14,138.1,15.9,143,15,147.8z M12.9,168.5c-0.8,0-1.5-0.1-2.2-0.2c2.2-3.4,6-5.4,10.2-5.4  c0.7,0,1.5,0.1,2.2,0.2C20.8,166.5,17,168.5,12.9,168.5z M185.7,140.8c0.9-2.2,2.4-4.1,4.4-5.5c0.5,2.3,0.2,4.7-0.7,7  c-0.9,2.2-2.4,4.1-4.4,5.5C184.5,145.5,184.7,143.1,185.7,140.8z M179.2,162.9c4.2,0,7.9,2.1,10.2,5.4c-0.7,0.1-1.5,0.2-2.2,0.2  c-4.2,0-7.9-2.1-10.2-5.4C177.7,163,178.4,162.9,179.2,162.9z M40.5,162.5V43.5h118.9v118.9H40.5z M165.7,68.4  c0.3,4.9-0.1,9.9-1.4,14.6V69.4C164.7,69.1,165.2,68.8,165.7,68.4z M164.3,33.8c1.4-2,3.3-3.5,5.4-4.4c-0.1,2.4-0.8,4.7-2.2,6.7  c-1,1.5-2.3,2.7-3.8,3.6c-0.3-0.5-0.9-0.8-1.5-0.9C162.5,37,163.2,35.3,164.3,33.8z M153.1,38.8h-5.8c0.9-1.2,1.7-2.4,2.3-3.8  C150.9,36.2,152,37.4,153.1,38.8z M146.8,18.2c0.4-2.4,1.6-4.5,3.2-6.2c0.9,2.2,1.2,4.6,0.8,7c-0.4,2.4-1.6,4.5-3.2,6.2  C146.7,22.9,146.4,20.5,146.8,18.2z M145.4,32.8c-1,2.5-2.8,4.6-5,6h-5.1C137.3,35.2,141.1,32.9,145.4,32.8z M64.8,38.8h-5.1  c-2.3-1.4-4-3.4-5-6C58.9,32.9,62.7,35.2,64.8,38.8z M50,11.9c1.6,1.7,2.7,3.8,3.2,6.2c0.4,2.4,0.2,4.8-0.8,7  C49.1,21.6,48.1,16.4,50,11.9z M50.4,34.9c0.6,1.4,1.3,2.7,2.3,3.8h-5.8C48,37.4,49.2,36.2,50.4,34.9z M30.3,29.4  c4,1.6,6.8,5.2,7.4,9.4c-0.6,0.1-1.1,0.4-1.5,0.9C32.7,37.6,30.4,33.7,30.3,29.4z M34.4,68.4c0.5,0.3,0.9,0.7,1.4,1v13.6  C34.4,78.3,34,73.4,34.4,68.4z M30.1,159.3c-0.9-4.8,1.2-9.7,5.2-12.4C36.2,151.7,34.1,156.6,30.1,159.3z M35.8,160.6v4  c-0.9-0.5-1.8-1-2.7-1.6C34.1,162.3,35,161.5,35.8,160.6z M32,183.8c0.4-2.3,1.5-4.5,3.1-6.3c1.7-1.8,3.7-3,6.1-3.5  C40.4,178.8,36.7,182.7,32,183.8z M53.9,171.2c-4.5-0.8-8.9-2.1-13.1-4h17c0.4,1.6,1,3.2,1.8,4.7C57.8,171.8,55.9,171.6,53.9,171.2z   M55.4,188.8c0.2-4.8,3.2-9.2,7.7-11C63,182.6,59.9,187,55.4,188.8z M62.9,167.3h2.9c-0.3,1.1-0.7,2.1-1.3,3.1  C63.7,169.4,63.2,168.3,62.9,167.3z M69.2,171.5c0.7-1.3,1.1-2.8,1.4-4.3h12C78.5,169.4,74,170.8,69.2,171.5z M117.4,167.3h12  c0.3,1.5,0.8,2.9,1.4,4.3C126,170.8,121.5,169.4,117.4,167.3z M134.2,167.3h2.9c-0.4,1.1-0.9,2.2-1.6,3.1  C135,169.4,134.6,168.3,134.2,167.3z M144.6,188.8c-4.5-1.8-7.6-6.1-7.7-11C141.3,179.6,144.4,183.9,144.6,188.8z M146.1,171.2  c-1.9,0.3-3.9,0.5-5.8,0.6c0.8-1.5,1.5-3,1.9-4.7h17C155,169.1,150.6,170.5,146.1,171.2z M168,183.8c-2.3-0.5-4.4-1.7-6.1-3.5  c-1.7-1.8-2.7-3.9-3.1-6.3C163.5,175.2,167.2,179,168,183.8z M164.8,146.9c2,1.3,3.5,3.2,4.4,5.4s1.2,4.6,0.8,7  C165.9,156.6,163.9,151.7,164.8,146.9z M167,163c-0.9,0.6-1.8,1.1-2.7,1.6v-4C165.1,161.5,166,162.3,167,163z M182.8,78.2  c1.2,2.1,1.7,4.4,1.5,6.8c-0.2,2.4-1,4.7-2.5,6.5C179.4,87.3,179.9,82,182.8,78.2z M186.4,111.2c-2.8,0-5.4-0.9-7.6-2.6  c1.8-0.9,3.8-1.5,5.8-1.5c2.8,0,5.4,0.9,7.6,2.6C190.5,110.7,188.5,111.2,186.4,111.2z"/>
<g transform="translate(30 30) scale(0.7)"><path d="m114.03 47.213c-5.9091 0-12.758 1.0287-20.549 3.0859-4.0269 1.0505-7.9006 2.3637-11.621 3.9394-3.6767 1.5758-7.0267 3.4353-10.047 5.5801-3.0202 2.101-5.558 4.5088-7.6152 7.2227-2.0572 2.7138-3.4364 5.8639-4.1367 9.4531-0.70034 3.5892-0.15395 6.8958 1.6406 9.916 1.7508 2.9327 3.9835 4.3984 6.6973 4.3984 2.3636 0 5.9754-2.1234 10.834-6.3691-3.0202-3.3704-4.0262-7.5285-3.0195-12.475 1.1818-5.8653 5.843-10.397 13.984-13.592 3.7205-1.4444 7.8353-2.4938 12.344-3.1504 4.5084-0.70034 9.2355-1.0508 14.182-1.0508 4.9899 0 9.847 0.63494 14.574 1.9043 12.125 3.1515 17.357 8.9073 15.693 17.268-0.87544 4.2896-4.4213 7.9013-10.637 10.834-2.7138 1.3131-5.6473 2.3192-8.7988 3.0195-3.1078 0.65656-6.1712 0.98437-9.1914 0.98437s-6.4341-0.4804-10.242-1.4434c8.3602-10.943 14.728-18.253 19.105-21.93-0.39394-0.39394-0.89697-0.74438-1.5098-1.0508-2.4512-1.2256-4.4653-1.1823-6.041 0.1309-5.0774 3.9831-11.293 9.8482-18.646 17.596-3.3266 3.5017-6.6952 7.1568-10.109 10.965-3.3704 3.7643-8.0768 9.0397-14.117 15.824-6.0404 6.7845-10.811 12.015-14.313 15.691-8.3165-3.5454-13.767-7.8128-16.35-12.803-3.6768 0.96298-5.6456 2.1216-5.9082 3.4785-0.70034 3.5454 0.19646 8.0993 2.6914 13.658 3.5017 7.6599 9.6306 13.634 18.385 17.924 8.9293 4.3771 19.148 6.5644 30.66 6.5644 15.495 0 28.474-3.7644 38.936-11.293 7.8788-5.6464 12.672-12.759 14.379-21.338 1.9259-9.5858-2.0363-16.917-11.885-21.994 6.7845-1.8384 12.454-4.6174 17.006-8.3379 5.0774-4.0269 8.1183-8.5808 9.125-13.658 1.2694-6.3468-0.0212-11.795-3.873-16.348-1.8384-2.1448-4.137-4.0043-6.8945-5.5801-2.7576-1.5758-5.8211-2.889-9.1914-3.9394-3.3704-1.0505-7.0028-1.8174-10.898-2.2988-3.8518-0.52526-8.7335-0.7871-14.643-0.7871zm-14.71 51.342c6.7407 0.26262 11.973 1.7304 15.693 4.4004 4.1144 2.9326 5.7121 6.697 4.793 11.293-0.96297 4.7272-3.7213 8.4464-8.2734 11.16-2.101 1.2693-4.5089 2.2547-7.2227 2.9551-2.67 0.70034-5.1212 1.1374-7.3535 1.3125-2.2323 0.13124-4.9247 0.19728-8.0762 0.19728s-7.1777-0.50303-12.08-1.5098c3.0639-3.7205 6.6305-8.2951 10.701-13.723 1.9259-2.5825 3.8741-5.2296 5.8438-7.9434s3.9612-5.4288 5.9746-8.1426z" fill="#a9a42c"/></g></svg>
