<?xml version="1.0" encoding="utf-8"?>
<!-- Generator: Adobe Illustrator 21.1.0, SVG Export Plug-In . SVG Version: 6.00 Build 0)  -->
<svg xmlns="http://www.w3.org/2000/svg" xmlns:xlink="http://www.w3.org/1999/xlink" version="1.1" id="Layer_1" x="0px" y="0px" viewBox="0 0 200 200" enable-background="new 0 0 200 200" xml:space="preserve">
<path fill="#040404" d="M27.2,125.3l1.9,2.4l-1-3.1C27.9,123.1,26.2,124.8,27.2,125.3 M29.4,123.8c0.7,1.2,1.5,2.4,1.5,3.6  c0,1.7,1.5,2.4,2.7,2.9C31.8,128.4,30.8,123.1,29.4,123.8 M122.3,21.2c4.1,0,8-0.5,12.3,0.5c10.6,2.7,19.6,8,25.7,15.5l16.9,27.1  c0.7,6.8,2.2,14.3,1.9,22.5c1.7,0,1.5-2.4,3.4-2.9c-1.9,4.8-2.9,10.9-3.4,17.9c-1.2-3.9,0-9.7,0.2-12.8c-1.7,2.7-2.7,0.7-2.7-0.5  c0.2-1.9-0.7-1.7-1.5-2.4c-2.7-2.4-4.4-5.1-6.3-9.2c1.2-3.1,1.5-7.7-2.4-10.2c-1.2-0.7-2.7-1.9-3.4-3.9c-1-2.7-2.7-5.8-2.2-9.9  c0.2-1.2-3.6,2.7-5.8,1c-9.4-6.5-18.9-14-30.3-20.3c-6.1,0-10.4-2.2-12.6-4.8c-1.9-2.4-0.5-5.6,2.4-5.8c1.7,0,3.6-0.5,5.1,0.5  C120.1,22.4,121.1,21.2,122.3,21.2 M98.4,15.7l0.5,0.2c2.4,0.5,3.6,3.9,6.3,2.7c0,1.7,0.2,3.4-0.2,4.6c-0.7,1.9-2.9,1.9-4.6,1.9  c-16.2-1-25.7,5.8-35.6,11.6c-2.7,1.7-5.6,2.9-7.7,5.1c-10.4,9.7-21.8,18.6-24.4,36.5l-2.2,19.8c-0.2,2.2-2.7,4.4-2.2,7l1.7,11.9  c-1.7-1.7-2.7,0.5-2.2,1.5c0.2,0.7,1.2,3.1,2.7,1c1.9,3.6,3.9,10.6,6.5,13.8c8.2,9.7,18.9,18.4,27.6,27.1c2.2-0.5,3.9-0.5,4.4-1.9  c0.7,1.5-0.7,2.9-1.9,3.1c3.9,2.4,8.2,4.6,14,5.1c7.5,0.5,14.5,1.7,21.1,3.4c3.4-1,6.8-1.5,10.4-1.7c1.2,0,1.9-1.9,3.4-2.4l0.2-2.4  c1.5,2.2,1.2-0.7,0.2-2.2c1.7,1.5,2.2,2.7,2.9,3.6c0-0.7,1.9-3.4,1.9-0.2l0.5-3.1c0.7-0.5,1,2.7,1.7,0.5s2.2-0.5,3.6-1.2  c-0.5,1-0.2,2.9,1.5,1.7l1.9-1.7c1.2,2.9,3.1,1.7,4.1,1.2c10.6-6.8,21.3-14.8,31.5-22.7l-0.2,3.1l1.2-3.9c1.2,1.2,2.2,0.2,2.7-0.5  c1.5-2.4,3.4-4.8,6.5-7c-3.9,10.4-8.5,18.6-14.3,25.4l-2.4,2.9c0,1.7-0.5,3.9-2.4,4.1c-1,0.2-2.9-0.5-4.4,1c-0.7,1,1.7,2.9-0.2,1.5  c-1.7-1.2-3.4,0-5.3,0.5c-1.5,0.5,1,1.9,1.5,2.9c0.5,1,1,1.9,0.7,3.1l-2.7-2.9c-3.1,1.7-5.1,4.8-7.7,7.3c-1.2,1-0.7,2.7-0.7,4.1  c-1.7,0-3.6-0.5-4.6,0.5c-0.7,1-0.5,2.4-0.5,3.9c-2.4-0.2-2.7-3.9-4.8-3.1c-2.2,0.5-4.6,0.7-6.5,1.9c1.5,2.9-2.4,1.2-1.9,1.7  c-3.6-2.2-6.8-3.9-10.6-2.4c-8.2-2.7-18.4-1.5-25.9-0.5c0-1.2,0.2-2.4-0.2-2.7c-0.5,1.2-1.9,0.7-1.7,0.7c-4.6-3.1-9.2-5.1-14-7.7  c-4.4,0.5-8.5-1.7-9.7-2.9c-3.4-3.1-7.3-1.5-10.4-2.2c-6.8-1.7-9.2-8.7-9.9-13.6c-0.5-2.4-2.4-3.4-3.1-3.1  c-3.1-10.2-8-19.4-11.9-28.8c-1-2.4-0.7-4.8-0.7-7.5c1.2,0.5,2.4,0.2,2.2-1.5c-1.2-8-4.1-14-7.3-19.8c1.7-8.2,1.9-17.9,5.8-25.2  c3.4-6.5,9.7-9.9,14-15.5c1.5-1.9,1.5-4.6,2.9-6.3c4.8-4.8,9.7-9.9,15-14.3c2.4-1.9,5.3,0,9-0.7c1.2-4.4,6.1-8.2,10.6-7  c1.9,0.5,5.8-4.6,7-5.1c1.9-0.7,1,1.9,1,3.6C86.3,19.8,92.6,17.8,98.4,15.7"/>
<g transform="translate(30 30) scale(0.7)">
  
  <defs id="defs285458"/>
  <linearGradient id="3d_gradient2-logo-AB01AE2D2735437986BDF38AA15DFFAE" x1="30%" y1="120%" x2="-10%" y2="30%" spreadMethod="pad">
    <stop offset="0%" stop-color="#ffffff" stop-opacity="1" id="stop285435"/>
    <stop offset="100%" stop-color="#000000" stop-opacity="1" id="stop285437"/>
  </linearGradient>
  <linearGradient id="3d_gradient3-logo-AB01AE2D2735437986BDF38AA15DFFAE" x1="30%" y1="120%" x2="-10%" y2="30%" spreadMethod="pad" gradientTransform="rotate(-30)">
    <stop offset="0%" stop-color="#ffffff" stop-opacity="1" id="stop285440"/>
    <stop offset="50%" stop-color="#cccccc" stop-opacity="1" id="stop285442"/>
    <stop offset="100%" stop-color="#000000" stop-opacity="1" id="stop285444"/>
  </linearGradient>
  <path id="path285493" style="font-style:oblique;font-weight:normal;font-size:72px;line-height:1;font-family:Molle;font-variant-ligatures:none;text-align:center;text-anchor:middle;fill:#000000;stroke:#000000;stroke-width:0;stroke-linejoin:miter;stroke-miterlimit:2" d="m 133.39678,98.161624 q 14.77272,7.616156 11.88384,21.994926 -2.56061,12.86866 -14.37877,21.33835 -15.69191,11.29291 -38.9343,11.29291 -17.267647,0 -30.661578,-6.56564 -13.131296,-6.43434 -18.383815,-17.92422 -3.742407,-8.33837 -2.691904,-13.65655 0.393925,-2.03535 5.909079,-3.47979 3.873734,7.48484 16.348452,12.80301 5.252518,-5.51514 14.313126,-15.6919 9.06059,-10.176752 14.116137,-15.82321 5.12121,-5.712114 10.111093,-10.964633 11.03029,-11.621196 18.64645,-17.595937 2.36362,-1.969693 6.04039,-0.131308 0.91919,0.459596 1.51011,1.050504 -6.56566,5.515144 -19.10604,21.929263 5.71211,1.444444 10.2424,1.444444 4.5303,0 9.19192,-0.984848 4.72726,-1.050504 8.79797,-3.020197 9.32321,-4.398985 10.63635,-10.833321 2.49495,-12.540386 -15.69192,-17.267653 -7.09089,-1.904039 -14.57572,-1.904039 -7.41919,0 -14.1818,1.050504 -6.762629,0.984848 -12.343427,3.151511 -12.212101,4.792924 -13.984828,13.590892 -1.510092,7.419182 3.020203,12.474732 -7.287881,6.368678 -10.833317,6.368678 -4.070707,0 -6.696966,-4.398985 -2.691922,-4.530296 -1.641419,-9.914129 1.050504,-5.38383 4.13637,-9.454533 3.085848,-4.070701 7.616142,-7.222212 4.530295,-3.217167 10.045449,-5.5808 5.580798,-2.363633 11.621185,-3.939389 11.686868,-3.085855 20.550488,-3.085855 8.86362,0 14.64139,0.787878 5.84343,0.722222 10.89898,2.297977 5.05554,1.575756 9.19191,3.939389 4.13635,2.363633 6.89392,5.5808 5.77777,6.828274 3.87374,16.348463 -1.5101,7.616152 -9.12626,13.656548 -6.82827,5.580801 -17.00503,8.338374 z M 76.80091,128.3636 q 7.353526,1.5101 12.080793,1.5101 4.727266,0 8.075749,-0.19697 3.348468,-0.26262 7.353528,-1.31313 4.07069,-1.0505 7.2222,-2.95454 6.82827,-4.0707 8.27272,-11.1616 1.37878,-6.89393 -4.79293,-11.29291 -5.5808,-4.005048 -15.691894,-4.398988 -3.020203,4.070698 -5.974742,8.141408 -2.954539,4.0707 -5.843415,7.94443 -6.106069,8.1414 -10.702009,13.7222 z" stroke-miterlimit="2"/>
</g></svg>
