<?xml version="1.0" encoding="utf-8"?>
<!-- Generator: Adobe Illustrator 21.1.0, SVG Export Plug-In . SVG Version: 6.00 Build 0)  -->
<svg xmlns="http://www.w3.org/2000/svg" xmlns:xlink="http://www.w3.org/1999/xlink" version="1.1" id="Layer_1" x="0px" y="0px" viewBox="0 0 200 200" enable-background="new 0 0 200 200" xml:space="preserve">
<rect width="200" height="200" fill="#a9a42c"/><path fill="#040404" d="M108.2,29.3c0-1.8-1.5-3.3-3.3-3.3c-1.8,0-3.2,1.5-3.2,3.3c0,1.8,1.4,3.2,3.2,3.2  C106.7,32.5,108.2,31.1,108.2,29.3z M94.3,29.7c0-1.8-1.5-3.2-3.3-3.2c-1.8,0-3.3,1.4-3.3,3.2c0,1.8,1.5,3.3,3.3,3.3  C92.8,32.9,94.3,31.5,94.3,29.7z M121.9,31.6c0-1.8-1.5-3.3-3.3-3.3c-1.8,0-3.3,1.5-3.3,3.3c0,1.8,1.5,3.2,3.3,3.2  C120.4,34.8,121.9,33.4,121.9,31.6z M80.7,32.8c0-1.8-1.5-3.3-3.3-3.3c-1.8,0-3.2,1.5-3.2,3.3s1.4,3.3,3.2,3.3  C79.2,36.1,80.7,34.6,80.7,32.8z M134.9,36.5c0-1.8-1.5-3.3-3.3-3.3c-1.8,0-3.3,1.5-3.3,3.3c0,1.8,1.5,3.3,3.3,3.3  C133.4,39.8,134.9,38.3,134.9,36.5z M68,38.5c0-1.8-1.4-3.3-3.2-3.3c-1.8,0-3.3,1.5-3.3,3.3c0,1.8,1.5,3.2,3.3,3.2  C66.6,41.7,68,40.3,68,38.5z M146.7,43.9c0-1.8-1.5-3.3-3.3-3.3c-1.8,0-3.3,1.5-3.3,3.3c0,1.8,1.5,3.2,3.3,3.2  C145.2,47.2,146.7,45.7,146.7,43.9z M56.7,46.5c0-1.8-1.5-3.2-3.3-3.2s-3.2,1.4-3.2,3.2c0,1.8,1.4,3.3,3.2,3.3S56.7,48.3,56.7,46.5z   M156.7,53.4c0-1.8-1.4-3.2-3.2-3.2c-1.8,0-3.3,1.4-3.3,3.2c0,1.8,1.5,3.3,3.3,3.3C155.3,56.7,156.7,55.3,156.7,53.4z M47.2,56.6  c0-1.8-1.4-3.3-3.2-3.3c-1.8,0-3.3,1.5-3.3,3.3c0,1.8,1.5,3.3,3.3,3.3C45.7,59.9,47.2,58.4,47.2,56.6z M161.5,68  c1.8,0,3.3-1.4,3.3-3.2c0-1.8-1.5-3.3-3.3-3.3c-1.8,0-3.2,1.5-3.2,3.3C158.3,66.6,159.7,68,161.5,68z M36.5,71.7  c1.8,0,3.3-1.5,3.3-3.3c0-1.8-1.5-3.3-3.3-3.3s-3.3,1.5-3.3,3.3C33.3,70.2,34.7,71.7,36.5,71.7z M167.2,80.7c1.8,0,3.3-1.5,3.3-3.3  c0-1.8-1.5-3.2-3.3-3.2c-1.8,0-3.3,1.4-3.3,3.2C163.9,79.2,165.4,80.7,167.2,80.7z M31.6,84.7c1.8,0,3.2-1.5,3.2-3.3  c0-1.8-1.4-3.3-3.2-3.3c-1.8,0-3.3,1.5-3.3,3.3C28.3,83.2,29.8,84.7,31.6,84.7z M167.1,91c0,1.8,1.5,3.3,3.3,3.3s3.2-1.5,3.2-3.3  c0-1.8-1.4-3.3-3.2-3.3S167.1,89.2,167.1,91z M29.3,98.4c1.8,0,3.2-1.4,3.2-3.2c0-1.8-1.4-3.3-3.2-3.3c-1.8,0-3.3,1.5-3.3,3.3  C26,96.9,27.5,98.4,29.3,98.4z M170.7,101.6c-1.8,0-3.2,1.4-3.2,3.2c0,1.8,1.4,3.3,3.2,3.3c1.8,0,3.3-1.5,3.3-3.3  C174,103.1,172.5,101.6,170.7,101.6z M32.9,109c0-1.8-1.5-3.3-3.3-3.3s-3.2,1.5-3.2,3.3c0,1.8,1.4,3.3,3.2,3.3S32.9,110.8,32.9,109z   M168.4,115.3c-1.8,0-3.2,1.5-3.2,3.3c0,1.8,1.4,3.3,3.2,3.3c1.8,0,3.3-1.5,3.3-3.3C171.7,116.8,170.2,115.3,168.4,115.3z   M32.8,119.3c-1.8,0-3.3,1.5-3.3,3.3c0,1.8,1.5,3.2,3.3,3.2c1.8,0,3.3-1.4,3.3-3.2C36.1,120.8,34.6,119.3,32.8,119.3z M163.5,128.3  c-1.8,0-3.3,1.5-3.3,3.3c0,1.8,1.5,3.3,3.3,3.3s3.3-1.5,3.3-3.3C166.7,129.8,165.3,128.3,163.5,128.3z M38.5,132  c-1.8,0-3.3,1.4-3.3,3.2s1.5,3.3,3.3,3.3c1.8,0,3.2-1.5,3.2-3.3S40.3,132,38.5,132z M156.1,140.1c-1.8,0-3.2,1.5-3.2,3.3  c0,1.8,1.4,3.3,3.2,3.3c1.8,0,3.3-1.5,3.3-3.3C159.3,141.6,157.9,140.1,156.1,140.1z M46.5,143.3c-1.8,0-3.2,1.5-3.2,3.3  s1.4,3.2,3.2,3.2c1.8,0,3.3-1.4,3.3-3.2S48.3,143.3,46.5,143.3z M146.6,150.2c-1.8,0-3.3,1.5-3.3,3.3c0,1.8,1.5,3.2,3.3,3.2  c1.8,0,3.2-1.4,3.2-3.2C149.8,151.7,148.4,150.2,146.6,150.2z M56.6,152.8c-1.8,0-3.3,1.4-3.3,3.2c0,1.8,1.5,3.3,3.3,3.3  c1.8,0,3.3-1.5,3.3-3.3C59.9,154.3,58.4,152.8,56.6,152.8z M135.2,158.3c-1.8,0-3.2,1.4-3.2,3.2c0,1.8,1.4,3.3,3.2,3.3  c1.8,0,3.3-1.5,3.3-3.3C138.5,159.7,137,158.3,135.2,158.3z M68.4,160.2c-1.8,0-3.3,1.5-3.3,3.3s1.5,3.3,3.3,3.3  c1.8,0,3.3-1.5,3.3-3.3S70.2,160.2,68.4,160.2z M122.6,163.9c-1.8,0-3.3,1.5-3.3,3.3c0,1.8,1.5,3.3,3.3,3.3c1.8,0,3.2-1.5,3.2-3.3  C125.8,165.4,124.4,163.9,122.6,163.9z M81.4,165.2c-1.8,0-3.3,1.4-3.3,3.2c0,1.8,1.5,3.3,3.3,3.3c1.8,0,3.3-1.5,3.3-3.3  C84.7,166.6,83.2,165.2,81.4,165.2z M109,167.1c-1.8,0-3.3,1.5-3.3,3.3c0,1.8,1.5,3.2,3.3,3.2c1.8,0,3.3-1.4,3.3-3.2  C112.3,168.5,110.8,167.1,109,167.1z M95.1,167.5c-1.8,0-3.3,1.4-3.3,3.2c0,1.8,1.5,3.3,3.3,3.3c1.8,0,3.2-1.5,3.2-3.3  S96.9,167.5,95.1,167.5z M100,14.5c-47.2,0-85.5,38.3-85.5,85.5c0,47.2,38.3,85.5,85.5,85.5c47.2,0,85.5-38.3,85.5-85.5  C185.5,52.8,147.2,14.5,100,14.5z M100,180.6c-44.5,0-80.6-36.1-80.6-80.6c0-44.5,36.1-80.6,80.6-80.6s80.6,36.1,80.6,80.6  C180.6,144.5,144.5,180.6,100,180.6z"/>
<g transform="translate(30 30) scale(0.7)">
  
  <defs id="defs285458"/>
  <linearGradient id="3d_gradient2-logo-AB01AE2D2735437986BDF38AA15DFFAE" x1="30%" y1="120%" x2="-10%" y2="30%" spreadMethod="pad">
    <stop offset="0%" stop-color="#ffffff" stop-opacity="1" id="stop285435"/>
    <stop offset="100%" stop-color="#000000" stop-opacity="1" id="stop285437"/>
  </linearGradient>
  <linearGradient id="3d_gradient3-logo-AB01AE2D2735437986BDF38AA15DFFAE" x1="30%" y1="120%" x2="-10%" y2="30%" spreadMethod="pad" gradientTransform="rotate(-30)">
    <stop offset="0%" stop-color="#ffffff" stop-opacity="1" id="stop285440"/>
    <stop offset="50%" stop-color="#cccccc" stop-opacity="1" id="stop285442"/>
    <stop offset="100%" stop-color="#000000" stop-opacity="1" id="stop285444"/>
  </linearGradient>
  <path id="path285493" style="font-style:oblique;font-weight:normal;font-size:72px;line-height:1;font-family:Molle;font-variant-ligatures:none;text-align:center;text-anchor:middle;fill:#000000;stroke:#000000;stroke-width:0;stroke-linejoin:miter;stroke-miterlimit:2" d="m 133.39678,98.161624 q 14.77272,7.616156 11.88384,21.994926 -2.56061,12.86866 -14.37877,21.33835 -15.69191,11.29291 -38.9343,11.29291 -17.267647,0 -30.661578,-6.56564 -13.131296,-6.43434 -18.383815,-17.92422 -3.742407,-8.33837 -2.691904,-13.65655 0.393925,-2.03535 5.909079,-3.47979 3.873734,7.48484 16.348452,12.80301 5.252518,-5.51514 14.313126,-15.6919 9.06059,-10.176752 14.116137,-15.82321 5.12121,-5.712114 10.111093,-10.964633 11.03029,-11.621196 18.64645,-17.595937 2.36362,-1.969693 6.04039,-0.131308 0.91919,0.459596 1.51011,1.050504 -6.56566,5.515144 -19.10604,21.929263 5.71211,1.444444 10.2424,1.444444 4.5303,0 9.19192,-0.984848 4.72726,-1.050504 8.79797,-3.020197 9.32321,-4.398985 10.63635,-10.833321 2.49495,-12.540386 -15.69192,-17.267653 -7.09089,-1.904039 -14.57572,-1.904039 -7.41919,0 -14.1818,1.050504 -6.762629,0.984848 -12.343427,3.151511 -12.212101,4.792924 -13.984828,13.590892 -1.510092,7.419182 3.020203,12.474732 -7.287881,6.368678 -10.833317,6.368678 -4.070707,0 -6.696966,-4.398985 -2.691922,-4.530296 -1.641419,-9.914129 1.050504,-5.38383 4.13637,-9.454533 3.085848,-4.070701 7.616142,-7.222212 4.530295,-3.217167 10.045449,-5.5808 5.580798,-2.363633 11.621185,-3.939389 11.686868,-3.085855 20.550488,-3.085855 8.86362,0 14.64139,0.787878 5.84343,0.722222 10.89898,2.297977 5.05554,1.575756 9.19191,3.939389 4.13635,2.363633 6.89392,5.5808 5.77777,6.828274 3.87374,16.348463 -1.5101,7.616152 -9.12626,13.656548 -6.82827,5.580801 -17.00503,8.338374 z M 76.80091,128.3636 q 7.353526,1.5101 12.080793,1.5101 4.727266,0 8.075749,-0.19697 3.348468,-0.26262 7.353528,-1.31313 4.07069,-1.0505 7.2222,-2.95454 6.82827,-4.0707 8.27272,-11.1616 1.37878,-6.89393 -4.79293,-11.29291 -5.5808,-4.005048 -15.691894,-4.398988 -3.020203,4.070698 -5.974742,8.141408 -2.954539,4.0707 -5.843415,7.94443 -6.106069,8.1414 -10.702009,13.7222 z" stroke-miterlimit="2"/>
</g></svg>
