<?xml version="1.0" encoding="utf-8"?>
<svg version="1.1" xmlns:cc="http://creativecommons.org/ns#" xmlns:dc="http://purl.org/dc/elements/1.1/" xmlns:rdf="http://www.w3.org/1999/02/22-rdf-syntax-ns#" xmlns="http://www.w3.org/2000/svg" xmlns:xlink="http://www.w3.org/1999/xlink" x="0px" y="0px" viewBox="0 0 200 200" xml:space="preserve">
<defs>
<filter id="filter" x="-50%" y="-50%" width="200%" height="200%">
	<feOffset result="inner-glow" in="SourceGraphic" dx="0" dy="5" />
	<feFlood flood-color="#ffffff" result="flood-white" />
	<feFlood flood-color="#CACACA" result="flood-accent">
		<animate 
             attributeName="flood-color"
             dur="6s" 
             repeatCount="1"
             keyTimes="0;
                       0.25;
                       0.5;
                       0.75;
                       1"

             values="#040404;
                     #FFFFFF;
                     #8C8787;
                     #CACACA; #040404"/>
	</feFlood>
	
	<feComposite operator="out" in="flood-accent" in2="SourceAlpha" result="comp" />
	<feMorphology in="comp" result="comp" operator="dilate" radius="4" />
	<feGaussianBlur in="comp" result="comp" stdDeviation="5" />
	<feComposite operator="in" in="comp" in2="SourceAlpha" result="comp" />
	
	<feComposite operator="in" in="flood-white" in2="SourceAlpha" result="comp2" />
	<feMorphology in="comp2" result="comp2" operator="erode" radius="3" />
	<feGaussianBlur in="comp2" result="comp2" stdDeviation="4">
		<animate attributeName="stdDeviation" values="4;6;4" dur="3s" calcMode="spline"	keySplines=".73 .18 .24 .87; .73 .18 .24 .87;" repeatCount="1" /> 
	</feGaussianBlur>
	<feBlend in="comp" in2="comp2" result="output" mode="screen" />
</filter>

 <filter id="glow" x="-50%" y="-50%" width="200%" height="200%">
  <feGaussianBlur in="SourceGraphic" stdDeviation="6" />
</filter> 
<filter id="glow2" x="-100%" y="-100%" width="300%" height="300%">
  <feGaussianBlur in="SourceGraphic" stdDeviation="20" />
</filter>
<filter id="shadow" x="-50%" y="-50%" width="200%" height="200%">
  <feGaussianBlur in="SourceGraphic" stdDeviation="4" />
</filter>
</defs>

<g transform="translate(20 20) scale(0.8)">
<path d="m114.03 47.213c-5.9091 0-12.758 1.0287-20.549 3.0859-4.0269 1.0505-7.9006 2.3637-11.621 3.9394-3.6767 1.5758-7.0267 3.4353-10.047 5.5801-3.0202 2.101-5.558 4.5088-7.6152 7.2227-2.0572 2.7138-3.4364 5.8639-4.1367 9.4531-0.70034 3.5892-0.15395 6.8958 1.6406 9.916 1.7508 2.9327 3.9835 4.3984 6.6973 4.3984 2.3636 0 5.9754-2.1234 10.834-6.3691-3.0202-3.3704-4.0262-7.5285-3.0195-12.475 1.1818-5.8653 5.843-10.397 13.984-13.592 3.7205-1.4444 7.8353-2.4938 12.344-3.1504 4.5084-0.70034 9.2355-1.0508 14.182-1.0508 4.9899 0 9.847 0.63494 14.574 1.9043 12.125 3.1515 17.357 8.9073 15.693 17.268-0.87544 4.2896-4.4213 7.9013-10.637 10.834-2.7138 1.3131-5.6473 2.3192-8.7988 3.0195-3.1078 0.65656-6.1712 0.98437-9.1914 0.98437s-6.4341-0.4804-10.242-1.4434c8.3602-10.943 14.728-18.253 19.105-21.93-0.39394-0.39394-0.89697-0.74438-1.5098-1.0508-2.4512-1.2256-4.4653-1.1823-6.041 0.1309-5.0774 3.9831-11.293 9.8482-18.646 17.596-3.3266 3.5017-6.6952 7.1568-10.109 10.965-3.3704 3.7643-8.0768 9.0397-14.117 15.824-6.0404 6.7845-10.811 12.015-14.313 15.691-8.3165-3.5454-13.767-7.8128-16.35-12.803-3.6768 0.96298-5.6456 2.1216-5.9082 3.4785-0.70034 3.5454 0.19646 8.0993 2.6914 13.658 3.5017 7.6599 9.6306 13.634 18.385 17.924 8.9293 4.3771 19.148 6.5644 30.66 6.5644 15.495 0 28.474-3.7644 38.936-11.293 7.8788-5.6464 12.672-12.759 14.379-21.338 1.9259-9.5858-2.0363-16.917-11.885-21.994 6.7845-1.8384 12.454-4.6174 17.006-8.3379 5.0774-4.0269 8.1183-8.5808 9.125-13.658 1.2694-6.3468-0.0212-11.795-3.873-16.348-1.8384-2.1448-4.137-4.0043-6.8945-5.5801-2.7576-1.5758-5.8211-2.889-9.1914-3.9394-3.3704-1.0505-7.0028-1.8174-10.898-2.2988-3.8518-0.52526-8.7335-0.7871-14.643-0.7871zm-14.71 51.342c6.7407 0.26262 11.973 1.7304 15.693 4.4004 4.1144 2.9326 5.7121 6.697 4.793 11.293-0.96297 4.7272-3.7213 8.4464-8.2734 11.16-2.101 1.2693-4.5089 2.2547-7.2227 2.9551-2.67 0.70034-5.1212 1.1374-7.3535 1.3125-2.2323 0.13124-4.9247 0.19728-8.0762 0.19728s-7.1777-0.50303-12.08-1.5098c3.0639-3.7205 6.6305-8.2951 10.701-13.723 1.9259-2.5825 3.8741-5.2296 5.8438-7.9434s3.9612-5.4288 5.9746-8.1426z" fill="#CACACA" stroke="#CACACA" stroke-width="5" filter="url(#glow2)" opacity="0.7" mix-blend-mode="screen">
<animate 
             attributeName="fill"
             dur="6s" 
             repeatCount="1"
             keyTimes="0;
                       0.25;
                       0.5;
                       0.75;
                       1"

             values="#040404;
                     #FFFFFF;
                     #8C8787;
                     #CACACA; #040404"/>
					 <animate 
             attributeName="stroke"
             dur="6s" 
             repeatCount="1"
             keyTimes="0;
                       0.25;
                       0.5;
                       0.75;
                       1"

             values="#040404;
                     #FFFFFF;
                     #8C8787;
                     #CACACA; #040404"/>
</path>
<path d="m114.03 47.213c-5.9091 0-12.758 1.0287-20.549 3.0859-4.0269 1.0505-7.9006 2.3637-11.621 3.9394-3.6767 1.5758-7.0267 3.4353-10.047 5.5801-3.0202 2.101-5.558 4.5088-7.6152 7.2227-2.0572 2.7138-3.4364 5.8639-4.1367 9.4531-0.70034 3.5892-0.15395 6.8958 1.6406 9.916 1.7508 2.9327 3.9835 4.3984 6.6973 4.3984 2.3636 0 5.9754-2.1234 10.834-6.3691-3.0202-3.3704-4.0262-7.5285-3.0195-12.475 1.1818-5.8653 5.843-10.397 13.984-13.592 3.7205-1.4444 7.8353-2.4938 12.344-3.1504 4.5084-0.70034 9.2355-1.0508 14.182-1.0508 4.9899 0 9.847 0.63494 14.574 1.9043 12.125 3.1515 17.357 8.9073 15.693 17.268-0.87544 4.2896-4.4213 7.9013-10.637 10.834-2.7138 1.3131-5.6473 2.3192-8.7988 3.0195-3.1078 0.65656-6.1712 0.98437-9.1914 0.98437s-6.4341-0.4804-10.242-1.4434c8.3602-10.943 14.728-18.253 19.105-21.93-0.39394-0.39394-0.89697-0.74438-1.5098-1.0508-2.4512-1.2256-4.4653-1.1823-6.041 0.1309-5.0774 3.9831-11.293 9.8482-18.646 17.596-3.3266 3.5017-6.6952 7.1568-10.109 10.965-3.3704 3.7643-8.0768 9.0397-14.117 15.824-6.0404 6.7845-10.811 12.015-14.313 15.691-8.3165-3.5454-13.767-7.8128-16.35-12.803-3.6768 0.96298-5.6456 2.1216-5.9082 3.4785-0.70034 3.5454 0.19646 8.0993 2.6914 13.658 3.5017 7.6599 9.6306 13.634 18.385 17.924 8.9293 4.3771 19.148 6.5644 30.66 6.5644 15.495 0 28.474-3.7644 38.936-11.293 7.8788-5.6464 12.672-12.759 14.379-21.338 1.9259-9.5858-2.0363-16.917-11.885-21.994 6.7845-1.8384 12.454-4.6174 17.006-8.3379 5.0774-4.0269 8.1183-8.5808 9.125-13.658 1.2694-6.3468-0.0212-11.795-3.873-16.348-1.8384-2.1448-4.137-4.0043-6.8945-5.5801-2.7576-1.5758-5.8211-2.889-9.1914-3.9394-3.3704-1.0505-7.0028-1.8174-10.898-2.2988-3.8518-0.52526-8.7335-0.7871-14.643-0.7871zm-14.71 51.342c6.7407 0.26262 11.973 1.7304 15.693 4.4004 4.1144 2.9326 5.7121 6.697 4.793 11.293-0.96297 4.7272-3.7213 8.4464-8.2734 11.16-2.101 1.2693-4.5089 2.2547-7.2227 2.9551-2.67 0.70034-5.1212 1.1374-7.3535 1.3125-2.2323 0.13124-4.9247 0.19728-8.0762 0.19728s-7.1777-0.50303-12.08-1.5098c3.0639-3.7205 6.6305-8.2951 10.701-13.723 1.9259-2.5825 3.8741-5.2296 5.8438-7.9434s3.9612-5.4288 5.9746-8.1426z" fill="#CACACA" stroke="#CACACA" stroke-width="5" filter="url(#glow)" opacity="1" mix-blend-mode="screen">
<animate 
             attributeName="fill"
             dur="6s" 
             repeatCount="1"
             keyTimes="0;
                       0.25;
                       0.5;
                       0.75;
                       1"

             values="#040404;
                     #FFFFFF;
                     #8C8787;
                     #CACACA; #040404"/>
					 <animate 
             attributeName="stroke"
             dur="6s" 
             repeatCount="1"
             keyTimes="0;
                       0.25;
                       0.5;
                       0.75;
                       1"

             values="#040404;
                     #FFFFFF;
                     #8C8787;
                     #CACACA; #040404"/>
</path>
<path d="m114.03 47.213c-5.9091 0-12.758 1.0287-20.549 3.0859-4.0269 1.0505-7.9006 2.3637-11.621 3.9394-3.6767 1.5758-7.0267 3.4353-10.047 5.5801-3.0202 2.101-5.558 4.5088-7.6152 7.2227-2.0572 2.7138-3.4364 5.8639-4.1367 9.4531-0.70034 3.5892-0.15395 6.8958 1.6406 9.916 1.7508 2.9327 3.9835 4.3984 6.6973 4.3984 2.3636 0 5.9754-2.1234 10.834-6.3691-3.0202-3.3704-4.0262-7.5285-3.0195-12.475 1.1818-5.8653 5.843-10.397 13.984-13.592 3.7205-1.4444 7.8353-2.4938 12.344-3.1504 4.5084-0.70034 9.2355-1.0508 14.182-1.0508 4.9899 0 9.847 0.63494 14.574 1.9043 12.125 3.1515 17.357 8.9073 15.693 17.268-0.87544 4.2896-4.4213 7.9013-10.637 10.834-2.7138 1.3131-5.6473 2.3192-8.7988 3.0195-3.1078 0.65656-6.1712 0.98437-9.1914 0.98437s-6.4341-0.4804-10.242-1.4434c8.3602-10.943 14.728-18.253 19.105-21.93-0.39394-0.39394-0.89697-0.74438-1.5098-1.0508-2.4512-1.2256-4.4653-1.1823-6.041 0.1309-5.0774 3.9831-11.293 9.8482-18.646 17.596-3.3266 3.5017-6.6952 7.1568-10.109 10.965-3.3704 3.7643-8.0768 9.0397-14.117 15.824-6.0404 6.7845-10.811 12.015-14.313 15.691-8.3165-3.5454-13.767-7.8128-16.35-12.803-3.6768 0.96298-5.6456 2.1216-5.9082 3.4785-0.70034 3.5454 0.19646 8.0993 2.6914 13.658 3.5017 7.6599 9.6306 13.634 18.385 17.924 8.9293 4.3771 19.148 6.5644 30.66 6.5644 15.495 0 28.474-3.7644 38.936-11.293 7.8788-5.6464 12.672-12.759 14.379-21.338 1.9259-9.5858-2.0363-16.917-11.885-21.994 6.7845-1.8384 12.454-4.6174 17.006-8.3379 5.0774-4.0269 8.1183-8.5808 9.125-13.658 1.2694-6.3468-0.0212-11.795-3.873-16.348-1.8384-2.1448-4.137-4.0043-6.8945-5.5801-2.7576-1.5758-5.8211-2.889-9.1914-3.9394-3.3704-1.0505-7.0028-1.8174-10.898-2.2988-3.8518-0.52526-8.7335-0.7871-14.643-0.7871zm-14.71 51.342c6.7407 0.26262 11.973 1.7304 15.693 4.4004 4.1144 2.9326 5.7121 6.697 4.793 11.293-0.96297 4.7272-3.7213 8.4464-8.2734 11.16-2.101 1.2693-4.5089 2.2547-7.2227 2.9551-2.67 0.70034-5.1212 1.1374-7.3535 1.3125-2.2323 0.13124-4.9247 0.19728-8.0762 0.19728s-7.1777-0.50303-12.08-1.5098c3.0639-3.7205 6.6305-8.2951 10.701-13.723 1.9259-2.5825 3.8741-5.2296 5.8438-7.9434s3.9612-5.4288 5.9746-8.1426z" transform="translate(3 15)" fill="#000000" stroke="#000000" stroke-width="2" filter="url(#shadow)" opacity="0.3" mix-blend-mode="screen" />
<path d="m114.03 47.213c-5.9091 0-12.758 1.0287-20.549 3.0859-4.0269 1.0505-7.9006 2.3637-11.621 3.9394-3.6767 1.5758-7.0267 3.4353-10.047 5.5801-3.0202 2.101-5.558 4.5088-7.6152 7.2227-2.0572 2.7138-3.4364 5.8639-4.1367 9.4531-0.70034 3.5892-0.15395 6.8958 1.6406 9.916 1.7508 2.9327 3.9835 4.3984 6.6973 4.3984 2.3636 0 5.9754-2.1234 10.834-6.3691-3.0202-3.3704-4.0262-7.5285-3.0195-12.475 1.1818-5.8653 5.843-10.397 13.984-13.592 3.7205-1.4444 7.8353-2.4938 12.344-3.1504 4.5084-0.70034 9.2355-1.0508 14.182-1.0508 4.9899 0 9.847 0.63494 14.574 1.9043 12.125 3.1515 17.357 8.9073 15.693 17.268-0.87544 4.2896-4.4213 7.9013-10.637 10.834-2.7138 1.3131-5.6473 2.3192-8.7988 3.0195-3.1078 0.65656-6.1712 0.98437-9.1914 0.98437s-6.4341-0.4804-10.242-1.4434c8.3602-10.943 14.728-18.253 19.105-21.93-0.39394-0.39394-0.89697-0.74438-1.5098-1.0508-2.4512-1.2256-4.4653-1.1823-6.041 0.1309-5.0774 3.9831-11.293 9.8482-18.646 17.596-3.3266 3.5017-6.6952 7.1568-10.109 10.965-3.3704 3.7643-8.0768 9.0397-14.117 15.824-6.0404 6.7845-10.811 12.015-14.313 15.691-8.3165-3.5454-13.767-7.8128-16.35-12.803-3.6768 0.96298-5.6456 2.1216-5.9082 3.4785-0.70034 3.5454 0.19646 8.0993 2.6914 13.658 3.5017 7.6599 9.6306 13.634 18.385 17.924 8.9293 4.3771 19.148 6.5644 30.66 6.5644 15.495 0 28.474-3.7644 38.936-11.293 7.8788-5.6464 12.672-12.759 14.379-21.338 1.9259-9.5858-2.0363-16.917-11.885-21.994 6.7845-1.8384 12.454-4.6174 17.006-8.3379 5.0774-4.0269 8.1183-8.5808 9.125-13.658 1.2694-6.3468-0.0212-11.795-3.873-16.348-1.8384-2.1448-4.137-4.0043-6.8945-5.5801-2.7576-1.5758-5.8211-2.889-9.1914-3.9394-3.3704-1.0505-7.0028-1.8174-10.898-2.2988-3.8518-0.52526-8.7335-0.7871-14.643-0.7871zm-14.71 51.342c6.7407 0.26262 11.973 1.7304 15.693 4.4004 4.1144 2.9326 5.7121 6.697 4.793 11.293-0.96297 4.7272-3.7213 8.4464-8.2734 11.16-2.101 1.2693-4.5089 2.2547-7.2227 2.9551-2.67 0.70034-5.1212 1.1374-7.3535 1.3125-2.2323 0.13124-4.9247 0.19728-8.0762 0.19728s-7.1777-0.50303-12.08-1.5098c3.0639-3.7205 6.6305-8.2951 10.701-13.723 1.9259-2.5825 3.8741-5.2296 5.8438-7.9434s3.9612-5.4288 5.9746-8.1426z" fill="#ffffff" filter="url(#filter)" />
</g>
</svg>